<svg xmlns="http://www.w3.org/2000/svg" viewBox="0 0 813.85 1510.77" width="813.85" height="1510.77" font-family="'Hiragino Sans','Hiragino Kaku Gothic ProN','Noto Sans JP','Yu Gothic',Meiryo,'IPAGothic',sans-serif"><rect width="813.85" height="1510.77" fill="#ffffff"/><text x="406.92" y="30" font-size="15" text-anchor="middle" fill="#111" font-weight="700" font-family="'Hiragino Sans','Hiragino Kaku Gothic ProN','Noto Sans JP','Yu Gothic',Meiryo,'IPAGothic',sans-serif">１階平面図 兼 配置図　縮尺1／100</text><line x1="16.92" y1="0" x2="16.92" y2="1510.77" stroke="#c9c9c9" stroke-width="0.7"/><line x1="44.92" y1="0" x2="44.92" y2="1510.77" stroke="#dedede" stroke-width="0.55"/><line x1="72.92" y1="0" x2="72.92" y2="1510.77" stroke="#c9c9c9" stroke-width="0.7"/><line x1="100.92" y1="0" x2="100.92" y2="1510.77" stroke="#dedede" stroke-width="0.55"/><line x1="128.92" y1="0" x2="128.92" y2="1510.77" stroke="#c9c9c9" stroke-width="0.7"/><line x1="156.92" y1="0" x2="156.92" y2="1510.77" stroke="#dedede" stroke-width="0.55"/><line x1="184.92" y1="0" x2="184.92" y2="1510.77" stroke="#c9c9c9" stroke-width="0.7"/><line x1="212.92" y1="0" x2="212.92" y2="1510.77" stroke="#dedede" stroke-width="0.55"/><line x1="240.92" y1="0" x2="240.92" y2="1510.77" stroke="#c9c9c9" stroke-width="0.7"/><line x1="268.92" y1="0" x2="268.92" y2="1510.77" stroke="#dedede" stroke-width="0.55"/><line x1="296.92" y1="0" x2="296.92" y2="1510.77" stroke="#c9c9c9" stroke-width="0.7"/><line x1="324.92" y1="0" x2="324.92" y2="1510.77" stroke="#dedede" stroke-width="0.55"/><line x1="352.92" y1="0" x2="352.92" y2="1510.77" stroke="#c9c9c9" stroke-width="0.7"/><line x1="380.92" y1="0" x2="380.92" y2="1510.77" stroke="#dedede" stroke-width="0.55"/><line x1="408.92" y1="0" x2="408.92" y2="1510.77" stroke="#c9c9c9" stroke-width="0.7"/><line x1="436.92" y1="0" x2="436.92" y2="1510.77" stroke="#dedede" stroke-width="0.55"/><line x1="464.92" y1="0" x2="464.92" y2="1510.77" stroke="#c9c9c9" stroke-width="0.7"/><line x1="492.92" y1="0" x2="492.92" y2="1510.77" stroke="#dedede" stroke-width="0.55"/><line x1="520.92" y1="0" x2="520.92" y2="1510.77" stroke="#c9c9c9" stroke-width="0.7"/><line x1="548.92" y1="0" x2="548.92" y2="1510.77" stroke="#dedede" stroke-width="0.55"/><line x1="576.92" y1="0" x2="576.92" y2="1510.77" stroke="#c9c9c9" stroke-width="0.7"/><line x1="604.92" y1="0" x2="604.92" y2="1510.77" stroke="#dedede" stroke-width="0.55"/><line x1="632.92" y1="0" x2="632.92" y2="1510.77" stroke="#c9c9c9" stroke-width="0.7"/><line x1="660.92" y1="0" x2="660.92" y2="1510.77" stroke="#dedede" stroke-width="0.55"/><line x1="688.92" y1="0" x2="688.92" y2="1510.77" stroke="#c9c9c9" stroke-width="0.7"/><line x1="716.92" y1="0" x2="716.92" y2="1510.77" stroke="#dedede" stroke-width="0.55"/><line x1="744.92" y1="0" x2="744.92" y2="1510.77" stroke="#c9c9c9" stroke-width="0.7"/><line x1="772.92" y1="0" x2="772.92" y2="1510.77" stroke="#dedede" stroke-width="0.55"/><line x1="800.92" y1="0" x2="800.92" y2="1510.77" stroke="#c9c9c9" stroke-width="0.7"/><line x1="0" y1="7.57" x2="813.85" y2="7.57" stroke="#dedede" stroke-width="0.55"/><line x1="0" y1="35.57" x2="813.85" y2="35.57" stroke="#c9c9c9" stroke-width="0.7"/><line x1="0" y1="63.57" x2="813.85" y2="63.57" stroke="#dedede" stroke-width="0.55"/><line x1="0" y1="91.57" x2="813.85" y2="91.57" stroke="#c9c9c9" stroke-width="0.7"/><line x1="0" y1="119.57" x2="813.85" y2="119.57" stroke="#dedede" stroke-width="0.55"/><line x1="0" y1="147.57" x2="813.85" y2="147.57" stroke="#c9c9c9" stroke-width="0.7"/><line x1="0" y1="175.57" x2="813.85" y2="175.57" stroke="#dedede" stroke-width="0.55"/><line x1="0" y1="203.57" x2="813.85" y2="203.57" stroke="#c9c9c9" stroke-width="0.7"/><line x1="0" y1="231.57" x2="813.85" y2="231.57" stroke="#dedede" stroke-width="0.55"/><line x1="0" y1="259.57" x2="813.85" y2="259.57" stroke="#c9c9c9" stroke-width="0.7"/><line x1="0" y1="287.57" x2="813.85" y2="287.57" stroke="#dedede" stroke-width="0.55"/><line x1="0" y1="315.57" x2="813.85" y2="315.57" stroke="#c9c9c9" stroke-width="0.7"/><line x1="0" y1="343.57" x2="813.85" y2="343.57" stroke="#dedede" stroke-width="0.55"/><line x1="0" y1="371.57" x2="813.85" y2="371.57" stroke="#c9c9c9" stroke-width="0.7"/><line x1="0" y1="399.57" x2="813.85" y2="399.57" stroke="#dedede" stroke-width="0.55"/><line x1="0" y1="427.57" x2="813.85" y2="427.57" stroke="#c9c9c9" stroke-width="0.7"/><line x1="0" y1="455.57" x2="813.85" y2="455.57" stroke="#dedede" stroke-width="0.55"/><line x1="0" y1="483.57" x2="813.85" y2="483.57" stroke="#c9c9c9" stroke-width="0.7"/><line x1="0" y1="511.57" x2="813.85" y2="511.57" stroke="#dedede" stroke-width="0.55"/><line x1="0" y1="539.57" x2="813.85" y2="539.57" stroke="#c9c9c9" stroke-width="0.7"/><line x1="0" y1="567.57" x2="813.85" y2="567.57" stroke="#dedede" stroke-width="0.55"/><line x1="0" y1="595.57" x2="813.85" y2="595.57" stroke="#c9c9c9" stroke-width="0.7"/><line x1="0" y1="623.57" x2="813.85" y2="623.57" stroke="#dedede" stroke-width="0.55"/><line x1="0" y1="651.57" x2="813.85" y2="651.57" stroke="#c9c9c9" stroke-width="0.7"/><line x1="0" y1="679.57" x2="813.85" y2="679.57" stroke="#dedede" stroke-width="0.55"/><line x1="0" y1="707.57" x2="813.85" y2="707.57" stroke="#c9c9c9" stroke-width="0.7"/><line x1="0" y1="735.57" x2="813.85" y2="735.57" stroke="#dedede" stroke-width="0.55"/><line x1="0" y1="763.57" x2="813.85" y2="763.57" stroke="#c9c9c9" stroke-width="0.7"/><line x1="0" y1="791.57" x2="813.85" y2="791.57" stroke="#dedede" stroke-width="0.55"/><line x1="0" y1="819.57" x2="813.85" y2="819.57" stroke="#c9c9c9" stroke-width="0.7"/><line x1="0" y1="847.57" x2="813.85" y2="847.57" stroke="#dedede" stroke-width="0.55"/><line x1="0" y1="875.57" x2="813.85" y2="875.57" stroke="#c9c9c9" stroke-width="0.7"/><line x1="0" y1="903.57" x2="813.85" y2="903.57" stroke="#dedede" stroke-width="0.55"/><line x1="0" y1="931.57" x2="813.85" y2="931.57" stroke="#c9c9c9" stroke-width="0.7"/><line x1="0" y1="959.57" x2="813.85" y2="959.57" stroke="#dedede" stroke-width="0.55"/><line x1="0" y1="987.57" x2="813.85" y2="987.57" stroke="#c9c9c9" stroke-width="0.7"/><line x1="0" y1="1015.57" x2="813.85" y2="1015.57" stroke="#dedede" stroke-width="0.55"/><line x1="0" y1="1043.57" x2="813.85" y2="1043.57" stroke="#c9c9c9" stroke-width="0.7"/><line x1="0" y1="1071.57" x2="813.85" y2="1071.57" stroke="#dedede" stroke-width="0.55"/><line x1="0" y1="1099.57" x2="813.85" y2="1099.57" stroke="#c9c9c9" stroke-width="0.7"/><line x1="0" y1="1127.57" x2="813.85" y2="1127.57" stroke="#dedede" stroke-width="0.55"/><line x1="0" y1="1155.57" x2="813.85" y2="1155.57" stroke="#c9c9c9" stroke-width="0.7"/><line x1="0" y1="1183.57" x2="813.85" y2="1183.57" stroke="#dedede" stroke-width="0.55"/><line x1="0" y1="1211.57" x2="813.85" y2="1211.57" stroke="#c9c9c9" stroke-width="0.7"/><line x1="0" y1="1239.57" x2="813.85" y2="1239.57" stroke="#dedede" stroke-width="0.55"/><line x1="0" y1="1267.57" x2="813.85" y2="1267.57" stroke="#c9c9c9" stroke-width="0.7"/><line x1="0" y1="1295.57" x2="813.85" y2="1295.57" stroke="#dedede" stroke-width="0.55"/><line x1="0" y1="1323.57" x2="813.85" y2="1323.57" stroke="#c9c9c9" stroke-width="0.7"/><line x1="0" y1="1351.57" x2="813.85" y2="1351.57" stroke="#dedede" stroke-width="0.55"/><line x1="0" y1="1379.57" x2="813.85" y2="1379.57" stroke="#c9c9c9" stroke-width="0.7"/><line x1="0" y1="1407.57" x2="813.85" y2="1407.57" stroke="#dedede" stroke-width="0.55"/><line x1="0" y1="1435.57" x2="813.85" y2="1435.57" stroke="#c9c9c9" stroke-width="0.7"/><line x1="0" y1="1463.57" x2="813.85" y2="1463.57" stroke="#dedede" stroke-width="0.55"/><line x1="0" y1="1491.57" x2="813.85" y2="1491.57" stroke="#c9c9c9" stroke-width="0.7"/><rect x="104" y="104" width="553.85" height="1230.77" fill="none" stroke="#111" stroke-width="1.4" stroke-dasharray="16 4 3 4"/><line x1="104" y1="104" x2="657.85" y2="104" stroke="#111" stroke-width="2.4" stroke-dasharray="14 6"/><line x1="104" y1="1334.77" x2="104" y2="104" stroke="#111" stroke-width="2.4" stroke-dasharray="14 6"/><line x1="657.85" y1="1334.77" x2="657.85" y2="104" stroke="#111" stroke-width="2.4" stroke-dasharray="14 6"/><g transform="translate(118,719.38) rotate(-90)"><text x="0" y="0" font-size="8" text-anchor="middle" fill="#333" font-weight="400" font-family="'Hiragino Sans','Hiragino Kaku Gothic ProN','Noto Sans JP','Yu Gothic',Meiryo,'IPAGothic',sans-serif">塀 H=1,200</text></g><text x="380.92" y="1364.77" font-size="10" text-anchor="middle" fill="#111" font-weight="700" font-family="'Hiragino Sans','Hiragino Kaku Gothic ProN','Noto Sans JP','Yu Gothic',Meiryo,'IPAGothic',sans-serif">道　路（幅員 6,000）</text><line x1="252.12" y1="1328.77" x2="252.12" y2="1340.77" stroke="#111" stroke-width="2.4"/><line x1="313.72" y1="1328.77" x2="313.72" y2="1340.77" stroke="#111" stroke-width="2.4"/><text x="260.92" y="1324.77" font-size="8.5" text-anchor="middle" fill="#111" font-weight="400" font-family="'Hiragino Sans','Hiragino Kaku Gothic ProN','Noto Sans JP','Yu Gothic',Meiryo,'IPAGothic',sans-serif">門</text><line x1="254.92" y1="1334.77" x2="254.92" y2="1211.57" stroke="#666" stroke-width="0.8"/><line x1="310.92" y1="1334.77" x2="310.92" y2="1211.57" stroke="#666" stroke-width="0.8"/><text x="308.92" y="1273.17" font-size="8" text-anchor="start" fill="#333" font-weight="400" font-family="'Hiragino Sans','Hiragino Kaku Gothic ProN','Noto Sans JP','Yu Gothic',Meiryo,'IPAGothic',sans-serif">アプローチ</text><polygon points="282.92,1318.77 276.92,1330.77 288.92,1330.77" fill="#111"/><rect x="431.32" y="1215.6" width="36.92" height="110.77" fill="#fff" stroke="#333" stroke-width="0.8"/><rect x="468.25" y="1215.6" width="36.92" height="110.77" fill="#fff" stroke="#333" stroke-width="0.8"/><rect x="505.17" y="1215.6" width="36.92" height="110.77" fill="#fff" stroke="#333" stroke-width="0.8"/><rect x="542.09" y="1215.6" width="36.92" height="110.77" fill="#fff" stroke="#333" stroke-width="0.8"/><text x="505.17" y="1206.8" font-size="8" text-anchor="middle" fill="#111" font-weight="400" font-family="'Hiragino Sans','Hiragino Kaku Gothic ProN','Noto Sans JP','Yu Gothic',Meiryo,'IPAGothic',sans-serif">駐輪スペース（4台）</text><circle cx="218.52" cy="1292.77" r="9" fill="#fff" stroke="#666" stroke-width="0.8"/><circle cx="263.32" cy="1292.77" r="9" fill="#fff" stroke="#666" stroke-width="0.8"/><circle cx="308.12" cy="1292.77" r="9" fill="#fff" stroke="#666" stroke-width="0.8"/><text x="263.32" y="1316.77" font-size="8" text-anchor="middle" fill="#111" font-weight="400" font-family="'Hiragino Sans','Hiragino Kaku Gothic ProN','Noto Sans JP','Yu Gothic',Meiryo,'IPAGothic',sans-serif">植栽</text><line x1="126" y1="1211.57" x2="126" y2="1334.77" stroke="#444" stroke-width="0.8"/><line x1="122" y1="1211.57" x2="130" y2="1211.57" stroke="#444" stroke-width="0.8"/><line x1="122" y1="1334.77" x2="130" y2="1334.77" stroke="#444" stroke-width="0.8"/><text x="131" y="1277.17" font-size="8.5" text-anchor="start" fill="#444" font-weight="400" font-family="'Hiragino Sans','Hiragino Kaku Gothic ProN','Noto Sans JP','Yu Gothic',Meiryo,'IPAGothic',sans-serif">2,002</text><line x1="126" y1="104" x2="126" y2="595.57" stroke="#444" stroke-width="0.8"/><line x1="122" y1="104" x2="130" y2="104" stroke="#444" stroke-width="0.8"/><line x1="122" y1="595.57" x2="130" y2="595.57" stroke="#444" stroke-width="0.8"/><text x="131" y="353.78" font-size="8.5" text-anchor="start" fill="#444" font-weight="400" font-family="'Hiragino Sans','Hiragino Kaku Gothic ProN','Noto Sans JP','Yu Gothic',Meiryo,'IPAGothic',sans-serif">7,988</text><line x1="104" y1="84" x2="184.92" y2="84" stroke="#444" stroke-width="0.8"/><line x1="104" y1="80" x2="104" y2="88" stroke="#444" stroke-width="0.8"/><line x1="184.92" y1="80" x2="184.92" y2="88" stroke="#444" stroke-width="0.8"/><text x="144.46" y="79" font-size="8.5" text-anchor="middle" fill="#444" font-weight="400" font-family="'Hiragino Sans','Hiragino Kaku Gothic ProN','Noto Sans JP','Yu Gothic',Meiryo,'IPAGothic',sans-serif">1,315</text><line x1="576.92" y1="84" x2="657.85" y2="84" stroke="#444" stroke-width="0.8"/><line x1="576.92" y1="80" x2="576.92" y2="88" stroke="#444" stroke-width="0.8"/><line x1="657.85" y1="80" x2="657.85" y2="88" stroke="#444" stroke-width="0.8"/><text x="617.38" y="79" font-size="8.5" text-anchor="middle" fill="#444" font-weight="400" font-family="'Hiragino Sans','Hiragino Kaku Gothic ProN','Noto Sans JP','Yu Gothic',Meiryo,'IPAGothic',sans-serif">1,315</text><text x="647.85" y="1322.77" font-size="9" text-anchor="end" fill="#333" font-weight="400" font-family="'Hiragino Sans','Hiragino Kaku Gothic ProN','Noto Sans JP','Yu Gothic',Meiryo,'IPAGothic',sans-serif">敷地面積 180.00㎡</text><line x1="184.92" y1="569.57" x2="184.92" y2="1241.57" stroke="#888" stroke-width="0.6" stroke-dasharray="12 3 2 3"/><line x1="296.92" y1="569.57" x2="296.92" y2="1241.57" stroke="#888" stroke-width="0.6" stroke-dasharray="12 3 2 3"/><line x1="464.92" y1="569.57" x2="464.92" y2="1241.57" stroke="#888" stroke-width="0.6" stroke-dasharray="12 3 2 3"/><line x1="576.92" y1="569.57" x2="576.92" y2="1241.57" stroke="#888" stroke-width="0.6" stroke-dasharray="12 3 2 3"/><line x1="158.92" y1="1211.57" x2="606.92" y2="1211.57" stroke="#888" stroke-width="0.6" stroke-dasharray="12 3 2 3"/><line x1="158.92" y1="1099.57" x2="606.92" y2="1099.57" stroke="#888" stroke-width="0.6" stroke-dasharray="12 3 2 3"/><line x1="158.92" y1="875.57" x2="606.92" y2="875.57" stroke="#888" stroke-width="0.6" stroke-dasharray="12 3 2 3"/><line x1="158.92" y1="707.57" x2="606.92" y2="707.57" stroke="#888" stroke-width="0.6" stroke-dasharray="12 3 2 3"/><line x1="158.92" y1="595.57" x2="606.92" y2="595.57" stroke="#888" stroke-width="0.6" stroke-dasharray="12 3 2 3"/><line x1="181.23" y1="1211.57" x2="181.23" y2="651.57" stroke="#111" stroke-width="1.15"/><line x1="188.62" y1="1211.57" x2="188.62" y2="651.57" stroke="#111" stroke-width="1.15"/><line x1="181.23" y1="601.17" x2="181.23" y2="595.57" stroke="#111" stroke-width="1.15"/><line x1="188.62" y1="601.17" x2="188.62" y2="595.57" stroke="#111" stroke-width="1.15"/><line x1="293.23" y1="1211.57" x2="293.23" y2="1032.37" stroke="#111" stroke-width="1.15"/><line x1="300.62" y1="1211.57" x2="300.62" y2="1032.37" stroke="#111" stroke-width="1.15"/><line x1="293.23" y1="976.37" x2="293.23" y2="858.77" stroke="#111" stroke-width="1.15"/><line x1="300.62" y1="976.37" x2="300.62" y2="858.77" stroke="#111" stroke-width="1.15"/><line x1="293.23" y1="819.57" x2="293.23" y2="735.57" stroke="#111" stroke-width="1.15"/><line x1="300.62" y1="819.57" x2="300.62" y2="735.57" stroke="#111" stroke-width="1.15"/><line x1="293.23" y1="679.57" x2="293.23" y2="595.57" stroke="#111" stroke-width="1.15"/><line x1="300.62" y1="679.57" x2="300.62" y2="595.57" stroke="#111" stroke-width="1.15"/><line x1="184.92" y1="1207.88" x2="240.92" y2="1207.88" stroke="#111" stroke-width="1.15"/><line x1="184.92" y1="1215.26" x2="240.92" y2="1215.26" stroke="#111" stroke-width="1.15"/><line x1="291.32" y1="1207.88" x2="352.92" y2="1207.88" stroke="#111" stroke-width="1.15"/><line x1="291.32" y1="1215.26" x2="352.92" y2="1215.26" stroke="#111" stroke-width="1.15"/><line x1="459.32" y1="1207.88" x2="576.92" y2="1207.88" stroke="#111" stroke-width="1.15"/><line x1="459.32" y1="1215.26" x2="576.92" y2="1215.26" stroke="#111" stroke-width="1.15"/><line x1="184.92" y1="1095.88" x2="207.32" y2="1095.88" stroke="#111" stroke-width="1.15"/><line x1="184.92" y1="1103.26" x2="207.32" y2="1103.26" stroke="#111" stroke-width="1.15"/><line x1="274.52" y1="1095.88" x2="296.92" y2="1095.88" stroke="#111" stroke-width="1.15"/><line x1="274.52" y1="1103.26" x2="296.92" y2="1103.26" stroke="#111" stroke-width="1.15"/><line x1="184.92" y1="871.88" x2="296.92" y2="871.88" stroke="#111" stroke-width="1.15"/><line x1="184.92" y1="879.26" x2="296.92" y2="879.26" stroke="#111" stroke-width="1.15"/><line x1="184.92" y1="759.88" x2="296.92" y2="759.88" stroke="#111" stroke-width="1.15"/><line x1="184.92" y1="767.26" x2="296.92" y2="767.26" stroke="#111" stroke-width="1.15"/><line x1="184.92" y1="591.88" x2="352.92" y2="591.88" stroke="#111" stroke-width="1.15"/><line x1="184.92" y1="599.26" x2="352.92" y2="599.26" stroke="#111" stroke-width="1.15"/><line x1="459.32" y1="591.88" x2="520.92" y2="591.88" stroke="#111" stroke-width="1.15"/><line x1="459.32" y1="599.26" x2="520.92" y2="599.26" stroke="#111" stroke-width="1.15"/><line x1="571.32" y1="591.88" x2="576.92" y2="591.88" stroke="#111" stroke-width="1.15"/><line x1="571.32" y1="599.26" x2="576.92" y2="599.26" stroke="#111" stroke-width="1.15"/><line x1="573.23" y1="1211.57" x2="573.23" y2="1093.97" stroke="#111" stroke-width="1.15"/><line x1="580.62" y1="1211.57" x2="580.62" y2="1093.97" stroke="#111" stroke-width="1.15"/><line x1="573.23" y1="1015.57" x2="573.23" y2="1009.97" stroke="#111" stroke-width="1.15"/><line x1="580.62" y1="1015.57" x2="580.62" y2="1009.97" stroke="#111" stroke-width="1.15"/><line x1="573.23" y1="931.57" x2="573.23" y2="819.57" stroke="#111" stroke-width="1.15"/><line x1="580.62" y1="931.57" x2="580.62" y2="819.57" stroke="#111" stroke-width="1.15"/><line x1="573.23" y1="713.17" x2="573.23" y2="595.57" stroke="#111" stroke-width="1.15"/><line x1="580.62" y1="713.17" x2="580.62" y2="595.57" stroke="#111" stroke-width="1.15"/><line x1="296.92" y1="815.88" x2="352.92" y2="815.88" stroke="#111" stroke-width="1.15"/><line x1="296.92" y1="823.26" x2="352.92" y2="823.26" stroke="#111" stroke-width="1.15"/><line x1="442.52" y1="815.88" x2="576.92" y2="815.88" stroke="#111" stroke-width="1.15"/><line x1="442.52" y1="823.26" x2="576.92" y2="823.26" stroke="#111" stroke-width="1.15"/><line x1="461.23" y1="819.57" x2="461.23" y2="735.57" stroke="#111" stroke-width="1.15"/><line x1="468.62" y1="819.57" x2="468.62" y2="735.57" stroke="#111" stroke-width="1.15"/><line x1="461.23" y1="668.37" x2="461.23" y2="595.57" stroke="#111" stroke-width="1.15"/><line x1="468.62" y1="668.37" x2="468.62" y2="595.57" stroke="#111" stroke-width="1.15"/><line x1="352.92" y1="1209.72" x2="406.12" y2="1209.72" stroke="#111" stroke-width="1.6"/><line x1="406.12" y1="1213.42" x2="459.32" y2="1213.42" stroke="#111" stroke-width="1.6"/><line x1="352.92" y1="1207.88" x2="352.92" y2="1215.26" stroke="#111" stroke-width="1.0"/><line x1="459.32" y1="1207.88" x2="459.32" y2="1215.26" stroke="#111" stroke-width="1.0"/><line x1="240.92" y1="1209.72" x2="266.12" y2="1209.72" stroke="#111" stroke-width="1.6"/><line x1="266.12" y1="1213.42" x2="291.32" y2="1213.42" stroke="#111" stroke-width="1.6"/><line x1="240.92" y1="1207.88" x2="240.92" y2="1215.26" stroke="#111" stroke-width="1.0"/><line x1="291.32" y1="1207.88" x2="291.32" y2="1215.26" stroke="#111" stroke-width="1.0"/><line x1="352.92" y1="593.72" x2="406.12" y2="593.72" stroke="#111" stroke-width="1.6"/><line x1="406.12" y1="597.42" x2="459.32" y2="597.42" stroke="#111" stroke-width="1.6"/><line x1="352.92" y1="591.88" x2="352.92" y2="599.26" stroke="#111" stroke-width="1.0"/><line x1="459.32" y1="591.88" x2="459.32" y2="599.26" stroke="#111" stroke-width="1.0"/><line x1="520.92" y1="591.88" x2="571.32" y2="591.88" stroke="#111" stroke-width="0.9"/><line x1="520.92" y1="599.26" x2="571.32" y2="599.26" stroke="#111" stroke-width="0.9"/><line x1="520.92" y1="595.57" x2="571.32" y2="595.57" stroke="#111" stroke-width="0.7"/><line x1="520.92" y1="591.88" x2="520.92" y2="599.26" stroke="#111" stroke-width="1.0"/><line x1="571.32" y1="591.88" x2="571.32" y2="599.26" stroke="#111" stroke-width="1.0"/><line x1="573.23" y1="1093.97" x2="573.23" y2="1015.57" stroke="#111" stroke-width="0.9"/><line x1="580.62" y1="1093.97" x2="580.62" y2="1015.57" stroke="#111" stroke-width="0.9"/><line x1="576.92" y1="1093.97" x2="576.92" y2="1015.57" stroke="#111" stroke-width="0.7"/><line x1="573.23" y1="1093.97" x2="580.62" y2="1093.97" stroke="#111" stroke-width="1.0"/><line x1="573.23" y1="1015.57" x2="580.62" y2="1015.57" stroke="#111" stroke-width="1.0"/><line x1="573.23" y1="1009.97" x2="573.23" y2="931.57" stroke="#111" stroke-width="0.9"/><line x1="580.62" y1="1009.97" x2="580.62" y2="931.57" stroke="#111" stroke-width="0.9"/><line x1="576.92" y1="1009.97" x2="576.92" y2="931.57" stroke="#111" stroke-width="0.7"/><line x1="573.23" y1="1009.97" x2="580.62" y2="1009.97" stroke="#111" stroke-width="1.0"/><line x1="573.23" y1="931.57" x2="580.62" y2="931.57" stroke="#111" stroke-width="1.0"/><line x1="573.23" y1="819.57" x2="573.23" y2="713.17" stroke="#111" stroke-width="0.9"/><line x1="580.62" y1="819.57" x2="580.62" y2="713.17" stroke="#111" stroke-width="0.9"/><line x1="576.92" y1="819.57" x2="576.92" y2="713.17" stroke="#111" stroke-width="0.7"/><line x1="573.23" y1="819.57" x2="580.62" y2="819.57" stroke="#111" stroke-width="1.0"/><line x1="573.23" y1="713.17" x2="580.62" y2="713.17" stroke="#111" stroke-width="1.0"/><line x1="181.23" y1="651.57" x2="181.23" y2="601.17" stroke="#111" stroke-width="0.9"/><line x1="188.62" y1="651.57" x2="188.62" y2="601.17" stroke="#111" stroke-width="0.9"/><line x1="184.92" y1="651.57" x2="184.92" y2="601.17" stroke="#111" stroke-width="0.7"/><line x1="181.23" y1="651.57" x2="188.62" y2="651.57" stroke="#111" stroke-width="1.0"/><line x1="181.23" y1="601.17" x2="188.62" y2="601.17" stroke="#111" stroke-width="1.0"/><line x1="207.32" y1="1095.88" x2="207.32" y2="1103.26" stroke="#111" stroke-width="1.0"/><line x1="274.52" y1="1095.88" x2="274.52" y2="1103.26" stroke="#111" stroke-width="1.0"/><line x1="207.32" y1="1099.57" x2="207.32" y2="1166.77" stroke="#555" stroke-width="1.2"/><path d="M 207.3 1166.8 A 67.2 67.2 0 0 1 274.5 1099.6" stroke="#777" stroke-width="0.9" fill="none"/><line x1="293.23" y1="1032.37" x2="300.62" y2="1032.37" stroke="#111" stroke-width="1.0"/><line x1="293.23" y1="976.37" x2="300.62" y2="976.37" stroke="#111" stroke-width="1.0"/><line x1="296.92" y1="1032.37" x2="352.92" y2="1032.37" stroke="#555" stroke-width="1.2"/><path d="M 352.9 1032.4 A 56.0 56.0 0 0 0 296.9 976.4" stroke="#777" stroke-width="0.9" fill="none"/><line x1="293.23" y1="858.77" x2="300.62" y2="858.77" stroke="#111" stroke-width="1.0"/><line x1="293.23" y1="819.57" x2="300.62" y2="819.57" stroke="#111" stroke-width="1.0"/><line x1="296.92" y1="858.77" x2="336.12" y2="858.77" stroke="#555" stroke-width="1.2"/><path d="M 336.1 858.8 A 39.2 39.2 0 0 0 296.9 819.6" stroke="#777" stroke-width="0.9" fill="none"/><line x1="293.23" y1="735.57" x2="300.62" y2="735.57" stroke="#111" stroke-width="1.0"/><line x1="293.23" y1="679.57" x2="300.62" y2="679.57" stroke="#111" stroke-width="1.0"/><line x1="296.92" y1="735.57" x2="352.92" y2="735.57" stroke="#555" stroke-width="1.2"/><path d="M 352.9 735.6 A 56.0 56.0 0 0 0 296.9 679.6" stroke="#777" stroke-width="0.9" fill="none"/><line x1="352.92" y1="817.72" x2="397.72" y2="817.72" stroke="#111" stroke-width="1.6"/><line x1="397.72" y1="821.42" x2="442.52" y2="821.42" stroke="#111" stroke-width="1.6"/><line x1="352.92" y1="815.88" x2="352.92" y2="823.26" stroke="#111" stroke-width="1.0"/><line x1="442.52" y1="815.88" x2="442.52" y2="823.26" stroke="#111" stroke-width="1.0"/><line x1="461.23" y1="735.57" x2="468.62" y2="735.57" stroke="#111" stroke-width="1.0"/><line x1="461.23" y1="668.37" x2="468.62" y2="668.37" stroke="#111" stroke-width="1.0"/><line x1="464.92" y1="735.57" x2="397.72" y2="735.57" stroke="#555" stroke-width="1.2"/><path d="M 397.7 735.6 A 67.2 67.2 0 0 1 464.9 668.4" stroke="#777" stroke-width="0.9" fill="none"/><rect x="190.52" y="1105.17" width="61.6" height="22.4" fill="#fff" stroke="#333" stroke-width="0.85"/><text x="221.32" y="1119.37" font-size="7" text-anchor="middle" fill="#333" font-weight="400" font-family="'Hiragino Sans','Hiragino Kaku Gothic ProN','Noto Sans JP','Yu Gothic',Meiryo,'IPAGothic',sans-serif">下足入れ</text><rect x="219.64" y="822.37" width="28" height="10.08" fill="#fff" stroke="#333" stroke-width="0.85"/><ellipse cx="233.6" cy="843.6" rx="9.5" ry="12.3" fill="#fff" stroke="#333" stroke-width="0.85"/><rect x="253.24" y="821.25" width="12.88" height="12.32" fill="#fff" stroke="#333" stroke-width="0.85"/><ellipse cx="259.7" cy="827.4" rx="3.9" ry="3.9" fill="#fff" stroke="#333" stroke-width="0.85"/><rect x="431.32" y="1152.21" width="117.6" height="17.92" fill="#fff" stroke="#333" stroke-width="0.85"/><rect x="431.32" y="1006.61" width="117.6" height="17.92" fill="#fff" stroke="#333" stroke-width="0.85"/><rect x="431.32" y="861.01" width="117.6" height="17.92" fill="#fff" stroke="#333" stroke-width="0.85"/><rect x="324.92" y="928.21" width="61.6" height="17.92" fill="#fff" stroke="#333" stroke-width="0.85"/><rect x="324.92" y="849.81" width="61.6" height="17.92" fill="#fff" stroke="#333" stroke-width="0.85"/><rect x="316.52" y="1158.37" width="84" height="36.4" fill="#fff" stroke="#333" stroke-width="0.85"/><text x="358.52" y="1179.57" font-size="8" text-anchor="middle" fill="#333" font-weight="400" font-family="'Hiragino Sans','Hiragino Kaku Gothic ProN','Noto Sans JP','Yu Gothic',Meiryo,'IPAGothic',sans-serif">レジ</text><rect x="313.72" y="769.17" width="84" height="33.6" fill="#fff" stroke="#333" stroke-width="0.85"/><ellipse cx="338.9" cy="786.0" rx="9.0" ry="9.0" fill="#fff" stroke="#333" stroke-width="0.85"/><ellipse cx="372.5" cy="792.7" rx="3.4" ry="3.4" fill="#fff" stroke="#333" stroke-width="0.85"/><ellipse cx="372.5" cy="779.2" rx="3.4" ry="3.4" fill="#fff" stroke="#333" stroke-width="0.85"/><ellipse cx="384.8" cy="792.7" rx="3.4" ry="3.4" fill="#fff" stroke="#333" stroke-width="0.85"/><ellipse cx="384.8" cy="779.2" rx="3.4" ry="3.4" fill="#fff" stroke="#333" stroke-width="0.85"/><rect x="397.72" y="769.17" width="33.6" height="33.6" fill="#fff" stroke="#333" stroke-width="0.85"/><text x="414.52" y="788.97" font-size="7.5" text-anchor="middle" fill="#333" font-weight="400" font-family="'Hiragino Sans','Hiragino Kaku Gothic ProN','Noto Sans JP','Yu Gothic',Meiryo,'IPAGothic',sans-serif">冷</text><rect x="414.52" y="606.77" width="39.2" height="56" fill="#fff" stroke="#333" stroke-width="0.85"/><text x="434.12" y="637.77" font-size="7.5" text-anchor="middle" fill="#333" font-weight="400" font-family="'Hiragino Sans','Hiragino Kaku Gothic ProN','Noto Sans JP','Yu Gothic',Meiryo,'IPAGothic',sans-serif">作業台</text><rect x="506.92" y="743.97" width="67.2" height="28" fill="#fff" stroke="#333" stroke-width="0.85"/><rect x="509.16" y="773.65" width="17.92" height="13.44" fill="#fff" stroke="#333" stroke-width="0.85"/><rect x="509.16" y="728.85" width="17.92" height="13.44" fill="#fff" stroke="#333" stroke-width="0.85"/><rect x="553.96" y="773.65" width="17.92" height="13.44" fill="#fff" stroke="#333" stroke-width="0.85"/><rect x="553.96" y="728.85" width="17.92" height="13.44" fill="#fff" stroke="#333" stroke-width="0.85"/><rect x="520.92" y="606.77" width="19.6" height="44.8" fill="#fff" stroke="#333" stroke-width="0.85"/><rect x="546.12" y="606.77" width="19.6" height="44.8" fill="#fff" stroke="#333" stroke-width="0.85"/><text x="543.32" y="662.97" font-size="6.5" text-anchor="middle" fill="#333" font-weight="400" font-family="'Hiragino Sans','Hiragino Kaku Gothic ProN','Noto Sans JP','Yu Gothic',Meiryo,'IPAGothic',sans-serif">ロッカー</text><line x1="188.62" y1="931.57" x2="293.23" y2="931.57" stroke="#111" stroke-width="1.2"/><text x="240.92" y="906.37" font-size="8" text-anchor="middle" fill="#333" font-weight="400" font-family="'Hiragino Sans','Hiragino Kaku Gothic ProN','Noto Sans JP','Yu Gothic',Meiryo,'IPAGothic',sans-serif">踊場</text><line x1="240.92" y1="1099.57" x2="240.92" y2="931.57" stroke="#111" stroke-width="1.5"/><text x="252.92" y="943.57" font-size="7.5" text-anchor="middle" fill="#333" font-weight="400" font-family="'Hiragino Sans','Hiragino Kaku Gothic ProN','Noto Sans JP','Yu Gothic',Meiryo,'IPAGothic',sans-serif">手摺</text><line x1="242.42" y1="945.57" x2="293.23" y2="945.57" stroke="#111" stroke-width="0.8"/><line x1="242.42" y1="959.57" x2="293.23" y2="959.57" stroke="#111" stroke-width="0.8"/><line x1="242.42" y1="973.57" x2="293.23" y2="973.57" stroke="#111" stroke-width="0.8"/><line x1="242.42" y1="987.57" x2="293.23" y2="987.57" stroke="#111" stroke-width="0.8"/><line x1="242.42" y1="1001.57" x2="293.23" y2="1001.57" stroke="#111" stroke-width="0.8"/><line x1="242.42" y1="1015.57" x2="293.23" y2="1015.57" stroke="#111" stroke-width="0.8"/><line x1="188.62" y1="945.57" x2="239.42" y2="945.57" stroke="#111" stroke-width="0.8"/><line x1="188.62" y1="959.57" x2="239.42" y2="959.57" stroke="#111" stroke-width="0.8"/><line x1="188.62" y1="973.57" x2="239.42" y2="973.57" stroke="#111" stroke-width="0.8"/><line x1="188.62" y1="987.57" x2="239.42" y2="987.57" stroke="#111" stroke-width="0.8"/><line x1="188.62" y1="1001.57" x2="239.42" y2="1001.57" stroke="#111" stroke-width="0.8"/><line x1="188.62" y1="1015.57" x2="239.42" y2="1015.57" stroke="#111" stroke-width="0.8"/><line x1="188.62" y1="1029.57" x2="239.42" y2="1029.57" stroke="#111" stroke-width="0.8"/><line x1="268.92" y1="1027.89" x2="268.92" y2="946.29" stroke="#111" stroke-width="1.2"/><polygon points="268.92,938.29 264.92,946.29 272.92,946.29" fill="#111"/><text x="268.92" y="1039.89" font-size="9" text-anchor="middle" fill="#111" font-weight="700" font-family="'Hiragino Sans','Hiragino Kaku Gothic ProN','Noto Sans JP','Yu Gothic',Meiryo,'IPAGothic',sans-serif">UP</text><line x1="243.72" y1="1007.57" x2="294.12" y2="995.57" stroke="#111" stroke-width="0.9"/><line x1="243.72" y1="1012.57" x2="294.12" y2="1000.57" stroke="#111" stroke-width="0.9"/><rect x="187.92" y="878.57" width="106" height="218" fill="none" stroke="#111" stroke-width="1.0" stroke-dasharray="7 3 2 3"/><text x="240.92" y="888.57" font-size="7.5" text-anchor="middle" fill="#333" font-weight="400" font-family="'Hiragino Sans','Hiragino Kaku Gothic ProN','Noto Sans JP','Yu Gothic',Meiryo,'IPAGothic',sans-serif">竪穴区画</text><polygon points="177.92,1155.57 167.92,1150.07 167.92,1161.07" fill="#fff" stroke="#111" stroke-width="1.1"/><polygon points="177.92,987.57 167.92,982.07 167.92,993.07" fill="#fff" stroke="#111" stroke-width="1.1"/><polygon points="177.92,791.57 167.92,786.07 167.92,797.07" fill="#fff" stroke="#111" stroke-width="1.1"/><polygon points="177.92,679.57 167.92,674.07 167.92,685.07" fill="#fff" stroke="#111" stroke-width="1.1"/><polygon points="303.92,1155.57 313.92,1150.07 313.92,1161.07" fill="#fff" stroke="#111" stroke-width="1.1"/><polygon points="303.92,925.97 313.92,920.47 313.92,931.47" fill="#fff" stroke="#111" stroke-width="1.1"/><polygon points="303.92,777.57 313.92,772.07 313.92,783.07" fill="#fff" stroke="#111" stroke-width="1.1"/><polygon points="303.92,637.57 313.92,632.07 313.92,643.07" fill="#fff" stroke="#111" stroke-width="1.1"/><polygon points="471.92,631.97 481.92,626.47 481.92,637.47" fill="#fff" stroke="#111" stroke-width="1.1"/><polygon points="583.92,1155.57 593.92,1150.07 593.92,1161.07" fill="#fff" stroke="#111" stroke-width="1.1"/><polygon points="583.92,903.57 593.92,898.07 593.92,909.07" fill="#fff" stroke="#111" stroke-width="1.1"/><polygon points="583.92,847.57 593.92,842.07 593.92,853.07" fill="#fff" stroke="#111" stroke-width="1.1"/><polygon points="583.92,651.57 593.92,646.07 593.92,657.07" fill="#fff" stroke="#111" stroke-width="1.1"/><polygon points="212.92,1218.57 207.42,1228.57 218.42,1228.57" fill="#fff" stroke="#111" stroke-width="1.1"/><polygon points="324.92,1218.57 319.42,1228.57 330.42,1228.57" fill="#fff" stroke="#111" stroke-width="1.1"/><polygon points="520.92,1218.57 515.42,1228.57 526.42,1228.57" fill="#fff" stroke="#111" stroke-width="1.1"/><polygon points="240.92,868.57 235.42,858.57 246.42,858.57" fill="#fff" stroke="#111" stroke-width="1.1"/><polygon points="240.92,588.57 235.42,578.57 246.42,578.57" fill="#fff" stroke="#111" stroke-width="1.1"/><polygon points="324.92,588.57 319.42,578.57 330.42,578.57" fill="#fff" stroke="#111" stroke-width="1.1"/><polygon points="492.92,588.57 487.42,578.57 498.42,578.57" fill="#fff" stroke="#111" stroke-width="1.1"/><rect x="293.23" y="1207.88" width="7.38" height="7.38" fill="#111"/><rect x="461.23" y="1207.88" width="7.38" height="7.38" fill="#111"/><rect x="181.23" y="1095.88" width="7.38" height="7.38" fill="#111"/><rect x="573.23" y="1095.88" width="7.38" height="7.38" fill="#111"/><rect x="181.23" y="871.88" width="7.38" height="7.38" fill="#111"/><rect x="573.23" y="871.88" width="7.38" height="7.38" fill="#111"/><rect x="181.23" y="703.88" width="7.38" height="7.38" fill="#111"/><rect x="573.23" y="703.88" width="7.38" height="7.38" fill="#111"/><rect x="293.23" y="591.88" width="7.38" height="7.38" fill="#111"/><rect x="461.23" y="591.88" width="7.38" height="7.38" fill="#111"/><rect x="293.23" y="1095.88" width="7.38" height="7.38" fill="#111"/><rect x="461.23" y="1095.88" width="7.38" height="7.38" fill="#111"/><rect x="293.23" y="871.88" width="7.38" height="7.38" fill="#111"/><rect x="461.23" y="871.88" width="7.38" height="7.38" fill="#111"/><rect x="293.23" y="703.88" width="7.38" height="7.38" fill="#111"/><rect x="461.23" y="703.88" width="7.38" height="7.38" fill="#111"/><rect x="181.23" y="1207.88" width="7.38" height="7.38" fill="#111"/><circle cx="184.92" cy="1211.57" r="8" fill="none" stroke="#111" stroke-width="1.2"/><rect x="573.23" y="1207.88" width="7.38" height="7.38" fill="#111"/><circle cx="576.92" cy="1211.57" r="8" fill="none" stroke="#111" stroke-width="1.2"/><rect x="181.23" y="591.88" width="7.38" height="7.38" fill="#111"/><circle cx="184.92" cy="595.57" r="8" fill="none" stroke="#111" stroke-width="1.2"/><rect x="573.23" y="591.88" width="7.38" height="7.38" fill="#111"/><circle cx="576.92" cy="595.57" r="8" fill="none" stroke="#111" stroke-width="1.2"/><polygon points="406.12,1218.57 400.12,1230.57 412.12,1230.57" fill="#111"/><polygon points="266.12,1218.57 260.12,1230.57 272.12,1230.57" fill="#111"/><polygon points="406.12,588.57 400.12,576.57 412.12,576.57" fill="#111"/><text x="240.92" y="1142.61" font-size="10" text-anchor="middle" fill="#111" font-weight="700" font-family="'Hiragino Sans','Hiragino Kaku Gothic ProN','Noto Sans JP','Yu Gothic',Meiryo,'IPAGothic',sans-serif">住宅玄関</text><text x="240.92" y="1155.61" font-size="9" text-anchor="middle" fill="#111" font-weight="400" font-family="'Hiragino Sans','Hiragino Kaku Gothic ProN','Noto Sans JP','Yu Gothic',Meiryo,'IPAGothic',sans-serif">3.31㎡</text><text x="240.92" y="1167.61" font-size="8.5" text-anchor="middle" fill="#333" font-weight="400" font-family="'Hiragino Sans','Hiragino Kaku Gothic ProN','Noto Sans JP','Yu Gothic',Meiryo,'IPAGothic',sans-serif">GL＋550</text><text x="240.92" y="1060.85" font-size="10" text-anchor="middle" fill="#111" font-weight="700" font-family="'Hiragino Sans','Hiragino Kaku Gothic ProN','Noto Sans JP','Yu Gothic',Meiryo,'IPAGothic',sans-serif">階　段</text><text x="240.92" y="1073.85" font-size="9" text-anchor="middle" fill="#111" font-weight="400" font-family="'Hiragino Sans','Hiragino Kaku Gothic ProN','Noto Sans JP','Yu Gothic',Meiryo,'IPAGothic',sans-serif">6.62㎡</text><text x="240.92" y="806.61" font-size="10" text-anchor="middle" fill="#111" font-weight="700" font-family="'Hiragino Sans','Hiragino Kaku Gothic ProN','Noto Sans JP','Yu Gothic',Meiryo,'IPAGothic',sans-serif">店舗用便所</text><text x="240.92" y="819.61" font-size="9" text-anchor="middle" fill="#111" font-weight="400" font-family="'Hiragino Sans','Hiragino Kaku Gothic ProN','Noto Sans JP','Yu Gothic',Meiryo,'IPAGothic',sans-serif">3.31㎡</text><text x="240.92" y="641.97" font-size="10" text-anchor="middle" fill="#111" font-weight="700" font-family="'Hiragino Sans','Hiragino Kaku Gothic ProN','Noto Sans JP','Yu Gothic',Meiryo,'IPAGothic',sans-serif">倉　庫</text><text x="240.92" y="654.97" font-size="9" text-anchor="middle" fill="#111" font-weight="400" font-family="'Hiragino Sans','Hiragino Kaku Gothic ProN','Noto Sans JP','Yu Gothic',Meiryo,'IPAGothic',sans-serif">4.96㎡</text><text x="436.92" y="933.17" font-size="11.5" text-anchor="middle" fill="#111" font-weight="700" font-family="'Hiragino Sans','Hiragino Kaku Gothic ProN','Noto Sans JP','Yu Gothic',Meiryo,'IPAGothic',sans-serif">店舗売場</text><text x="436.92" y="946.17" font-size="9" text-anchor="middle" fill="#111" font-weight="400" font-family="'Hiragino Sans','Hiragino Kaku Gothic ProN','Noto Sans JP','Yu Gothic',Meiryo,'IPAGothic',sans-serif">28.98㎡</text><text x="436.92" y="958.17" font-size="8.5" text-anchor="middle" fill="#333" font-weight="400" font-family="'Hiragino Sans','Hiragino Kaku Gothic ProN','Noto Sans JP','Yu Gothic',Meiryo,'IPAGothic',sans-serif">GL＋550</text><text x="380.92" y="658.77" font-size="10" text-anchor="middle" fill="#111" font-weight="700" font-family="'Hiragino Sans','Hiragino Kaku Gothic ProN','Noto Sans JP','Yu Gothic',Meiryo,'IPAGothic',sans-serif">厨房・作業場</text><text x="380.92" y="671.77" font-size="9" text-anchor="middle" fill="#111" font-weight="400" font-family="'Hiragino Sans','Hiragino Kaku Gothic ProN','Noto Sans JP','Yu Gothic',Meiryo,'IPAGothic',sans-serif">9.93㎡</text><text x="380.92" y="683.77" font-size="8.5" text-anchor="middle" fill="#333" font-weight="400" font-family="'Hiragino Sans','Hiragino Kaku Gothic ProN','Noto Sans JP','Yu Gothic',Meiryo,'IPAGothic',sans-serif">GL＋550</text><text x="520.92" y="658.77" font-size="10" text-anchor="middle" fill="#111" font-weight="700" font-family="'Hiragino Sans','Hiragino Kaku Gothic ProN','Noto Sans JP','Yu Gothic',Meiryo,'IPAGothic',sans-serif">スタッフルーム</text><text x="520.92" y="671.77" font-size="9" text-anchor="middle" fill="#111" font-weight="400" font-family="'Hiragino Sans','Hiragino Kaku Gothic ProN','Noto Sans JP','Yu Gothic',Meiryo,'IPAGothic',sans-serif">6.62㎡</text><text x="520.92" y="683.77" font-size="8.5" text-anchor="middle" fill="#333" font-weight="400" font-family="'Hiragino Sans','Hiragino Kaku Gothic ProN','Noto Sans JP','Yu Gothic',Meiryo,'IPAGothic',sans-serif">GL＋550</text><circle cx="184.92" cy="555.57" r="9" fill="#fff" stroke="#111" stroke-width="0.9"/><text x="184.92" y="559.57" font-size="10" text-anchor="middle" fill="#111" font-weight="700" font-family="'Hiragino Sans','Hiragino Kaku Gothic ProN','Noto Sans JP','Yu Gothic',Meiryo,'IPAGothic',sans-serif">A</text><circle cx="296.92" cy="555.57" r="9" fill="#fff" stroke="#111" stroke-width="0.9"/><text x="296.92" y="559.57" font-size="10" text-anchor="middle" fill="#111" font-weight="700" font-family="'Hiragino Sans','Hiragino Kaku Gothic ProN','Noto Sans JP','Yu Gothic',Meiryo,'IPAGothic',sans-serif">B</text><circle cx="464.92" cy="555.57" r="9" fill="#fff" stroke="#111" stroke-width="0.9"/><text x="464.92" y="559.57" font-size="10" text-anchor="middle" fill="#111" font-weight="700" font-family="'Hiragino Sans','Hiragino Kaku Gothic ProN','Noto Sans JP','Yu Gothic',Meiryo,'IPAGothic',sans-serif">C</text><circle cx="576.92" cy="555.57" r="9" fill="#fff" stroke="#111" stroke-width="0.9"/><text x="576.92" y="559.57" font-size="10" text-anchor="middle" fill="#111" font-weight="700" font-family="'Hiragino Sans','Hiragino Kaku Gothic ProN','Noto Sans JP','Yu Gothic',Meiryo,'IPAGothic',sans-serif">D</text><circle cx="144.92" cy="1211.57" r="9" fill="#fff" stroke="#111" stroke-width="0.9"/><text x="144.92" y="1215.57" font-size="10" text-anchor="middle" fill="#111" font-weight="700" font-family="'Hiragino Sans','Hiragino Kaku Gothic ProN','Noto Sans JP','Yu Gothic',Meiryo,'IPAGothic',sans-serif">1</text><circle cx="144.92" cy="1099.57" r="9" fill="#fff" stroke="#111" stroke-width="0.9"/><text x="144.92" y="1103.57" font-size="10" text-anchor="middle" fill="#111" font-weight="700" font-family="'Hiragino Sans','Hiragino Kaku Gothic ProN','Noto Sans JP','Yu Gothic',Meiryo,'IPAGothic',sans-serif">2</text><circle cx="144.92" cy="875.57" r="9" fill="#fff" stroke="#111" stroke-width="0.9"/><text x="144.92" y="879.57" font-size="10" text-anchor="middle" fill="#111" font-weight="700" font-family="'Hiragino Sans','Hiragino Kaku Gothic ProN','Noto Sans JP','Yu Gothic',Meiryo,'IPAGothic',sans-serif">3</text><circle cx="144.92" cy="707.57" r="9" fill="#fff" stroke="#111" stroke-width="0.9"/><text x="144.92" y="711.57" font-size="10" text-anchor="middle" fill="#111" font-weight="700" font-family="'Hiragino Sans','Hiragino Kaku Gothic ProN','Noto Sans JP','Yu Gothic',Meiryo,'IPAGothic',sans-serif">4</text><circle cx="144.92" cy="595.57" r="9" fill="#fff" stroke="#111" stroke-width="0.9"/><text x="144.92" y="599.57" font-size="10" text-anchor="middle" fill="#111" font-weight="700" font-family="'Hiragino Sans','Hiragino Kaku Gothic ProN','Noto Sans JP','Yu Gothic',Meiryo,'IPAGothic',sans-serif">5</text><line x1="184.92" y1="1245.57" x2="296.92" y2="1245.57" stroke="#444" stroke-width="0.8"/><line x1="184.92" y1="1241.57" x2="184.92" y2="1249.57" stroke="#444" stroke-width="0.8"/><line x1="296.92" y1="1241.57" x2="296.92" y2="1249.57" stroke="#444" stroke-width="0.8"/><text x="240.92" y="1240.57" font-size="9" text-anchor="middle" fill="#444" font-weight="400" font-family="'Hiragino Sans','Hiragino Kaku Gothic ProN','Noto Sans JP','Yu Gothic',Meiryo,'IPAGothic',sans-serif">1,820</text><line x1="296.92" y1="1245.57" x2="464.92" y2="1245.57" stroke="#444" stroke-width="0.8"/><line x1="296.92" y1="1241.57" x2="296.92" y2="1249.57" stroke="#444" stroke-width="0.8"/><line x1="464.92" y1="1241.57" x2="464.92" y2="1249.57" stroke="#444" stroke-width="0.8"/><text x="380.92" y="1240.57" font-size="9" text-anchor="middle" fill="#444" font-weight="400" font-family="'Hiragino Sans','Hiragino Kaku Gothic ProN','Noto Sans JP','Yu Gothic',Meiryo,'IPAGothic',sans-serif">2,730</text><line x1="464.92" y1="1245.57" x2="576.92" y2="1245.57" stroke="#444" stroke-width="0.8"/><line x1="464.92" y1="1241.57" x2="464.92" y2="1249.57" stroke="#444" stroke-width="0.8"/><line x1="576.92" y1="1241.57" x2="576.92" y2="1249.57" stroke="#444" stroke-width="0.8"/><text x="520.92" y="1240.57" font-size="9" text-anchor="middle" fill="#444" font-weight="400" font-family="'Hiragino Sans','Hiragino Kaku Gothic ProN','Noto Sans JP','Yu Gothic',Meiryo,'IPAGothic',sans-serif">1,820</text><line x1="184.92" y1="1273.57" x2="576.92" y2="1273.57" stroke="#444" stroke-width="0.8"/><line x1="184.92" y1="1269.57" x2="184.92" y2="1277.57" stroke="#444" stroke-width="0.8"/><line x1="576.92" y1="1269.57" x2="576.92" y2="1277.57" stroke="#444" stroke-width="0.8"/><text x="380.92" y="1268.57" font-size="11" text-anchor="middle" fill="#444" font-weight="400" font-family="'Hiragino Sans','Hiragino Kaku Gothic ProN','Noto Sans JP','Yu Gothic',Meiryo,'IPAGothic',sans-serif">6,370</text><line x1="606.92" y1="1211.57" x2="606.92" y2="1099.57" stroke="#444" stroke-width="0.8"/><line x1="602.92" y1="1211.57" x2="610.92" y2="1211.57" stroke="#444" stroke-width="0.8"/><line x1="602.92" y1="1099.57" x2="610.92" y2="1099.57" stroke="#444" stroke-width="0.8"/><text x="612.92" y="1159.57" font-size="9" text-anchor="start" fill="#444" font-weight="400" font-family="'Hiragino Sans','Hiragino Kaku Gothic ProN','Noto Sans JP','Yu Gothic',Meiryo,'IPAGothic',sans-serif">1,820</text><line x1="606.92" y1="1099.57" x2="606.92" y2="875.57" stroke="#444" stroke-width="0.8"/><line x1="602.92" y1="1099.57" x2="610.92" y2="1099.57" stroke="#444" stroke-width="0.8"/><line x1="602.92" y1="875.57" x2="610.92" y2="875.57" stroke="#444" stroke-width="0.8"/><text x="612.92" y="991.57" font-size="9" text-anchor="start" fill="#444" font-weight="400" font-family="'Hiragino Sans','Hiragino Kaku Gothic ProN','Noto Sans JP','Yu Gothic',Meiryo,'IPAGothic',sans-serif">3,640</text><line x1="606.92" y1="875.57" x2="606.92" y2="707.57" stroke="#444" stroke-width="0.8"/><line x1="602.92" y1="875.57" x2="610.92" y2="875.57" stroke="#444" stroke-width="0.8"/><line x1="602.92" y1="707.57" x2="610.92" y2="707.57" stroke="#444" stroke-width="0.8"/><text x="612.92" y="795.57" font-size="9" text-anchor="start" fill="#444" font-weight="400" font-family="'Hiragino Sans','Hiragino Kaku Gothic ProN','Noto Sans JP','Yu Gothic',Meiryo,'IPAGothic',sans-serif">2,730</text><line x1="606.92" y1="707.57" x2="606.92" y2="595.57" stroke="#444" stroke-width="0.8"/><line x1="602.92" y1="707.57" x2="610.92" y2="707.57" stroke="#444" stroke-width="0.8"/><line x1="602.92" y1="595.57" x2="610.92" y2="595.57" stroke="#444" stroke-width="0.8"/><text x="612.92" y="655.57" font-size="9" text-anchor="start" fill="#444" font-weight="400" font-family="'Hiragino Sans','Hiragino Kaku Gothic ProN','Noto Sans JP','Yu Gothic',Meiryo,'IPAGothic',sans-serif">1,820</text><line x1="672.92" y1="1211.57" x2="672.92" y2="595.57" stroke="#444" stroke-width="0.8"/><line x1="668.92" y1="1211.57" x2="676.92" y2="1211.57" stroke="#444" stroke-width="0.8"/><line x1="668.92" y1="595.57" x2="676.92" y2="595.57" stroke="#444" stroke-width="0.8"/><text x="678.92" y="907.57" font-size="11" text-anchor="start" fill="#444" font-weight="400" font-family="'Hiragino Sans','Hiragino Kaku Gothic ProN','Noto Sans JP','Yu Gothic',Meiryo,'IPAGothic',sans-serif">10,010</text><line x1="520.92" y1="1181.57" x2="520.92" y2="1251.57" stroke="#111" stroke-width="2.6"/><line x1="520.92" y1="1185.57" x2="542.92" y2="1185.57" stroke="#111" stroke-width="1.4"/><polygon points="542.92,1185.57 533.92,1181.57 533.92,1189.57" fill="#111"/><line x1="520.92" y1="1245.57" x2="542.92" y2="1245.57" stroke="#111" stroke-width="1.4"/><polygon points="542.92,1245.57 533.92,1241.57 533.92,1249.57" fill="#111"/><text x="512.92" y="1177.57" font-size="10" text-anchor="end" fill="#111" font-weight="700" font-family="'Hiragino Sans','Hiragino Kaku Gothic ProN','Noto Sans JP','Yu Gothic',Meiryo,'IPAGothic',sans-serif">Ｙ</text><text x="512.92" y="1259.57" font-size="10" text-anchor="end" fill="#111" font-weight="700" font-family="'Hiragino Sans','Hiragino Kaku Gothic ProN','Noto Sans JP','Yu Gothic',Meiryo,'IPAGothic',sans-serif">Ｙ</text><text x="546.92" y="1263.57" font-size="8" text-anchor="start" fill="#333" font-weight="400" font-family="'Hiragino Sans','Hiragino Kaku Gothic ProN','Noto Sans JP','Yu Gothic',Meiryo,'IPAGothic',sans-serif">部分詳細図の切断位置</text><circle cx="779.85" cy="34" r="12" fill="#fff" stroke="#444" stroke-width="0.9"/><polygon points="779.85,25 775.85,41 779.85,37 783.85,41" fill="#111"/><text x="779.85" y="58" font-size="9.5" text-anchor="middle" fill="#111" font-weight="700" font-family="'Hiragino Sans','Hiragino Kaku Gothic ProN','Noto Sans JP','Yu Gothic',Meiryo,'IPAGothic',sans-serif">N</text></svg>