<svg xmlns="http://www.w3.org/2000/svg" viewBox="0 0 813.85 1510.77" width="813.85" height="1510.77" font-family="'Hiragino Sans','Hiragino Kaku Gothic ProN','Noto Sans JP','Yu Gothic',Meiryo,'IPAGothic',sans-serif"><rect width="813.85" height="1510.77" fill="#ffffff"/><text x="406.92" y="30" font-size="15" text-anchor="middle" fill="#111" font-weight="700" font-family="'Hiragino Sans','Hiragino Kaku Gothic ProN','Noto Sans JP','Yu Gothic',Meiryo,'IPAGothic',sans-serif">１階平面図 兼 配置図　縮尺1／100</text><line x1="16.92" y1="0" x2="16.92" y2="1510.77" stroke="#c9c9c9" stroke-width="0.7"/><line x1="44.92" y1="0" x2="44.92" y2="1510.77" stroke="#dedede" stroke-width="0.55"/><line x1="72.92" y1="0" x2="72.92" y2="1510.77" stroke="#c9c9c9" stroke-width="0.7"/><line x1="100.92" y1="0" x2="100.92" y2="1510.77" stroke="#dedede" stroke-width="0.55"/><line x1="128.92" y1="0" x2="128.92" y2="1510.77" stroke="#c9c9c9" stroke-width="0.7"/><line x1="156.92" y1="0" x2="156.92" y2="1510.77" stroke="#dedede" stroke-width="0.55"/><line x1="184.92" y1="0" x2="184.92" y2="1510.77" stroke="#c9c9c9" stroke-width="0.7"/><line x1="212.92" y1="0" x2="212.92" y2="1510.77" stroke="#dedede" stroke-width="0.55"/><line x1="240.92" y1="0" x2="240.92" y2="1510.77" stroke="#c9c9c9" stroke-width="0.7"/><line x1="268.92" y1="0" x2="268.92" y2="1510.77" stroke="#dedede" stroke-width="0.55"/><line x1="296.92" y1="0" x2="296.92" y2="1510.77" stroke="#c9c9c9" stroke-width="0.7"/><line x1="324.92" y1="0" x2="324.92" y2="1510.77" stroke="#dedede" stroke-width="0.55"/><line x1="352.92" y1="0" x2="352.92" y2="1510.77" stroke="#c9c9c9" stroke-width="0.7"/><line x1="380.92" y1="0" x2="380.92" y2="1510.77" stroke="#dedede" stroke-width="0.55"/><line x1="408.92" y1="0" x2="408.92" y2="1510.77" stroke="#c9c9c9" stroke-width="0.7"/><line x1="436.92" y1="0" x2="436.92" y2="1510.77" stroke="#dedede" stroke-width="0.55"/><line x1="464.92" y1="0" x2="464.92" y2="1510.77" stroke="#c9c9c9" stroke-width="0.7"/><line x1="492.92" y1="0" x2="492.92" y2="1510.77" stroke="#dedede" stroke-width="0.55"/><line x1="520.92" y1="0" x2="520.92" y2="1510.77" stroke="#c9c9c9" stroke-width="0.7"/><line x1="548.92" y1="0" x2="548.92" y2="1510.77" stroke="#dedede" stroke-width="0.55"/><line x1="576.92" y1="0" x2="576.92" y2="1510.77" stroke="#c9c9c9" stroke-width="0.7"/><line x1="604.92" y1="0" x2="604.92" y2="1510.77" stroke="#dedede" stroke-width="0.55"/><line x1="632.92" y1="0" x2="632.92" y2="1510.77" stroke="#c9c9c9" stroke-width="0.7"/><line x1="660.92" y1="0" x2="660.92" y2="1510.77" stroke="#dedede" stroke-width="0.55"/><line x1="688.92" y1="0" x2="688.92" y2="1510.77" stroke="#c9c9c9" stroke-width="0.7"/><line x1="716.92" y1="0" x2="716.92" y2="1510.77" stroke="#dedede" stroke-width="0.55"/><line x1="744.92" y1="0" x2="744.92" y2="1510.77" stroke="#c9c9c9" stroke-width="0.7"/><line x1="772.92" y1="0" x2="772.92" y2="1510.77" stroke="#dedede" stroke-width="0.55"/><line x1="800.92" y1="0" x2="800.92" y2="1510.77" stroke="#c9c9c9" stroke-width="0.7"/><line x1="0" y1="13.17" x2="813.85" y2="13.17" stroke="#c9c9c9" stroke-width="0.7"/><line x1="0" y1="41.17" x2="813.85" y2="41.17" stroke="#dedede" stroke-width="0.55"/><line x1="0" y1="69.17" x2="813.85" y2="69.17" stroke="#c9c9c9" stroke-width="0.7"/><line x1="0" y1="97.17" x2="813.85" y2="97.17" stroke="#dedede" stroke-width="0.55"/><line x1="0" y1="125.17" x2="813.85" y2="125.17" stroke="#c9c9c9" stroke-width="0.7"/><line x1="0" y1="153.17" x2="813.85" y2="153.17" stroke="#dedede" stroke-width="0.55"/><line x1="0" y1="181.17" x2="813.85" y2="181.17" stroke="#c9c9c9" stroke-width="0.7"/><line x1="0" y1="209.17" x2="813.85" y2="209.17" stroke="#dedede" stroke-width="0.55"/><line x1="0" y1="237.17" x2="813.85" y2="237.17" stroke="#c9c9c9" stroke-width="0.7"/><line x1="0" y1="265.17" x2="813.85" y2="265.17" stroke="#dedede" stroke-width="0.55"/><line x1="0" y1="293.17" x2="813.85" y2="293.17" stroke="#c9c9c9" stroke-width="0.7"/><line x1="0" y1="321.17" x2="813.85" y2="321.17" stroke="#dedede" stroke-width="0.55"/><line x1="0" y1="349.17" x2="813.85" y2="349.17" stroke="#c9c9c9" stroke-width="0.7"/><line x1="0" y1="377.17" x2="813.85" y2="377.17" stroke="#dedede" stroke-width="0.55"/><line x1="0" y1="405.17" x2="813.85" y2="405.17" stroke="#c9c9c9" stroke-width="0.7"/><line x1="0" y1="433.17" x2="813.85" y2="433.17" stroke="#dedede" stroke-width="0.55"/><line x1="0" y1="461.17" x2="813.85" y2="461.17" stroke="#c9c9c9" stroke-width="0.7"/><line x1="0" y1="489.17" x2="813.85" y2="489.17" stroke="#dedede" stroke-width="0.55"/><line x1="0" y1="517.17" x2="813.85" y2="517.17" stroke="#c9c9c9" stroke-width="0.7"/><line x1="0" y1="545.17" x2="813.85" y2="545.17" stroke="#dedede" stroke-width="0.55"/><line x1="0" y1="573.17" x2="813.85" y2="573.17" stroke="#c9c9c9" stroke-width="0.7"/><line x1="0" y1="601.17" x2="813.85" y2="601.17" stroke="#dedede" stroke-width="0.55"/><line x1="0" y1="629.17" x2="813.85" y2="629.17" stroke="#c9c9c9" stroke-width="0.7"/><line x1="0" y1="657.17" x2="813.85" y2="657.17" stroke="#dedede" stroke-width="0.55"/><line x1="0" y1="685.17" x2="813.85" y2="685.17" stroke="#c9c9c9" stroke-width="0.7"/><line x1="0" y1="713.17" x2="813.85" y2="713.17" stroke="#dedede" stroke-width="0.55"/><line x1="0" y1="741.17" x2="813.85" y2="741.17" stroke="#c9c9c9" stroke-width="0.7"/><line x1="0" y1="769.17" x2="813.85" y2="769.17" stroke="#dedede" stroke-width="0.55"/><line x1="0" y1="797.17" x2="813.85" y2="797.17" stroke="#c9c9c9" stroke-width="0.7"/><line x1="0" y1="825.17" x2="813.85" y2="825.17" stroke="#dedede" stroke-width="0.55"/><line x1="0" y1="853.17" x2="813.85" y2="853.17" stroke="#c9c9c9" stroke-width="0.7"/><line x1="0" y1="881.17" x2="813.85" y2="881.17" stroke="#dedede" stroke-width="0.55"/><line x1="0" y1="909.17" x2="813.85" y2="909.17" stroke="#c9c9c9" stroke-width="0.7"/><line x1="0" y1="937.17" x2="813.85" y2="937.17" stroke="#dedede" stroke-width="0.55"/><line x1="0" y1="965.17" x2="813.85" y2="965.17" stroke="#c9c9c9" stroke-width="0.7"/><line x1="0" y1="993.17" x2="813.85" y2="993.17" stroke="#dedede" stroke-width="0.55"/><line x1="0" y1="1021.17" x2="813.85" y2="1021.17" stroke="#c9c9c9" stroke-width="0.7"/><line x1="0" y1="1049.17" x2="813.85" y2="1049.17" stroke="#dedede" stroke-width="0.55"/><line x1="0" y1="1077.17" x2="813.85" y2="1077.17" stroke="#c9c9c9" stroke-width="0.7"/><line x1="0" y1="1105.17" x2="813.85" y2="1105.17" stroke="#dedede" stroke-width="0.55"/><line x1="0" y1="1133.17" x2="813.85" y2="1133.17" stroke="#c9c9c9" stroke-width="0.7"/><line x1="0" y1="1161.17" x2="813.85" y2="1161.17" stroke="#dedede" stroke-width="0.55"/><line x1="0" y1="1189.17" x2="813.85" y2="1189.17" stroke="#c9c9c9" stroke-width="0.7"/><line x1="0" y1="1217.17" x2="813.85" y2="1217.17" stroke="#dedede" stroke-width="0.55"/><line x1="0" y1="1245.17" x2="813.85" y2="1245.17" stroke="#c9c9c9" stroke-width="0.7"/><line x1="0" y1="1273.17" x2="813.85" y2="1273.17" stroke="#dedede" stroke-width="0.55"/><line x1="0" y1="1301.17" x2="813.85" y2="1301.17" stroke="#c9c9c9" stroke-width="0.7"/><line x1="0" y1="1329.17" x2="813.85" y2="1329.17" stroke="#dedede" stroke-width="0.55"/><line x1="0" y1="1357.17" x2="813.85" y2="1357.17" stroke="#c9c9c9" stroke-width="0.7"/><line x1="0" y1="1385.17" x2="813.85" y2="1385.17" stroke="#dedede" stroke-width="0.55"/><line x1="0" y1="1413.17" x2="813.85" y2="1413.17" stroke="#c9c9c9" stroke-width="0.7"/><line x1="0" y1="1441.17" x2="813.85" y2="1441.17" stroke="#dedede" stroke-width="0.55"/><line x1="0" y1="1469.17" x2="813.85" y2="1469.17" stroke="#c9c9c9" stroke-width="0.7"/><line x1="0" y1="1497.17" x2="813.85" y2="1497.17" stroke="#dedede" stroke-width="0.55"/><rect x="104" y="104" width="553.85" height="1230.77" fill="none" stroke="#111" stroke-width="1.4" stroke-dasharray="16 4 3 4"/><line x1="104" y1="104" x2="657.85" y2="104" stroke="#111" stroke-width="2.4" stroke-dasharray="14 6"/><line x1="104" y1="1334.77" x2="104" y2="104" stroke="#111" stroke-width="2.4" stroke-dasharray="14 6"/><line x1="657.85" y1="1334.77" x2="657.85" y2="104" stroke="#111" stroke-width="2.4" stroke-dasharray="14 6"/><g transform="translate(118,719.38) rotate(-90)"><text x="0" y="0" font-size="8" text-anchor="middle" fill="#333" font-weight="400" font-family="'Hiragino Sans','Hiragino Kaku Gothic ProN','Noto Sans JP','Yu Gothic',Meiryo,'IPAGothic',sans-serif">塀 H=1,200</text></g><text x="380.92" y="1364.77" font-size="10" text-anchor="middle" fill="#111" font-weight="700" font-family="'Hiragino Sans','Hiragino Kaku Gothic ProN','Noto Sans JP','Yu Gothic',Meiryo,'IPAGothic',sans-serif">道　路（幅員 6,000）</text><line x1="238.12" y1="1341.49" x2="238.12" y2="1328.05" stroke="#111" stroke-width="2.6"/><line x1="294.12" y1="1341.49" x2="294.12" y2="1328.05" stroke="#111" stroke-width="2.6"/><text x="210.12" y="1319.17" font-size="8.5" text-anchor="middle" fill="#111" font-weight="400" font-family="'Hiragino Sans','Hiragino Kaku Gothic ProN','Noto Sans JP','Yu Gothic',Meiryo,'IPAGothic',sans-serif">門</text><line x1="238.12" y1="1334.77" x2="238.12" y2="1189.17" stroke="#666" stroke-width="0.8"/><line x1="294.12" y1="1334.77" x2="294.12" y2="1189.17" stroke="#666" stroke-width="0.8"/><text x="310.92" y="1265.97" font-size="8" text-anchor="start" fill="#333" font-weight="400" font-family="'Hiragino Sans','Hiragino Kaku Gothic ProN','Noto Sans JP','Yu Gothic',Meiryo,'IPAGothic',sans-serif">アプローチ</text><polygon points="266.12,1333.65 260.12,1349.33 272.12,1349.33" fill="#111"/><rect x="406.83" y="1213.92" width="36.92" height="110.77" fill="#fff" stroke="#333" stroke-width="0.8"/><rect x="443.75" y="1213.92" width="36.92" height="110.77" fill="#fff" stroke="#333" stroke-width="0.8"/><rect x="480.68" y="1213.92" width="36.92" height="110.77" fill="#fff" stroke="#333" stroke-width="0.8"/><rect x="517.6" y="1213.92" width="36.92" height="110.77" fill="#fff" stroke="#333" stroke-width="0.8"/><text x="395.63" y="1272.3" font-size="8" text-anchor="end" fill="#111" font-weight="400" font-family="'Hiragino Sans','Hiragino Kaku Gothic ProN','Noto Sans JP','Yu Gothic',Meiryo,'IPAGothic',sans-serif">駐輪スペース（4台）</text><circle cx="132" cy="1269.25" r="8" fill="#fff" stroke="#666" stroke-width="0.8"/><circle cx="166.72" cy="1269.25" r="8" fill="#fff" stroke="#666" stroke-width="0.8"/><circle cx="201.44" cy="1269.25" r="8" fill="#fff" stroke="#666" stroke-width="0.8"/><text x="166.72" y="1245.73" font-size="8" text-anchor="middle" fill="#111" font-weight="400" font-family="'Hiragino Sans','Hiragino Kaku Gothic ProN','Noto Sans JP','Yu Gothic',Meiryo,'IPAGothic',sans-serif">植栽</text><line x1="126" y1="1189.17" x2="126" y2="1334.77" stroke="#444" stroke-width="0.8"/><line x1="122" y1="1189.17" x2="130" y2="1189.17" stroke="#444" stroke-width="0.8"/><line x1="122" y1="1334.77" x2="130" y2="1334.77" stroke="#444" stroke-width="0.8"/><text x="131" y="1265.97" font-size="8.5" text-anchor="start" fill="#444" font-weight="400" font-family="'Hiragino Sans','Hiragino Kaku Gothic ProN','Noto Sans JP','Yu Gothic',Meiryo,'IPAGothic',sans-serif">2,366</text><line x1="126" y1="104" x2="126" y2="573.17" stroke="#444" stroke-width="0.8"/><line x1="122" y1="104" x2="130" y2="104" stroke="#444" stroke-width="0.8"/><line x1="122" y1="573.17" x2="130" y2="573.17" stroke="#444" stroke-width="0.8"/><text x="131" y="342.58" font-size="8.5" text-anchor="start" fill="#444" font-weight="400" font-family="'Hiragino Sans','Hiragino Kaku Gothic ProN','Noto Sans JP','Yu Gothic',Meiryo,'IPAGothic',sans-serif">7,624</text><line x1="104" y1="84" x2="184.92" y2="84" stroke="#444" stroke-width="0.8"/><line x1="104" y1="80" x2="104" y2="88" stroke="#444" stroke-width="0.8"/><line x1="184.92" y1="80" x2="184.92" y2="88" stroke="#444" stroke-width="0.8"/><text x="144.46" y="79" font-size="8.5" text-anchor="middle" fill="#444" font-weight="400" font-family="'Hiragino Sans','Hiragino Kaku Gothic ProN','Noto Sans JP','Yu Gothic',Meiryo,'IPAGothic',sans-serif">1,315</text><line x1="576.92" y1="84" x2="657.85" y2="84" stroke="#444" stroke-width="0.8"/><line x1="576.92" y1="80" x2="576.92" y2="88" stroke="#444" stroke-width="0.8"/><line x1="657.85" y1="80" x2="657.85" y2="88" stroke="#444" stroke-width="0.8"/><text x="617.38" y="79" font-size="8.5" text-anchor="middle" fill="#444" font-weight="400" font-family="'Hiragino Sans','Hiragino Kaku Gothic ProN','Noto Sans JP','Yu Gothic',Meiryo,'IPAGothic',sans-serif">1,315</text><text x="647.85" y="1322.77" font-size="9" text-anchor="end" fill="#333" font-weight="400" font-family="'Hiragino Sans','Hiragino Kaku Gothic ProN','Noto Sans JP','Yu Gothic',Meiryo,'IPAGothic',sans-serif">敷地面積 180.00㎡</text><line x1="184.92" y1="547.17" x2="184.92" y2="1219.17" stroke="#888" stroke-width="0.6" stroke-dasharray="12 3 2 3"/><line x1="296.92" y1="547.17" x2="296.92" y2="1219.17" stroke="#888" stroke-width="0.6" stroke-dasharray="12 3 2 3"/><line x1="464.92" y1="547.17" x2="464.92" y2="1219.17" stroke="#888" stroke-width="0.6" stroke-dasharray="12 3 2 3"/><line x1="576.92" y1="547.17" x2="576.92" y2="1219.17" stroke="#888" stroke-width="0.6" stroke-dasharray="12 3 2 3"/><line x1="158.92" y1="1189.17" x2="606.92" y2="1189.17" stroke="#888" stroke-width="0.6" stroke-dasharray="12 3 2 3"/><line x1="158.92" y1="1077.17" x2="606.92" y2="1077.17" stroke="#888" stroke-width="0.6" stroke-dasharray="12 3 2 3"/><line x1="158.92" y1="853.17" x2="606.92" y2="853.17" stroke="#888" stroke-width="0.6" stroke-dasharray="12 3 2 3"/><line x1="158.92" y1="685.17" x2="606.92" y2="685.17" stroke="#888" stroke-width="0.6" stroke-dasharray="12 3 2 3"/><line x1="158.92" y1="573.17" x2="606.92" y2="573.17" stroke="#888" stroke-width="0.6" stroke-dasharray="12 3 2 3"/><line x1="181.23" y1="1189.17" x2="181.23" y2="629.17" stroke="#111" stroke-width="1.15"/><line x1="188.62" y1="1189.17" x2="188.62" y2="629.17" stroke="#111" stroke-width="1.15"/><line x1="181.23" y1="578.77" x2="181.23" y2="573.17" stroke="#111" stroke-width="1.15"/><line x1="188.62" y1="578.77" x2="188.62" y2="573.17" stroke="#111" stroke-width="1.15"/><line x1="293.23" y1="1189.17" x2="293.23" y2="1009.97" stroke="#111" stroke-width="1.15"/><line x1="300.62" y1="1189.17" x2="300.62" y2="1009.97" stroke="#111" stroke-width="1.15"/><line x1="293.23" y1="953.97" x2="293.23" y2="836.37" stroke="#111" stroke-width="1.15"/><line x1="300.62" y1="953.97" x2="300.62" y2="836.37" stroke="#111" stroke-width="1.15"/><line x1="293.23" y1="797.17" x2="293.23" y2="713.17" stroke="#111" stroke-width="1.15"/><line x1="300.62" y1="797.17" x2="300.62" y2="713.17" stroke="#111" stroke-width="1.15"/><line x1="293.23" y1="657.17" x2="293.23" y2="573.17" stroke="#111" stroke-width="1.15"/><line x1="300.62" y1="657.17" x2="300.62" y2="573.17" stroke="#111" stroke-width="1.15"/><line x1="184.92" y1="1185.48" x2="240.92" y2="1185.48" stroke="#111" stroke-width="1.15"/><line x1="184.92" y1="1192.86" x2="240.92" y2="1192.86" stroke="#111" stroke-width="1.15"/><line x1="291.32" y1="1185.48" x2="352.92" y2="1185.48" stroke="#111" stroke-width="1.15"/><line x1="291.32" y1="1192.86" x2="352.92" y2="1192.86" stroke="#111" stroke-width="1.15"/><line x1="459.32" y1="1185.48" x2="576.92" y2="1185.48" stroke="#111" stroke-width="1.15"/><line x1="459.32" y1="1192.86" x2="576.92" y2="1192.86" stroke="#111" stroke-width="1.15"/><line x1="184.92" y1="1073.48" x2="207.32" y2="1073.48" stroke="#111" stroke-width="1.15"/><line x1="184.92" y1="1080.86" x2="207.32" y2="1080.86" stroke="#111" stroke-width="1.15"/><line x1="274.52" y1="1073.48" x2="296.92" y2="1073.48" stroke="#111" stroke-width="1.15"/><line x1="274.52" y1="1080.86" x2="296.92" y2="1080.86" stroke="#111" stroke-width="1.15"/><line x1="184.92" y1="849.48" x2="296.92" y2="849.48" stroke="#111" stroke-width="1.15"/><line x1="184.92" y1="856.86" x2="296.92" y2="856.86" stroke="#111" stroke-width="1.15"/><line x1="184.92" y1="737.48" x2="296.92" y2="737.48" stroke="#111" stroke-width="1.15"/><line x1="184.92" y1="744.86" x2="296.92" y2="744.86" stroke="#111" stroke-width="1.15"/><line x1="184.92" y1="569.48" x2="352.92" y2="569.48" stroke="#111" stroke-width="1.15"/><line x1="184.92" y1="576.86" x2="352.92" y2="576.86" stroke="#111" stroke-width="1.15"/><line x1="459.32" y1="569.48" x2="520.92" y2="569.48" stroke="#111" stroke-width="1.15"/><line x1="459.32" y1="576.86" x2="520.92" y2="576.86" stroke="#111" stroke-width="1.15"/><line x1="571.32" y1="569.48" x2="576.92" y2="569.48" stroke="#111" stroke-width="1.15"/><line x1="571.32" y1="576.86" x2="576.92" y2="576.86" stroke="#111" stroke-width="1.15"/><line x1="573.23" y1="1189.17" x2="573.23" y2="1071.57" stroke="#111" stroke-width="1.15"/><line x1="580.62" y1="1189.17" x2="580.62" y2="1071.57" stroke="#111" stroke-width="1.15"/><line x1="573.23" y1="993.17" x2="573.23" y2="987.57" stroke="#111" stroke-width="1.15"/><line x1="580.62" y1="993.17" x2="580.62" y2="987.57" stroke="#111" stroke-width="1.15"/><line x1="573.23" y1="909.17" x2="573.23" y2="797.17" stroke="#111" stroke-width="1.15"/><line x1="580.62" y1="909.17" x2="580.62" y2="797.17" stroke="#111" stroke-width="1.15"/><line x1="573.23" y1="690.77" x2="573.23" y2="573.17" stroke="#111" stroke-width="1.15"/><line x1="580.62" y1="690.77" x2="580.62" y2="573.17" stroke="#111" stroke-width="1.15"/><line x1="296.92" y1="793.48" x2="352.92" y2="793.48" stroke="#111" stroke-width="1.15"/><line x1="296.92" y1="800.86" x2="352.92" y2="800.86" stroke="#111" stroke-width="1.15"/><line x1="442.52" y1="793.48" x2="576.92" y2="793.48" stroke="#111" stroke-width="1.15"/><line x1="442.52" y1="800.86" x2="576.92" y2="800.86" stroke="#111" stroke-width="1.15"/><line x1="461.23" y1="797.17" x2="461.23" y2="713.17" stroke="#111" stroke-width="1.15"/><line x1="468.62" y1="797.17" x2="468.62" y2="713.17" stroke="#111" stroke-width="1.15"/><line x1="461.23" y1="645.97" x2="461.23" y2="573.17" stroke="#111" stroke-width="1.15"/><line x1="468.62" y1="645.97" x2="468.62" y2="573.17" stroke="#111" stroke-width="1.15"/><line x1="352.92" y1="1187.32" x2="406.12" y2="1187.32" stroke="#111" stroke-width="1.6"/><line x1="406.12" y1="1191.02" x2="459.32" y2="1191.02" stroke="#111" stroke-width="1.6"/><line x1="352.92" y1="1185.48" x2="352.92" y2="1192.86" stroke="#111" stroke-width="1.0"/><line x1="459.32" y1="1185.48" x2="459.32" y2="1192.86" stroke="#111" stroke-width="1.0"/><line x1="240.92" y1="1187.32" x2="266.12" y2="1187.32" stroke="#111" stroke-width="1.6"/><line x1="266.12" y1="1191.02" x2="291.32" y2="1191.02" stroke="#111" stroke-width="1.6"/><line x1="240.92" y1="1185.48" x2="240.92" y2="1192.86" stroke="#111" stroke-width="1.0"/><line x1="291.32" y1="1185.48" x2="291.32" y2="1192.86" stroke="#111" stroke-width="1.0"/><line x1="352.92" y1="571.32" x2="406.12" y2="571.32" stroke="#111" stroke-width="1.6"/><line x1="406.12" y1="575.02" x2="459.32" y2="575.02" stroke="#111" stroke-width="1.6"/><line x1="352.92" y1="569.48" x2="352.92" y2="576.86" stroke="#111" stroke-width="1.0"/><line x1="459.32" y1="569.48" x2="459.32" y2="576.86" stroke="#111" stroke-width="1.0"/><line x1="520.92" y1="569.48" x2="571.32" y2="569.48" stroke="#111" stroke-width="0.9"/><line x1="520.92" y1="576.86" x2="571.32" y2="576.86" stroke="#111" stroke-width="0.9"/><line x1="520.92" y1="573.17" x2="571.32" y2="573.17" stroke="#111" stroke-width="0.7"/><line x1="520.92" y1="569.48" x2="520.92" y2="576.86" stroke="#111" stroke-width="1.0"/><line x1="571.32" y1="569.48" x2="571.32" y2="576.86" stroke="#111" stroke-width="1.0"/><line x1="573.23" y1="1071.57" x2="573.23" y2="993.17" stroke="#111" stroke-width="0.9"/><line x1="580.62" y1="1071.57" x2="580.62" y2="993.17" stroke="#111" stroke-width="0.9"/><line x1="576.92" y1="1071.57" x2="576.92" y2="993.17" stroke="#111" stroke-width="0.7"/><line x1="573.23" y1="1071.57" x2="580.62" y2="1071.57" stroke="#111" stroke-width="1.0"/><line x1="573.23" y1="993.17" x2="580.62" y2="993.17" stroke="#111" stroke-width="1.0"/><line x1="573.23" y1="987.57" x2="573.23" y2="909.17" stroke="#111" stroke-width="0.9"/><line x1="580.62" y1="987.57" x2="580.62" y2="909.17" stroke="#111" stroke-width="0.9"/><line x1="576.92" y1="987.57" x2="576.92" y2="909.17" stroke="#111" stroke-width="0.7"/><line x1="573.23" y1="987.57" x2="580.62" y2="987.57" stroke="#111" stroke-width="1.0"/><line x1="573.23" y1="909.17" x2="580.62" y2="909.17" stroke="#111" stroke-width="1.0"/><line x1="573.23" y1="797.17" x2="573.23" y2="690.77" stroke="#111" stroke-width="0.9"/><line x1="580.62" y1="797.17" x2="580.62" y2="690.77" stroke="#111" stroke-width="0.9"/><line x1="576.92" y1="797.17" x2="576.92" y2="690.77" stroke="#111" stroke-width="0.7"/><line x1="573.23" y1="797.17" x2="580.62" y2="797.17" stroke="#111" stroke-width="1.0"/><line x1="573.23" y1="690.77" x2="580.62" y2="690.77" stroke="#111" stroke-width="1.0"/><line x1="181.23" y1="629.17" x2="181.23" y2="578.77" stroke="#111" stroke-width="0.9"/><line x1="188.62" y1="629.17" x2="188.62" y2="578.77" stroke="#111" stroke-width="0.9"/><line x1="184.92" y1="629.17" x2="184.92" y2="578.77" stroke="#111" stroke-width="0.7"/><line x1="181.23" y1="629.17" x2="188.62" y2="629.17" stroke="#111" stroke-width="1.0"/><line x1="181.23" y1="578.77" x2="188.62" y2="578.77" stroke="#111" stroke-width="1.0"/><line x1="207.32" y1="1073.48" x2="207.32" y2="1080.86" stroke="#111" stroke-width="1.0"/><line x1="274.52" y1="1073.48" x2="274.52" y2="1080.86" stroke="#111" stroke-width="1.0"/><line x1="207.32" y1="1077.17" x2="207.32" y2="1144.37" stroke="#555" stroke-width="1.2"/><path d="M 207.3 1144.4 A 67.2 67.2 0 0 1 274.5 1077.2" stroke="#777" stroke-width="0.9" fill="none"/><line x1="293.23" y1="1009.97" x2="300.62" y2="1009.97" stroke="#111" stroke-width="1.0"/><line x1="293.23" y1="953.97" x2="300.62" y2="953.97" stroke="#111" stroke-width="1.0"/><line x1="296.92" y1="1009.97" x2="352.92" y2="1009.97" stroke="#555" stroke-width="1.2"/><path d="M 352.9 1010.0 A 56.0 56.0 0 0 0 296.9 954.0" stroke="#777" stroke-width="0.9" fill="none"/><line x1="293.23" y1="836.37" x2="300.62" y2="836.37" stroke="#111" stroke-width="1.0"/><line x1="293.23" y1="797.17" x2="300.62" y2="797.17" stroke="#111" stroke-width="1.0"/><line x1="296.92" y1="836.37" x2="336.12" y2="836.37" stroke="#555" stroke-width="1.2"/><path d="M 336.1 836.4 A 39.2 39.2 0 0 0 296.9 797.2" stroke="#777" stroke-width="0.9" fill="none"/><line x1="293.23" y1="713.17" x2="300.62" y2="713.17" stroke="#111" stroke-width="1.0"/><line x1="293.23" y1="657.17" x2="300.62" y2="657.17" stroke="#111" stroke-width="1.0"/><line x1="296.92" y1="713.17" x2="352.92" y2="713.17" stroke="#555" stroke-width="1.2"/><path d="M 352.9 713.2 A 56.0 56.0 0 0 0 296.9 657.2" stroke="#777" stroke-width="0.9" fill="none"/><line x1="352.92" y1="795.32" x2="397.72" y2="795.32" stroke="#111" stroke-width="1.6"/><line x1="397.72" y1="799.02" x2="442.52" y2="799.02" stroke="#111" stroke-width="1.6"/><line x1="352.92" y1="793.48" x2="352.92" y2="800.86" stroke="#111" stroke-width="1.0"/><line x1="442.52" y1="793.48" x2="442.52" y2="800.86" stroke="#111" stroke-width="1.0"/><line x1="461.23" y1="713.17" x2="468.62" y2="713.17" stroke="#111" stroke-width="1.0"/><line x1="461.23" y1="645.97" x2="468.62" y2="645.97" stroke="#111" stroke-width="1.0"/><line x1="464.92" y1="713.17" x2="397.72" y2="713.17" stroke="#555" stroke-width="1.2"/><path d="M 397.7 713.2 A 67.2 67.2 0 0 1 464.9 646.0" stroke="#777" stroke-width="0.9" fill="none"/><rect x="190.52" y="1082.77" width="61.6" height="22.4" fill="#fff" stroke="#333" stroke-width="0.85"/><text x="221.32" y="1096.97" font-size="7" text-anchor="middle" fill="#333" font-weight="400" font-family="'Hiragino Sans','Hiragino Kaku Gothic ProN','Noto Sans JP','Yu Gothic',Meiryo,'IPAGothic',sans-serif">下足入れ</text><rect x="219.64" y="799.97" width="28" height="10.08" fill="#fff" stroke="#333" stroke-width="0.85"/><ellipse cx="233.6" cy="821.2" rx="9.5" ry="12.3" fill="#fff" stroke="#333" stroke-width="0.85"/><rect x="253.24" y="798.85" width="12.88" height="12.32" fill="#fff" stroke="#333" stroke-width="0.85"/><ellipse cx="259.7" cy="805.0" rx="3.9" ry="3.9" fill="#fff" stroke="#333" stroke-width="0.85"/><rect x="193.32" y="749.57" width="30.8" height="28" fill="#fff" stroke="#333" stroke-width="0.85"/><text x="208.72" y="766.57" font-size="6.5" text-anchor="middle" fill="#333" font-weight="400" font-family="'Hiragino Sans','Hiragino Kaku Gothic ProN','Noto Sans JP','Yu Gothic',Meiryo,'IPAGothic',sans-serif">手洗</text><rect x="431.32" y="1129.81" width="117.6" height="17.92" fill="#fff" stroke="#333" stroke-width="0.85"/><rect x="431.32" y="984.21" width="117.6" height="17.92" fill="#fff" stroke="#333" stroke-width="0.85"/><rect x="431.32" y="838.61" width="117.6" height="17.92" fill="#fff" stroke="#333" stroke-width="0.85"/><rect x="324.92" y="905.81" width="61.6" height="17.92" fill="#fff" stroke="#333" stroke-width="0.85"/><rect x="324.92" y="827.41" width="61.6" height="17.92" fill="#fff" stroke="#333" stroke-width="0.85"/><rect x="316.52" y="1135.97" width="84" height="36.4" fill="#fff" stroke="#333" stroke-width="0.85"/><text x="358.52" y="1157.17" font-size="8" text-anchor="middle" fill="#333" font-weight="400" font-family="'Hiragino Sans','Hiragino Kaku Gothic ProN','Noto Sans JP','Yu Gothic',Meiryo,'IPAGothic',sans-serif">レジ</text><rect x="313.72" y="746.77" width="84" height="33.6" fill="#fff" stroke="#333" stroke-width="0.85"/><ellipse cx="338.9" cy="763.6" rx="9.0" ry="9.0" fill="#fff" stroke="#333" stroke-width="0.85"/><ellipse cx="372.5" cy="770.3" rx="3.4" ry="3.4" fill="#fff" stroke="#333" stroke-width="0.85"/><ellipse cx="372.5" cy="756.8" rx="3.4" ry="3.4" fill="#fff" stroke="#333" stroke-width="0.85"/><ellipse cx="384.8" cy="770.3" rx="3.4" ry="3.4" fill="#fff" stroke="#333" stroke-width="0.85"/><ellipse cx="384.8" cy="756.8" rx="3.4" ry="3.4" fill="#fff" stroke="#333" stroke-width="0.85"/><rect x="397.72" y="746.77" width="33.6" height="33.6" fill="#fff" stroke="#333" stroke-width="0.85"/><text x="414.52" y="766.57" font-size="7.5" text-anchor="middle" fill="#333" font-weight="400" font-family="'Hiragino Sans','Hiragino Kaku Gothic ProN','Noto Sans JP','Yu Gothic',Meiryo,'IPAGothic',sans-serif">冷</text><rect x="414.52" y="584.37" width="39.2" height="56" fill="#fff" stroke="#333" stroke-width="0.85"/><text x="434.12" y="615.37" font-size="7.5" text-anchor="middle" fill="#333" font-weight="400" font-family="'Hiragino Sans','Hiragino Kaku Gothic ProN','Noto Sans JP','Yu Gothic',Meiryo,'IPAGothic',sans-serif">作業台</text><rect x="305.32" y="693.57" width="39.2" height="39.2" fill="#fff" stroke="#333" stroke-width="0.85"/><text x="324.92" y="716.17" font-size="6" text-anchor="middle" fill="#333" font-weight="400" font-family="'Hiragino Sans','Hiragino Kaku Gothic ProN','Noto Sans JP','Yu Gothic',Meiryo,'IPAGothic',sans-serif">ｵｰﾌﾞﾝ</text><rect x="506.92" y="721.57" width="67.2" height="28" fill="#fff" stroke="#333" stroke-width="0.85"/><rect x="509.16" y="751.25" width="17.92" height="13.44" fill="#fff" stroke="#333" stroke-width="0.85"/><rect x="509.16" y="706.45" width="17.92" height="13.44" fill="#fff" stroke="#333" stroke-width="0.85"/><rect x="553.96" y="751.25" width="17.92" height="13.44" fill="#fff" stroke="#333" stroke-width="0.85"/><rect x="553.96" y="706.45" width="17.92" height="13.44" fill="#fff" stroke="#333" stroke-width="0.85"/><rect x="520.92" y="584.37" width="19.6" height="44.8" fill="#fff" stroke="#333" stroke-width="0.85"/><rect x="546.12" y="584.37" width="19.6" height="44.8" fill="#fff" stroke="#333" stroke-width="0.85"/><text x="543.32" y="640.57" font-size="6.5" text-anchor="middle" fill="#333" font-weight="400" font-family="'Hiragino Sans','Hiragino Kaku Gothic ProN','Noto Sans JP','Yu Gothic',Meiryo,'IPAGothic',sans-serif">ロッカー</text><line x1="188.62" y1="909.17" x2="293.23" y2="909.17" stroke="#111" stroke-width="1.2"/><text x="240.92" y="883.97" font-size="8" text-anchor="middle" fill="#333" font-weight="400" font-family="'Hiragino Sans','Hiragino Kaku Gothic ProN','Noto Sans JP','Yu Gothic',Meiryo,'IPAGothic',sans-serif">踊場</text><line x1="240.92" y1="1077.17" x2="240.92" y2="909.17" stroke="#111" stroke-width="1.5"/><text x="252.92" y="921.17" font-size="7.5" text-anchor="middle" fill="#333" font-weight="400" font-family="'Hiragino Sans','Hiragino Kaku Gothic ProN','Noto Sans JP','Yu Gothic',Meiryo,'IPAGothic',sans-serif">手摺</text><line x1="242.42" y1="923.17" x2="293.23" y2="923.17" stroke="#111" stroke-width="0.8"/><line x1="242.42" y1="937.17" x2="293.23" y2="937.17" stroke="#111" stroke-width="0.8"/><line x1="242.42" y1="951.17" x2="293.23" y2="951.17" stroke="#111" stroke-width="0.8"/><line x1="242.42" y1="965.17" x2="293.23" y2="965.17" stroke="#111" stroke-width="0.8"/><line x1="242.42" y1="979.17" x2="293.23" y2="979.17" stroke="#111" stroke-width="0.8"/><line x1="242.42" y1="993.17" x2="293.23" y2="993.17" stroke="#111" stroke-width="0.8"/><line x1="188.62" y1="923.17" x2="239.42" y2="923.17" stroke="#111" stroke-width="0.8"/><line x1="188.62" y1="937.17" x2="239.42" y2="937.17" stroke="#111" stroke-width="0.8"/><line x1="188.62" y1="951.17" x2="239.42" y2="951.17" stroke="#111" stroke-width="0.8"/><line x1="188.62" y1="965.17" x2="239.42" y2="965.17" stroke="#111" stroke-width="0.8"/><line x1="188.62" y1="979.17" x2="239.42" y2="979.17" stroke="#111" stroke-width="0.8"/><line x1="188.62" y1="993.17" x2="239.42" y2="993.17" stroke="#111" stroke-width="0.8"/><line x1="188.62" y1="1007.17" x2="239.42" y2="1007.17" stroke="#111" stroke-width="0.8"/><line x1="268.92" y1="1005.49" x2="268.92" y2="923.89" stroke="#111" stroke-width="1.2"/><polygon points="268.92,915.89 264.92,923.89 272.92,923.89" fill="#111"/><text x="268.92" y="1017.49" font-size="9" text-anchor="middle" fill="#111" font-weight="700" font-family="'Hiragino Sans','Hiragino Kaku Gothic ProN','Noto Sans JP','Yu Gothic',Meiryo,'IPAGothic',sans-serif">UP</text><line x1="243.72" y1="985.17" x2="294.12" y2="973.17" stroke="#111" stroke-width="0.9"/><line x1="243.72" y1="990.17" x2="294.12" y2="978.17" stroke="#111" stroke-width="0.9"/><rect x="187.92" y="856.17" width="106" height="218" fill="none" stroke="#111" stroke-width="1.0" stroke-dasharray="7 3 2 3"/><text x="240.92" y="866.17" font-size="7.5" text-anchor="middle" fill="#333" font-weight="400" font-family="'Hiragino Sans','Hiragino Kaku Gothic ProN','Noto Sans JP','Yu Gothic',Meiryo,'IPAGothic',sans-serif">竪穴区画</text><polygon points="177.92,1133.17 167.92,1127.67 167.92,1138.67" fill="#fff" stroke="#111" stroke-width="1.1"/><polygon points="177.92,965.17 167.92,959.67 167.92,970.67" fill="#fff" stroke="#111" stroke-width="1.1"/><polygon points="177.92,769.17 167.92,763.67 167.92,774.67" fill="#fff" stroke="#111" stroke-width="1.1"/><polygon points="177.92,657.17 167.92,651.67 167.92,662.67" fill="#fff" stroke="#111" stroke-width="1.1"/><polygon points="303.92,1133.17 313.92,1127.67 313.92,1138.67" fill="#fff" stroke="#111" stroke-width="1.1"/><polygon points="303.92,903.57 313.92,898.07 313.92,909.07" fill="#fff" stroke="#111" stroke-width="1.1"/><polygon points="303.92,755.17 313.92,749.67 313.92,760.67" fill="#fff" stroke="#111" stroke-width="1.1"/><polygon points="303.92,615.17 313.92,609.67 313.92,620.67" fill="#fff" stroke="#111" stroke-width="1.1"/><polygon points="471.92,609.57 481.92,604.07 481.92,615.07" fill="#fff" stroke="#111" stroke-width="1.1"/><polygon points="583.92,1133.17 593.92,1127.67 593.92,1138.67" fill="#fff" stroke="#111" stroke-width="1.1"/><polygon points="583.92,881.17 593.92,875.67 593.92,886.67" fill="#fff" stroke="#111" stroke-width="1.1"/><polygon points="583.92,825.17 593.92,819.67 593.92,830.67" fill="#fff" stroke="#111" stroke-width="1.1"/><polygon points="583.92,629.17 593.92,623.67 593.92,634.67" fill="#fff" stroke="#111" stroke-width="1.1"/><polygon points="212.92,1196.17 207.42,1206.17 218.42,1206.17" fill="#fff" stroke="#111" stroke-width="1.1"/><polygon points="324.92,1196.17 319.42,1206.17 330.42,1206.17" fill="#fff" stroke="#111" stroke-width="1.1"/><polygon points="520.92,1196.17 515.42,1206.17 526.42,1206.17" fill="#fff" stroke="#111" stroke-width="1.1"/><polygon points="240.92,846.17 235.42,836.17 246.42,836.17" fill="#fff" stroke="#111" stroke-width="1.1"/><polygon points="240.92,566.17 235.42,556.17 246.42,556.17" fill="#fff" stroke="#111" stroke-width="1.1"/><polygon points="324.92,566.17 319.42,556.17 330.42,556.17" fill="#fff" stroke="#111" stroke-width="1.1"/><polygon points="492.92,566.17 487.42,556.17 498.42,556.17" fill="#fff" stroke="#111" stroke-width="1.1"/><rect x="293.23" y="1185.48" width="7.38" height="7.38" fill="#111"/><rect x="461.23" y="1185.48" width="7.38" height="7.38" fill="#111"/><rect x="181.23" y="1073.48" width="7.38" height="7.38" fill="#111"/><rect x="573.23" y="1073.48" width="7.38" height="7.38" fill="#111"/><rect x="181.23" y="849.48" width="7.38" height="7.38" fill="#111"/><rect x="573.23" y="849.48" width="7.38" height="7.38" fill="#111"/><rect x="181.23" y="681.48" width="7.38" height="7.38" fill="#111"/><rect x="573.23" y="681.48" width="7.38" height="7.38" fill="#111"/><rect x="293.23" y="569.48" width="7.38" height="7.38" fill="#111"/><rect x="461.23" y="569.48" width="7.38" height="7.38" fill="#111"/><rect x="293.23" y="1073.48" width="7.38" height="7.38" fill="#111"/><rect x="461.23" y="1073.48" width="7.38" height="7.38" fill="#111"/><rect x="293.23" y="849.48" width="7.38" height="7.38" fill="#111"/><rect x="461.23" y="849.48" width="7.38" height="7.38" fill="#111"/><rect x="293.23" y="681.48" width="7.38" height="7.38" fill="#111"/><rect x="461.23" y="681.48" width="7.38" height="7.38" fill="#111"/><rect x="181.23" y="1185.48" width="7.38" height="7.38" fill="#111"/><circle cx="184.92" cy="1189.17" r="8" fill="none" stroke="#111" stroke-width="1.2"/><rect x="573.23" y="1185.48" width="7.38" height="7.38" fill="#111"/><circle cx="576.92" cy="1189.17" r="8" fill="none" stroke="#111" stroke-width="1.2"/><rect x="181.23" y="569.48" width="7.38" height="7.38" fill="#111"/><circle cx="184.92" cy="573.17" r="8" fill="none" stroke="#111" stroke-width="1.2"/><rect x="573.23" y="569.48" width="7.38" height="7.38" fill="#111"/><circle cx="576.92" cy="573.17" r="8" fill="none" stroke="#111" stroke-width="1.2"/><polygon points="406.12,1196.17 400.12,1208.17 412.12,1208.17" fill="#111"/><polygon points="266.12,1196.17 260.12,1208.17 272.12,1208.17" fill="#111"/><polygon points="406.12,566.17 400.12,554.17 412.12,554.17" fill="#111"/><text x="240.92" y="1120.21" font-size="10" text-anchor="middle" fill="#111" font-weight="700" font-family="'Hiragino Sans','Hiragino Kaku Gothic ProN','Noto Sans JP','Yu Gothic',Meiryo,'IPAGothic',sans-serif">住宅玄関</text><text x="240.92" y="1133.21" font-size="9" text-anchor="middle" fill="#111" font-weight="400" font-family="'Hiragino Sans','Hiragino Kaku Gothic ProN','Noto Sans JP','Yu Gothic',Meiryo,'IPAGothic',sans-serif">3.31㎡</text><text x="240.92" y="1145.21" font-size="8.5" text-anchor="middle" fill="#333" font-weight="400" font-family="'Hiragino Sans','Hiragino Kaku Gothic ProN','Noto Sans JP','Yu Gothic',Meiryo,'IPAGothic',sans-serif">GL＋550</text><text x="240.92" y="1038.45" font-size="10" text-anchor="middle" fill="#111" font-weight="700" font-family="'Hiragino Sans','Hiragino Kaku Gothic ProN','Noto Sans JP','Yu Gothic',Meiryo,'IPAGothic',sans-serif">階　段</text><text x="240.92" y="1051.45" font-size="9" text-anchor="middle" fill="#111" font-weight="400" font-family="'Hiragino Sans','Hiragino Kaku Gothic ProN','Noto Sans JP','Yu Gothic',Meiryo,'IPAGothic',sans-serif">6.62㎡</text><text x="240.92" y="784.21" font-size="10" text-anchor="middle" fill="#111" font-weight="700" font-family="'Hiragino Sans','Hiragino Kaku Gothic ProN','Noto Sans JP','Yu Gothic',Meiryo,'IPAGothic',sans-serif">店舗用便所</text><text x="240.92" y="797.21" font-size="9" text-anchor="middle" fill="#111" font-weight="400" font-family="'Hiragino Sans','Hiragino Kaku Gothic ProN','Noto Sans JP','Yu Gothic',Meiryo,'IPAGothic',sans-serif">3.31㎡</text><text x="240.92" y="619.57" font-size="10" text-anchor="middle" fill="#111" font-weight="700" font-family="'Hiragino Sans','Hiragino Kaku Gothic ProN','Noto Sans JP','Yu Gothic',Meiryo,'IPAGothic',sans-serif">倉　庫</text><text x="240.92" y="632.57" font-size="9" text-anchor="middle" fill="#111" font-weight="400" font-family="'Hiragino Sans','Hiragino Kaku Gothic ProN','Noto Sans JP','Yu Gothic',Meiryo,'IPAGothic',sans-serif">4.96㎡</text><text x="436.92" y="910.77" font-size="11.5" text-anchor="middle" fill="#111" font-weight="700" font-family="'Hiragino Sans','Hiragino Kaku Gothic ProN','Noto Sans JP','Yu Gothic',Meiryo,'IPAGothic',sans-serif">店舗売場</text><text x="436.92" y="923.77" font-size="9" text-anchor="middle" fill="#111" font-weight="400" font-family="'Hiragino Sans','Hiragino Kaku Gothic ProN','Noto Sans JP','Yu Gothic',Meiryo,'IPAGothic',sans-serif">28.98㎡</text><text x="436.92" y="935.77" font-size="8.5" text-anchor="middle" fill="#333" font-weight="400" font-family="'Hiragino Sans','Hiragino Kaku Gothic ProN','Noto Sans JP','Yu Gothic',Meiryo,'IPAGothic',sans-serif">GL＋550</text><text x="380.92" y="636.37" font-size="10" text-anchor="middle" fill="#111" font-weight="700" font-family="'Hiragino Sans','Hiragino Kaku Gothic ProN','Noto Sans JP','Yu Gothic',Meiryo,'IPAGothic',sans-serif">厨房・作業場</text><text x="380.92" y="649.37" font-size="9" text-anchor="middle" fill="#111" font-weight="400" font-family="'Hiragino Sans','Hiragino Kaku Gothic ProN','Noto Sans JP','Yu Gothic',Meiryo,'IPAGothic',sans-serif">9.93㎡</text><text x="380.92" y="661.37" font-size="8.5" text-anchor="middle" fill="#333" font-weight="400" font-family="'Hiragino Sans','Hiragino Kaku Gothic ProN','Noto Sans JP','Yu Gothic',Meiryo,'IPAGothic',sans-serif">GL＋550</text><text x="520.92" y="636.37" font-size="10" text-anchor="middle" fill="#111" font-weight="700" font-family="'Hiragino Sans','Hiragino Kaku Gothic ProN','Noto Sans JP','Yu Gothic',Meiryo,'IPAGothic',sans-serif">スタッフルーム</text><text x="520.92" y="649.37" font-size="9" text-anchor="middle" fill="#111" font-weight="400" font-family="'Hiragino Sans','Hiragino Kaku Gothic ProN','Noto Sans JP','Yu Gothic',Meiryo,'IPAGothic',sans-serif">6.62㎡</text><text x="520.92" y="661.37" font-size="8.5" text-anchor="middle" fill="#333" font-weight="400" font-family="'Hiragino Sans','Hiragino Kaku Gothic ProN','Noto Sans JP','Yu Gothic',Meiryo,'IPAGothic',sans-serif">GL＋550</text><circle cx="184.92" cy="533.17" r="9" fill="#fff" stroke="#111" stroke-width="0.9"/><text x="184.92" y="537.17" font-size="10" text-anchor="middle" fill="#111" font-weight="700" font-family="'Hiragino Sans','Hiragino Kaku Gothic ProN','Noto Sans JP','Yu Gothic',Meiryo,'IPAGothic',sans-serif">A</text><circle cx="296.92" cy="533.17" r="9" fill="#fff" stroke="#111" stroke-width="0.9"/><text x="296.92" y="537.17" font-size="10" text-anchor="middle" fill="#111" font-weight="700" font-family="'Hiragino Sans','Hiragino Kaku Gothic ProN','Noto Sans JP','Yu Gothic',Meiryo,'IPAGothic',sans-serif">B</text><circle cx="464.92" cy="533.17" r="9" fill="#fff" stroke="#111" stroke-width="0.9"/><text x="464.92" y="537.17" font-size="10" text-anchor="middle" fill="#111" font-weight="700" font-family="'Hiragino Sans','Hiragino Kaku Gothic ProN','Noto Sans JP','Yu Gothic',Meiryo,'IPAGothic',sans-serif">C</text><circle cx="576.92" cy="533.17" r="9" fill="#fff" stroke="#111" stroke-width="0.9"/><text x="576.92" y="537.17" font-size="10" text-anchor="middle" fill="#111" font-weight="700" font-family="'Hiragino Sans','Hiragino Kaku Gothic ProN','Noto Sans JP','Yu Gothic',Meiryo,'IPAGothic',sans-serif">D</text><circle cx="144.92" cy="1189.17" r="9" fill="#fff" stroke="#111" stroke-width="0.9"/><text x="144.92" y="1193.17" font-size="10" text-anchor="middle" fill="#111" font-weight="700" font-family="'Hiragino Sans','Hiragino Kaku Gothic ProN','Noto Sans JP','Yu Gothic',Meiryo,'IPAGothic',sans-serif">1</text><circle cx="144.92" cy="1077.17" r="9" fill="#fff" stroke="#111" stroke-width="0.9"/><text x="144.92" y="1081.17" font-size="10" text-anchor="middle" fill="#111" font-weight="700" font-family="'Hiragino Sans','Hiragino Kaku Gothic ProN','Noto Sans JP','Yu Gothic',Meiryo,'IPAGothic',sans-serif">2</text><circle cx="144.92" cy="853.17" r="9" fill="#fff" stroke="#111" stroke-width="0.9"/><text x="144.92" y="857.17" font-size="10" text-anchor="middle" fill="#111" font-weight="700" font-family="'Hiragino Sans','Hiragino Kaku Gothic ProN','Noto Sans JP','Yu Gothic',Meiryo,'IPAGothic',sans-serif">3</text><circle cx="144.92" cy="685.17" r="9" fill="#fff" stroke="#111" stroke-width="0.9"/><text x="144.92" y="689.17" font-size="10" text-anchor="middle" fill="#111" font-weight="700" font-family="'Hiragino Sans','Hiragino Kaku Gothic ProN','Noto Sans JP','Yu Gothic',Meiryo,'IPAGothic',sans-serif">4</text><circle cx="144.92" cy="573.17" r="9" fill="#fff" stroke="#111" stroke-width="0.9"/><text x="144.92" y="577.17" font-size="10" text-anchor="middle" fill="#111" font-weight="700" font-family="'Hiragino Sans','Hiragino Kaku Gothic ProN','Noto Sans JP','Yu Gothic',Meiryo,'IPAGothic',sans-serif">5</text><line x1="184.92" y1="1223.17" x2="296.92" y2="1223.17" stroke="#444" stroke-width="0.8"/><line x1="184.92" y1="1219.17" x2="184.92" y2="1227.17" stroke="#444" stroke-width="0.8"/><line x1="296.92" y1="1219.17" x2="296.92" y2="1227.17" stroke="#444" stroke-width="0.8"/><text x="240.92" y="1218.17" font-size="9" text-anchor="middle" fill="#444" font-weight="400" font-family="'Hiragino Sans','Hiragino Kaku Gothic ProN','Noto Sans JP','Yu Gothic',Meiryo,'IPAGothic',sans-serif">1,820</text><line x1="296.92" y1="1223.17" x2="464.92" y2="1223.17" stroke="#444" stroke-width="0.8"/><line x1="296.92" y1="1219.17" x2="296.92" y2="1227.17" stroke="#444" stroke-width="0.8"/><line x1="464.92" y1="1219.17" x2="464.92" y2="1227.17" stroke="#444" stroke-width="0.8"/><text x="380.92" y="1218.17" font-size="9" text-anchor="middle" fill="#444" font-weight="400" font-family="'Hiragino Sans','Hiragino Kaku Gothic ProN','Noto Sans JP','Yu Gothic',Meiryo,'IPAGothic',sans-serif">2,730</text><line x1="464.92" y1="1223.17" x2="576.92" y2="1223.17" stroke="#444" stroke-width="0.8"/><line x1="464.92" y1="1219.17" x2="464.92" y2="1227.17" stroke="#444" stroke-width="0.8"/><line x1="576.92" y1="1219.17" x2="576.92" y2="1227.17" stroke="#444" stroke-width="0.8"/><text x="520.92" y="1218.17" font-size="9" text-anchor="middle" fill="#444" font-weight="400" font-family="'Hiragino Sans','Hiragino Kaku Gothic ProN','Noto Sans JP','Yu Gothic',Meiryo,'IPAGothic',sans-serif">1,820</text><line x1="184.92" y1="1251.17" x2="576.92" y2="1251.17" stroke="#444" stroke-width="0.8"/><line x1="184.92" y1="1247.17" x2="184.92" y2="1255.17" stroke="#444" stroke-width="0.8"/><line x1="576.92" y1="1247.17" x2="576.92" y2="1255.17" stroke="#444" stroke-width="0.8"/><text x="380.92" y="1246.17" font-size="11" text-anchor="middle" fill="#444" font-weight="400" font-family="'Hiragino Sans','Hiragino Kaku Gothic ProN','Noto Sans JP','Yu Gothic',Meiryo,'IPAGothic',sans-serif">6,370</text><line x1="606.92" y1="1189.17" x2="606.92" y2="1077.17" stroke="#444" stroke-width="0.8"/><line x1="602.92" y1="1189.17" x2="610.92" y2="1189.17" stroke="#444" stroke-width="0.8"/><line x1="602.92" y1="1077.17" x2="610.92" y2="1077.17" stroke="#444" stroke-width="0.8"/><text x="612.92" y="1137.17" font-size="9" text-anchor="start" fill="#444" font-weight="400" font-family="'Hiragino Sans','Hiragino Kaku Gothic ProN','Noto Sans JP','Yu Gothic',Meiryo,'IPAGothic',sans-serif">1,820</text><line x1="606.92" y1="1077.17" x2="606.92" y2="853.17" stroke="#444" stroke-width="0.8"/><line x1="602.92" y1="1077.17" x2="610.92" y2="1077.17" stroke="#444" stroke-width="0.8"/><line x1="602.92" y1="853.17" x2="610.92" y2="853.17" stroke="#444" stroke-width="0.8"/><text x="612.92" y="969.17" font-size="9" text-anchor="start" fill="#444" font-weight="400" font-family="'Hiragino Sans','Hiragino Kaku Gothic ProN','Noto Sans JP','Yu Gothic',Meiryo,'IPAGothic',sans-serif">3,640</text><line x1="606.92" y1="853.17" x2="606.92" y2="685.17" stroke="#444" stroke-width="0.8"/><line x1="602.92" y1="853.17" x2="610.92" y2="853.17" stroke="#444" stroke-width="0.8"/><line x1="602.92" y1="685.17" x2="610.92" y2="685.17" stroke="#444" stroke-width="0.8"/><text x="612.92" y="773.17" font-size="9" text-anchor="start" fill="#444" font-weight="400" font-family="'Hiragino Sans','Hiragino Kaku Gothic ProN','Noto Sans JP','Yu Gothic',Meiryo,'IPAGothic',sans-serif">2,730</text><line x1="606.92" y1="685.17" x2="606.92" y2="573.17" stroke="#444" stroke-width="0.8"/><line x1="602.92" y1="685.17" x2="610.92" y2="685.17" stroke="#444" stroke-width="0.8"/><line x1="602.92" y1="573.17" x2="610.92" y2="573.17" stroke="#444" stroke-width="0.8"/><text x="612.92" y="633.17" font-size="9" text-anchor="start" fill="#444" font-weight="400" font-family="'Hiragino Sans','Hiragino Kaku Gothic ProN','Noto Sans JP','Yu Gothic',Meiryo,'IPAGothic',sans-serif">1,820</text><line x1="672.92" y1="1189.17" x2="672.92" y2="573.17" stroke="#444" stroke-width="0.8"/><line x1="668.92" y1="1189.17" x2="676.92" y2="1189.17" stroke="#444" stroke-width="0.8"/><line x1="668.92" y1="573.17" x2="676.92" y2="573.17" stroke="#444" stroke-width="0.8"/><text x="678.92" y="885.17" font-size="11" text-anchor="start" fill="#444" font-weight="400" font-family="'Hiragino Sans','Hiragino Kaku Gothic ProN','Noto Sans JP','Yu Gothic',Meiryo,'IPAGothic',sans-serif">10,010</text><line x1="520.92" y1="1159.17" x2="520.92" y2="1229.17" stroke="#111" stroke-width="2.6"/><line x1="520.92" y1="1163.17" x2="542.92" y2="1163.17" stroke="#111" stroke-width="1.4"/><polygon points="542.92,1163.17 533.92,1159.17 533.92,1167.17" fill="#111"/><line x1="520.92" y1="1223.17" x2="542.92" y2="1223.17" stroke="#111" stroke-width="1.4"/><polygon points="542.92,1223.17 533.92,1219.17 533.92,1227.17" fill="#111"/><text x="512.92" y="1155.17" font-size="10" text-anchor="end" fill="#111" font-weight="700" font-family="'Hiragino Sans','Hiragino Kaku Gothic ProN','Noto Sans JP','Yu Gothic',Meiryo,'IPAGothic',sans-serif">Ｙ</text><text x="512.92" y="1237.17" font-size="10" text-anchor="end" fill="#111" font-weight="700" font-family="'Hiragino Sans','Hiragino Kaku Gothic ProN','Noto Sans JP','Yu Gothic',Meiryo,'IPAGothic',sans-serif">Ｙ</text><text x="546.92" y="1241.17" font-size="8" text-anchor="start" fill="#333" font-weight="400" font-family="'Hiragino Sans','Hiragino Kaku Gothic ProN','Noto Sans JP','Yu Gothic',Meiryo,'IPAGothic',sans-serif">部分詳細図の切断位置</text><circle cx="779.85" cy="34" r="12" fill="#fff" stroke="#444" stroke-width="0.9"/><polygon points="779.85,25 775.85,41 779.85,37 783.85,41" fill="#111"/><text x="779.85" y="58" font-size="9.5" text-anchor="middle" fill="#111" font-weight="700" font-family="'Hiragino Sans','Hiragino Kaku Gothic ProN','Noto Sans JP','Yu Gothic',Meiryo,'IPAGothic',sans-serif">N</text></svg>