<svg xmlns="http://www.w3.org/2000/svg" viewBox="0 0 668 814" width="668" height="814" font-family="'Hiragino Sans','Hiragino Kaku Gothic ProN','Noto Sans JP','Yu Gothic',Meiryo,'IPAGothic',sans-serif"><rect width="668" height="814" fill="#ffffff"/><text x="334" y="30" font-size="15" text-anchor="middle" fill="#111" font-weight="700" font-family="'Hiragino Sans','Hiragino Kaku Gothic ProN','Noto Sans JP','Yu Gothic',Meiryo,'IPAGothic',sans-serif">３階平面図　縮尺1／100</text><line x1="20" y1="0" x2="20" y2="814" stroke="#dedede" stroke-width="0.55"/><line x1="48" y1="0" x2="48" y2="814" stroke="#c9c9c9" stroke-width="0.7"/><line x1="76" y1="0" x2="76" y2="814" stroke="#dedede" stroke-width="0.55"/><line x1="104" y1="0" x2="104" y2="814" stroke="#c9c9c9" stroke-width="0.7"/><line x1="132" y1="0" x2="132" y2="814" stroke="#dedede" stroke-width="0.55"/><line x1="160" y1="0" x2="160" y2="814" stroke="#c9c9c9" stroke-width="0.7"/><line x1="188" y1="0" x2="188" y2="814" stroke="#dedede" stroke-width="0.55"/><line x1="216" y1="0" x2="216" y2="814" stroke="#c9c9c9" stroke-width="0.7"/><line x1="244" y1="0" x2="244" y2="814" stroke="#dedede" stroke-width="0.55"/><line x1="272" y1="0" x2="272" y2="814" stroke="#c9c9c9" stroke-width="0.7"/><line x1="300" y1="0" x2="300" y2="814" stroke="#dedede" stroke-width="0.55"/><line x1="328" y1="0" x2="328" y2="814" stroke="#c9c9c9" stroke-width="0.7"/><line x1="356" y1="0" x2="356" y2="814" stroke="#dedede" stroke-width="0.55"/><line x1="384" y1="0" x2="384" y2="814" stroke="#c9c9c9" stroke-width="0.7"/><line x1="412" y1="0" x2="412" y2="814" stroke="#dedede" stroke-width="0.55"/><line x1="440" y1="0" x2="440" y2="814" stroke="#c9c9c9" stroke-width="0.7"/><line x1="468" y1="0" x2="468" y2="814" stroke="#dedede" stroke-width="0.55"/><line x1="496" y1="0" x2="496" y2="814" stroke="#c9c9c9" stroke-width="0.7"/><line x1="524" y1="0" x2="524" y2="814" stroke="#dedede" stroke-width="0.55"/><line x1="552" y1="0" x2="552" y2="814" stroke="#c9c9c9" stroke-width="0.7"/><line x1="580" y1="0" x2="580" y2="814" stroke="#dedede" stroke-width="0.55"/><line x1="608" y1="0" x2="608" y2="814" stroke="#c9c9c9" stroke-width="0.7"/><line x1="636" y1="0" x2="636" y2="814" stroke="#dedede" stroke-width="0.55"/><line x1="664" y1="0" x2="664" y2="814" stroke="#c9c9c9" stroke-width="0.7"/><line x1="0" y1="20" x2="668" y2="20" stroke="#dedede" stroke-width="0.55"/><line x1="0" y1="48" x2="668" y2="48" stroke="#c9c9c9" stroke-width="0.7"/><line x1="0" y1="76" x2="668" y2="76" stroke="#dedede" stroke-width="0.55"/><line x1="0" y1="104" x2="668" y2="104" stroke="#c9c9c9" stroke-width="0.7"/><line x1="0" y1="132" x2="668" y2="132" stroke="#dedede" stroke-width="0.55"/><line x1="0" y1="160" x2="668" y2="160" stroke="#c9c9c9" stroke-width="0.7"/><line x1="0" y1="188" x2="668" y2="188" stroke="#dedede" stroke-width="0.55"/><line x1="0" y1="216" x2="668" y2="216" stroke="#c9c9c9" stroke-width="0.7"/><line x1="0" y1="244" x2="668" y2="244" stroke="#dedede" stroke-width="0.55"/><line x1="0" y1="272" x2="668" y2="272" stroke="#c9c9c9" stroke-width="0.7"/><line x1="0" y1="300" x2="668" y2="300" stroke="#dedede" stroke-width="0.55"/><line x1="0" y1="328" x2="668" y2="328" stroke="#c9c9c9" stroke-width="0.7"/><line x1="0" y1="356" x2="668" y2="356" stroke="#dedede" stroke-width="0.55"/><line x1="0" y1="384" x2="668" y2="384" stroke="#c9c9c9" stroke-width="0.7"/><line x1="0" y1="412" x2="668" y2="412" stroke="#dedede" stroke-width="0.55"/><line x1="0" y1="440" x2="668" y2="440" stroke="#c9c9c9" stroke-width="0.7"/><line x1="0" y1="468" x2="668" y2="468" stroke="#dedede" stroke-width="0.55"/><line x1="0" y1="496" x2="668" y2="496" stroke="#c9c9c9" stroke-width="0.7"/><line x1="0" y1="524" x2="668" y2="524" stroke="#dedede" stroke-width="0.55"/><line x1="0" y1="552" x2="668" y2="552" stroke="#c9c9c9" stroke-width="0.7"/><line x1="0" y1="580" x2="668" y2="580" stroke="#dedede" stroke-width="0.55"/><line x1="0" y1="608" x2="668" y2="608" stroke="#c9c9c9" stroke-width="0.7"/><line x1="0" y1="636" x2="668" y2="636" stroke="#dedede" stroke-width="0.55"/><line x1="0" y1="664" x2="668" y2="664" stroke="#c9c9c9" stroke-width="0.7"/><line x1="0" y1="692" x2="668" y2="692" stroke="#dedede" stroke-width="0.55"/><line x1="0" y1="720" x2="668" y2="720" stroke="#c9c9c9" stroke-width="0.7"/><line x1="0" y1="748" x2="668" y2="748" stroke="#dedede" stroke-width="0.55"/><line x1="0" y1="776" x2="668" y2="776" stroke="#c9c9c9" stroke-width="0.7"/><line x1="0" y1="804" x2="668" y2="804" stroke="#dedede" stroke-width="0.55"/><line x1="104" y1="78" x2="104" y2="694" stroke="#888" stroke-width="0.6" stroke-dasharray="12 3 2 3"/><line x1="216" y1="78" x2="216" y2="694" stroke="#888" stroke-width="0.6" stroke-dasharray="12 3 2 3"/><line x1="328" y1="78" x2="328" y2="694" stroke="#888" stroke-width="0.6" stroke-dasharray="12 3 2 3"/><line x1="552" y1="78" x2="552" y2="694" stroke="#888" stroke-width="0.6" stroke-dasharray="12 3 2 3"/><line x1="78" y1="664" x2="582" y2="664" stroke="#888" stroke-width="0.6" stroke-dasharray="12 3 2 3"/><line x1="78" y1="440" x2="582" y2="440" stroke="#888" stroke-width="0.6" stroke-dasharray="12 3 2 3"/><line x1="78" y1="272" x2="582" y2="272" stroke="#888" stroke-width="0.6" stroke-dasharray="12 3 2 3"/><line x1="78" y1="104" x2="582" y2="104" stroke="#888" stroke-width="0.6" stroke-dasharray="12 3 2 3"/><line x1="100.31" y1="664" x2="100.31" y2="658.4" stroke="#111" stroke-width="1.15"/><line x1="107.69" y1="664" x2="107.69" y2="658.4" stroke="#111" stroke-width="1.15"/><line x1="100.31" y1="512.8" x2="100.31" y2="266.4" stroke="#111" stroke-width="1.15"/><line x1="107.69" y1="512.8" x2="107.69" y2="266.4" stroke="#111" stroke-width="1.15"/><line x1="100.31" y1="160" x2="100.31" y2="104" stroke="#111" stroke-width="1.15"/><line x1="107.69" y1="160" x2="107.69" y2="104" stroke="#111" stroke-width="1.15"/><line x1="324.31" y1="664" x2="324.31" y2="641.6" stroke="#111" stroke-width="1.15"/><line x1="331.69" y1="664" x2="331.69" y2="641.6" stroke="#111" stroke-width="1.15"/><line x1="324.31" y1="574.4" x2="324.31" y2="440" stroke="#111" stroke-width="1.15"/><line x1="331.69" y1="574.4" x2="331.69" y2="440" stroke="#111" stroke-width="1.15"/><line x1="324.31" y1="328" x2="324.31" y2="104" stroke="#111" stroke-width="1.15"/><line x1="331.69" y1="328" x2="331.69" y2="104" stroke="#111" stroke-width="1.15"/><line x1="104" y1="660.31" x2="160" y2="660.31" stroke="#111" stroke-width="1.15"/><line x1="104" y1="667.69" x2="160" y2="667.69" stroke="#111" stroke-width="1.15"/><line x1="210.4" y1="660.31" x2="479.2" y2="660.31" stroke="#111" stroke-width="1.15"/><line x1="210.4" y1="667.69" x2="479.2" y2="667.69" stroke="#111" stroke-width="1.15"/><line x1="546.4" y1="660.31" x2="552" y2="660.31" stroke="#111" stroke-width="1.15"/><line x1="546.4" y1="667.69" x2="552" y2="667.69" stroke="#111" stroke-width="1.15"/><line x1="104" y1="436.31" x2="238.4" y2="436.31" stroke="#111" stroke-width="1.15"/><line x1="104" y1="443.69" x2="238.4" y2="443.69" stroke="#111" stroke-width="1.15"/><line x1="294.4" y1="436.31" x2="350.4" y2="436.31" stroke="#111" stroke-width="1.15"/><line x1="294.4" y1="443.69" x2="350.4" y2="443.69" stroke="#111" stroke-width="1.15"/><line x1="406.4" y1="436.31" x2="552" y2="436.31" stroke="#111" stroke-width="1.15"/><line x1="406.4" y1="443.69" x2="552" y2="443.69" stroke="#111" stroke-width="1.15"/><line x1="436.31" y1="664" x2="436.31" y2="641.6" stroke="#111" stroke-width="1.15"/><line x1="443.69" y1="664" x2="443.69" y2="641.6" stroke="#111" stroke-width="1.15"/><line x1="436.31" y1="574.4" x2="436.31" y2="529.6" stroke="#111" stroke-width="1.15"/><line x1="443.69" y1="574.4" x2="443.69" y2="529.6" stroke="#111" stroke-width="1.15"/><line x1="436.31" y1="473.6" x2="436.31" y2="440" stroke="#111" stroke-width="1.15"/><line x1="443.69" y1="473.6" x2="443.69" y2="440" stroke="#111" stroke-width="1.15"/><line x1="548.31" y1="664" x2="548.31" y2="658.4" stroke="#111" stroke-width="1.15"/><line x1="555.69" y1="664" x2="555.69" y2="658.4" stroke="#111" stroke-width="1.15"/><line x1="548.31" y1="591.2" x2="548.31" y2="266.4" stroke="#111" stroke-width="1.15"/><line x1="555.69" y1="591.2" x2="555.69" y2="266.4" stroke="#111" stroke-width="1.15"/><line x1="548.31" y1="160" x2="548.31" y2="104" stroke="#111" stroke-width="1.15"/><line x1="555.69" y1="160" x2="555.69" y2="104" stroke="#111" stroke-width="1.15"/><line x1="440" y1="548.31" x2="552" y2="548.31" stroke="#111" stroke-width="1.15"/><line x1="440" y1="555.69" x2="552" y2="555.69" stroke="#111" stroke-width="1.15"/><line x1="212.31" y1="440" x2="212.31" y2="328" stroke="#111" stroke-width="1.15"/><line x1="219.69" y1="440" x2="219.69" y2="328" stroke="#111" stroke-width="1.15"/><line x1="104" y1="324.31" x2="182.4" y2="324.31" stroke="#111" stroke-width="1.15"/><line x1="104" y1="331.69" x2="182.4" y2="331.69" stroke="#111" stroke-width="1.15"/><line x1="238.4" y1="324.31" x2="406.4" y2="324.31" stroke="#111" stroke-width="1.15"/><line x1="238.4" y1="331.69" x2="406.4" y2="331.69" stroke="#111" stroke-width="1.15"/><line x1="462.4" y1="324.31" x2="552" y2="324.31" stroke="#111" stroke-width="1.15"/><line x1="462.4" y1="331.69" x2="552" y2="331.69" stroke="#111" stroke-width="1.15"/><line x1="104" y1="100.31" x2="160" y2="100.31" stroke="#111" stroke-width="1.15"/><line x1="104" y1="107.69" x2="160" y2="107.69" stroke="#111" stroke-width="1.15"/><line x1="210.4" y1="100.31" x2="333.6" y2="100.31" stroke="#111" stroke-width="1.15"/><line x1="210.4" y1="107.69" x2="333.6" y2="107.69" stroke="#111" stroke-width="1.15"/><line x1="479.2" y1="100.31" x2="552" y2="100.31" stroke="#111" stroke-width="1.15"/><line x1="479.2" y1="107.69" x2="552" y2="107.69" stroke="#111" stroke-width="1.15"/><line x1="548.31" y1="658.4" x2="548.31" y2="591.2" stroke="#111" stroke-width="0.9"/><line x1="555.69" y1="658.4" x2="555.69" y2="591.2" stroke="#111" stroke-width="0.9"/><line x1="552" y1="658.4" x2="552" y2="591.2" stroke="#111" stroke-width="0.7"/><line x1="548.31" y1="658.4" x2="555.69" y2="658.4" stroke="#111" stroke-width="1.0"/><line x1="548.31" y1="591.2" x2="555.69" y2="591.2" stroke="#111" stroke-width="1.0"/><line x1="548.31" y1="266.4" x2="548.31" y2="160" stroke="#111" stroke-width="0.9"/><line x1="555.69" y1="266.4" x2="555.69" y2="160" stroke="#111" stroke-width="0.9"/><line x1="552" y1="266.4" x2="552" y2="160" stroke="#111" stroke-width="0.7"/><line x1="548.31" y1="266.4" x2="555.69" y2="266.4" stroke="#111" stroke-width="1.0"/><line x1="548.31" y1="160" x2="555.69" y2="160" stroke="#111" stroke-width="1.0"/><line x1="160" y1="660.31" x2="210.4" y2="660.31" stroke="#111" stroke-width="0.9"/><line x1="160" y1="667.69" x2="210.4" y2="667.69" stroke="#111" stroke-width="0.9"/><line x1="160" y1="664" x2="210.4" y2="664" stroke="#111" stroke-width="0.7"/><line x1="160" y1="660.31" x2="160" y2="667.69" stroke="#111" stroke-width="1.0"/><line x1="210.4" y1="660.31" x2="210.4" y2="667.69" stroke="#111" stroke-width="1.0"/><line x1="479.2" y1="660.31" x2="546.4" y2="660.31" stroke="#111" stroke-width="0.9"/><line x1="479.2" y1="667.69" x2="546.4" y2="667.69" stroke="#111" stroke-width="0.9"/><line x1="479.2" y1="664" x2="546.4" y2="664" stroke="#111" stroke-width="0.7"/><line x1="479.2" y1="660.31" x2="479.2" y2="667.69" stroke="#111" stroke-width="1.0"/><line x1="546.4" y1="660.31" x2="546.4" y2="667.69" stroke="#111" stroke-width="1.0"/><line x1="160" y1="100.31" x2="210.4" y2="100.31" stroke="#111" stroke-width="0.9"/><line x1="160" y1="107.69" x2="210.4" y2="107.69" stroke="#111" stroke-width="0.9"/><line x1="160" y1="104" x2="210.4" y2="104" stroke="#111" stroke-width="0.7"/><line x1="160" y1="100.31" x2="160" y2="107.69" stroke="#111" stroke-width="1.0"/><line x1="210.4" y1="100.31" x2="210.4" y2="107.69" stroke="#111" stroke-width="1.0"/><line x1="333.6" y1="100.31" x2="479.2" y2="100.31" stroke="#111" stroke-width="0.9"/><line x1="333.6" y1="107.69" x2="479.2" y2="107.69" stroke="#111" stroke-width="0.9"/><line x1="333.6" y1="104" x2="479.2" y2="104" stroke="#111" stroke-width="0.7"/><line x1="333.6" y1="100.31" x2="333.6" y2="107.69" stroke="#111" stroke-width="1.0"/><line x1="479.2" y1="100.31" x2="479.2" y2="107.69" stroke="#111" stroke-width="1.0"/><line x1="100.31" y1="658.4" x2="100.31" y2="512.8" stroke="#111" stroke-width="0.9"/><line x1="107.69" y1="658.4" x2="107.69" y2="512.8" stroke="#111" stroke-width="0.9"/><line x1="104" y1="658.4" x2="104" y2="512.8" stroke="#111" stroke-width="0.7"/><line x1="100.31" y1="658.4" x2="107.69" y2="658.4" stroke="#111" stroke-width="1.0"/><line x1="100.31" y1="512.8" x2="107.69" y2="512.8" stroke="#111" stroke-width="1.0"/><line x1="100.31" y1="266.4" x2="100.31" y2="160" stroke="#111" stroke-width="0.9"/><line x1="107.69" y1="266.4" x2="107.69" y2="160" stroke="#111" stroke-width="0.9"/><line x1="104" y1="266.4" x2="104" y2="160" stroke="#111" stroke-width="0.7"/><line x1="100.31" y1="266.4" x2="107.69" y2="266.4" stroke="#111" stroke-width="1.0"/><line x1="100.31" y1="160" x2="107.69" y2="160" stroke="#111" stroke-width="1.0"/><line x1="324.31" y1="641.6" x2="331.69" y2="641.6" stroke="#111" stroke-width="1.0"/><line x1="324.31" y1="574.4" x2="331.69" y2="574.4" stroke="#111" stroke-width="1.0"/><line x1="328" y1="641.6" x2="260.8" y2="641.6" stroke="#555" stroke-width="1.2"/><path d="M 260.8 641.6 A 67.2 67.2 0 0 1 328.0 574.4" stroke="#777" stroke-width="0.9" fill="none"/><line x1="436.31" y1="641.6" x2="443.69" y2="641.6" stroke="#111" stroke-width="1.0"/><line x1="436.31" y1="574.4" x2="443.69" y2="574.4" stroke="#111" stroke-width="1.0"/><line x1="440" y1="641.6" x2="372.8" y2="641.6" stroke="#555" stroke-width="1.2"/><path d="M 372.8 641.6 A 67.2 67.2 0 0 1 440.0 574.4" stroke="#777" stroke-width="0.9" fill="none"/><line x1="436.31" y1="529.6" x2="443.69" y2="529.6" stroke="#111" stroke-width="1.0"/><line x1="436.31" y1="473.6" x2="443.69" y2="473.6" stroke="#111" stroke-width="1.0"/><line x1="440" y1="529.6" x2="384" y2="529.6" stroke="#555" stroke-width="1.2"/><path d="M 384.0 529.6 A 56.0 56.0 0 0 1 440.0 473.6" stroke="#777" stroke-width="0.9" fill="none"/><line x1="350.4" y1="436.31" x2="350.4" y2="443.69" stroke="#111" stroke-width="1.0"/><line x1="406.4" y1="436.31" x2="406.4" y2="443.69" stroke="#111" stroke-width="1.0"/><line x1="350.4" y1="440" x2="350.4" y2="496" stroke="#555" stroke-width="1.2"/><path d="M 350.4 496.0 A 56.0 56.0 0 0 1 406.4 440.0" stroke="#777" stroke-width="0.9" fill="none"/><line x1="238.4" y1="436.31" x2="238.4" y2="443.69" stroke="#111" stroke-width="1.0"/><line x1="294.4" y1="436.31" x2="294.4" y2="443.69" stroke="#111" stroke-width="1.0"/><line x1="238.4" y1="440" x2="238.4" y2="496" stroke="#555" stroke-width="1.2"/><path d="M 238.4 496.0 A 56.0 56.0 0 0 1 294.4 440.0" stroke="#777" stroke-width="0.9" fill="none"/><line x1="182.4" y1="324.31" x2="182.4" y2="331.69" stroke="#111" stroke-width="1.0"/><line x1="238.4" y1="324.31" x2="238.4" y2="331.69" stroke="#111" stroke-width="1.0"/><line x1="182.4" y1="328" x2="182.4" y2="272" stroke="#555" stroke-width="1.2"/><path d="M 182.4 272.0 A 56.0 56.0 0 0 0 238.4 328.0" stroke="#777" stroke-width="0.9" fill="none"/><line x1="406.4" y1="324.31" x2="406.4" y2="331.69" stroke="#111" stroke-width="1.0"/><line x1="462.4" y1="324.31" x2="462.4" y2="331.69" stroke="#111" stroke-width="1.0"/><line x1="406.4" y1="328" x2="406.4" y2="272" stroke="#555" stroke-width="1.2"/><path d="M 406.4 272.0 A 56.0 56.0 0 0 0 462.4 328.0" stroke="#777" stroke-width="0.9" fill="none"/><rect x="123.6" y="518.4" width="56" height="123.2" fill="#fff" stroke="#333" stroke-width="0.85"/><line x1="123.6" y1="538" x2="179.6" y2="538" stroke="#333" stroke-width="0.7"/><rect x="190.8" y="518.4" width="56" height="123.2" fill="#fff" stroke="#333" stroke-width="0.85"/><line x1="190.8" y1="538" x2="246.8" y2="538" stroke="#333" stroke-width="0.7"/><rect x="272" y="445.6" width="50.4" height="50.4" fill="#fff" stroke="#333" stroke-width="0.85" stroke-dasharray="4 3"/><text x="297.2" y="473.8" font-size="8" text-anchor="middle" fill="#333" font-weight="400" font-family="'Hiragino Sans','Hiragino Kaku Gothic ProN','Noto Sans JP','Yu Gothic',Meiryo,'IPAGothic',sans-serif">収納</text><rect x="120.8" y="126.4" width="56" height="123.2" fill="#fff" stroke="#333" stroke-width="0.85"/><line x1="120.8" y1="146" x2="176.8" y2="146" stroke="#333" stroke-width="0.7"/><rect x="238.4" y="272" width="72.8" height="39.2" fill="#fff" stroke="#333" stroke-width="0.85"/><rect x="272" y="109.6" width="50.4" height="50.4" fill="#fff" stroke="#333" stroke-width="0.85" stroke-dasharray="4 3"/><text x="297.2" y="137.8" font-size="8" text-anchor="middle" fill="#333" font-weight="400" font-family="'Hiragino Sans','Hiragino Kaku Gothic ProN','Noto Sans JP','Yu Gothic',Meiryo,'IPAGothic',sans-serif">収納</text><rect x="344.8" y="126.4" width="56" height="123.2" fill="#fff" stroke="#333" stroke-width="0.85"/><line x1="344.8" y1="146" x2="400.8" y2="146" stroke="#333" stroke-width="0.7"/><rect x="462.4" y="272" width="72.8" height="39.2" fill="#fff" stroke="#333" stroke-width="0.85"/><rect x="496" y="109.6" width="50.4" height="50.4" fill="#fff" stroke="#333" stroke-width="0.85" stroke-dasharray="4 3"/><text x="521.2" y="137.8" font-size="8" text-anchor="middle" fill="#333" font-weight="400" font-family="'Hiragino Sans','Hiragino Kaku Gothic ProN','Noto Sans JP','Yu Gothic',Meiryo,'IPAGothic',sans-serif">収納</text><line x1="331.69" y1="496" x2="436.31" y2="496" stroke="#111" stroke-width="1.0"/><line x1="384" y1="664" x2="384" y2="496" stroke="#111" stroke-width="1.0"/><line x1="385" y1="508.92" x2="436.31" y2="508.92" stroke="#111" stroke-width="0.7"/><line x1="385" y1="521.85" x2="436.31" y2="521.85" stroke="#111" stroke-width="0.7"/><line x1="385" y1="534.77" x2="436.31" y2="534.77" stroke="#111" stroke-width="0.7"/><line x1="385" y1="547.69" x2="436.31" y2="547.69" stroke="#111" stroke-width="0.7"/><line x1="385" y1="560.62" x2="436.31" y2="560.62" stroke="#111" stroke-width="0.7"/><line x1="385" y1="573.54" x2="436.31" y2="573.54" stroke="#111" stroke-width="0.7"/><line x1="331.69" y1="508.92" x2="383" y2="508.92" stroke="#111" stroke-width="0.7"/><line x1="331.69" y1="521.85" x2="383" y2="521.85" stroke="#111" stroke-width="0.7"/><line x1="331.69" y1="534.77" x2="383" y2="534.77" stroke="#111" stroke-width="0.7"/><line x1="331.69" y1="547.69" x2="383" y2="547.69" stroke="#111" stroke-width="0.7"/><line x1="331.69" y1="560.62" x2="383" y2="560.62" stroke="#111" stroke-width="0.7"/><line x1="331.69" y1="573.54" x2="383" y2="573.54" stroke="#111" stroke-width="0.7"/><line x1="331.69" y1="586.46" x2="383" y2="586.46" stroke="#111" stroke-width="0.7"/><line x1="356" y1="598.78" x2="356" y2="510.72" stroke="#111" stroke-width="1.2"/><polygon points="356,502.72 352,510.72 360,510.72" fill="#111"/><text x="356" y="610.78" font-size="9" text-anchor="middle" fill="#111" font-weight="700" font-family="'Hiragino Sans','Hiragino Kaku Gothic ProN','Noto Sans JP','Yu Gothic',Meiryo,'IPAGothic',sans-serif">DN</text><rect x="331" y="443" width="106" height="218" fill="none" stroke="#111" stroke-width="1.0" stroke-dasharray="7 3 2 3"/><text x="384" y="453" font-size="7.5" text-anchor="middle" fill="#333" font-weight="400" font-family="'Hiragino Sans','Hiragino Kaku Gothic ProN','Noto Sans JP','Yu Gothic',Meiryo,'IPAGothic',sans-serif">竪穴区画</text><polygon points="97,476.4 87,470.9 87,481.9" fill="#fff" stroke="#111" stroke-width="1.1"/><polygon points="97,356 87,350.5 87,361.5" fill="#fff" stroke="#111" stroke-width="1.1"/><polygon points="97,132 87,126.5 87,137.5" fill="#fff" stroke="#111" stroke-width="1.1"/><polygon points="335,507.2 345,501.7 345,512.7" fill="#fff" stroke="#111" stroke-width="1.1"/><polygon points="335,188 345,182.5 345,193.5" fill="#fff" stroke="#111" stroke-width="1.1"/><polygon points="559,515.6 569,510.1 569,521.1" fill="#fff" stroke="#111" stroke-width="1.1"/><polygon points="559,356 569,350.5 569,361.5" fill="#fff" stroke="#111" stroke-width="1.1"/><polygon points="559,132 569,126.5 569,137.5" fill="#fff" stroke="#111" stroke-width="1.1"/><polygon points="132,671 126.5,681 137.5,681" fill="#fff" stroke="#111" stroke-width="1.1"/><polygon points="272,671 266.5,681 277.5,681" fill="#fff" stroke="#111" stroke-width="1.1"/><polygon points="403.6,671 398.1,681 409.1,681" fill="#fff" stroke="#111" stroke-width="1.1"/><polygon points="160,433 154.5,423 165.5,423" fill="#fff" stroke="#111" stroke-width="1.1"/><polygon points="479.2,433 473.7,423 484.7,423" fill="#fff" stroke="#111" stroke-width="1.1"/><polygon points="132,97 126.5,87 137.5,87" fill="#fff" stroke="#111" stroke-width="1.1"/><polygon points="272,97 266.5,87 277.5,87" fill="#fff" stroke="#111" stroke-width="1.1"/><polygon points="515.6,97 510.1,87 521.1,87" fill="#fff" stroke="#111" stroke-width="1.1"/><rect x="212.31" y="660.31" width="7.38" height="7.38" fill="#111"/><rect x="324.31" y="660.31" width="7.38" height="7.38" fill="#111"/><rect x="100.31" y="436.31" width="7.38" height="7.38" fill="#111"/><rect x="548.31" y="436.31" width="7.38" height="7.38" fill="#111"/><rect x="100.31" y="268.31" width="7.38" height="7.38" fill="#111"/><rect x="548.31" y="268.31" width="7.38" height="7.38" fill="#111"/><rect x="212.31" y="100.31" width="7.38" height="7.38" fill="#111"/><rect x="324.31" y="100.31" width="7.38" height="7.38" fill="#111"/><rect x="212.31" y="436.31" width="7.38" height="7.38" fill="#111"/><rect x="324.31" y="436.31" width="7.38" height="7.38" fill="#111"/><rect x="212.31" y="268.31" width="7.38" height="7.38" fill="#111"/><rect x="324.31" y="268.31" width="7.38" height="7.38" fill="#111"/><rect x="100.31" y="660.31" width="7.38" height="7.38" fill="#111"/><circle cx="104" cy="664" r="8" fill="none" stroke="#111" stroke-width="1.2"/><rect x="548.31" y="660.31" width="7.38" height="7.38" fill="#111"/><circle cx="552" cy="664" r="8" fill="none" stroke="#111" stroke-width="1.2"/><rect x="100.31" y="100.31" width="7.38" height="7.38" fill="#111"/><circle cx="104" cy="104" r="8" fill="none" stroke="#111" stroke-width="1.2"/><rect x="548.31" y="100.31" width="7.38" height="7.38" fill="#111"/><circle cx="552" cy="104" r="8" fill="none" stroke="#111" stroke-width="1.2"/><text x="216" y="503.2" font-size="10" text-anchor="middle" fill="#111" font-weight="700" font-family="'Hiragino Sans','Hiragino Kaku Gothic ProN','Noto Sans JP','Yu Gothic',Meiryo,'IPAGothic',sans-serif">夫婦寝室</text><text x="216" y="516.2" font-size="9" text-anchor="middle" fill="#111" font-weight="400" font-family="'Hiragino Sans','Hiragino Kaku Gothic ProN','Noto Sans JP','Yu Gothic',Meiryo,'IPAGothic',sans-serif">13.24㎡</text><text x="384" y="625.28" font-size="10" text-anchor="middle" fill="#111" font-weight="700" font-family="'Hiragino Sans','Hiragino Kaku Gothic ProN','Noto Sans JP','Yu Gothic',Meiryo,'IPAGothic',sans-serif">階　段</text><text x="384" y="638.28" font-size="9" text-anchor="middle" fill="#111" font-weight="400" font-family="'Hiragino Sans','Hiragino Kaku Gothic ProN','Noto Sans JP','Yu Gothic',Meiryo,'IPAGothic',sans-serif">6.62㎡</text><text x="496" y="595.04" font-size="10" text-anchor="middle" fill="#111" font-weight="700" font-family="'Hiragino Sans','Hiragino Kaku Gothic ProN','Noto Sans JP','Yu Gothic',Meiryo,'IPAGothic',sans-serif">便　所</text><text x="496" y="608.04" font-size="9" text-anchor="middle" fill="#111" font-weight="400" font-family="'Hiragino Sans','Hiragino Kaku Gothic ProN','Noto Sans JP','Yu Gothic',Meiryo,'IPAGothic',sans-serif">3.31㎡</text><text x="496" y="483.04" font-size="10" text-anchor="middle" fill="#111" font-weight="700" font-family="'Hiragino Sans','Hiragino Kaku Gothic ProN','Noto Sans JP','Yu Gothic',Meiryo,'IPAGothic',sans-serif">納　戸</text><text x="496" y="496.04" font-size="9" text-anchor="middle" fill="#111" font-weight="400" font-family="'Hiragino Sans','Hiragino Kaku Gothic ProN','Noto Sans JP','Yu Gothic',Meiryo,'IPAGothic',sans-serif">3.31㎡</text><text x="160" y="371.04" font-size="10" text-anchor="middle" fill="#111" font-weight="700" font-family="'Hiragino Sans','Hiragino Kaku Gothic ProN','Noto Sans JP','Yu Gothic',Meiryo,'IPAGothic',sans-serif">収　納</text><text x="160" y="384.04" font-size="9" text-anchor="middle" fill="#111" font-weight="400" font-family="'Hiragino Sans','Hiragino Kaku Gothic ProN','Noto Sans JP','Yu Gothic',Meiryo,'IPAGothic',sans-serif">3.31㎡</text><text x="384" y="371.04" font-size="11.5" text-anchor="middle" fill="#111" font-weight="700" font-family="'Hiragino Sans','Hiragino Kaku Gothic ProN','Noto Sans JP','Yu Gothic',Meiryo,'IPAGothic',sans-serif">廊　下</text><text x="384" y="384.04" font-size="9" text-anchor="middle" fill="#111" font-weight="400" font-family="'Hiragino Sans','Hiragino Kaku Gothic ProN','Noto Sans JP','Yu Gothic',Meiryo,'IPAGothic',sans-serif">9.93㎡</text><text x="216" y="167.2" font-size="10" text-anchor="middle" fill="#111" font-weight="700" font-family="'Hiragino Sans','Hiragino Kaku Gothic ProN','Noto Sans JP','Yu Gothic',Meiryo,'IPAGothic',sans-serif">子供室A</text><text x="216" y="180.2" font-size="9" text-anchor="middle" fill="#111" font-weight="400" font-family="'Hiragino Sans','Hiragino Kaku Gothic ProN','Noto Sans JP','Yu Gothic',Meiryo,'IPAGothic',sans-serif">13.24㎡</text><text x="440" y="167.2" font-size="10" text-anchor="middle" fill="#111" font-weight="700" font-family="'Hiragino Sans','Hiragino Kaku Gothic ProN','Noto Sans JP','Yu Gothic',Meiryo,'IPAGothic',sans-serif">子供室B</text><text x="440" y="180.2" font-size="9" text-anchor="middle" fill="#111" font-weight="400" font-family="'Hiragino Sans','Hiragino Kaku Gothic ProN','Noto Sans JP','Yu Gothic',Meiryo,'IPAGothic',sans-serif">13.24㎡</text><circle cx="104" cy="64" r="9" fill="#fff" stroke="#111" stroke-width="0.9"/><text x="104" y="68" font-size="10" text-anchor="middle" fill="#111" font-weight="700" font-family="'Hiragino Sans','Hiragino Kaku Gothic ProN','Noto Sans JP','Yu Gothic',Meiryo,'IPAGothic',sans-serif">A</text><circle cx="216" cy="64" r="9" fill="#fff" stroke="#111" stroke-width="0.9"/><text x="216" y="68" font-size="10" text-anchor="middle" fill="#111" font-weight="700" font-family="'Hiragino Sans','Hiragino Kaku Gothic ProN','Noto Sans JP','Yu Gothic',Meiryo,'IPAGothic',sans-serif">B</text><circle cx="328" cy="64" r="9" fill="#fff" stroke="#111" stroke-width="0.9"/><text x="328" y="68" font-size="10" text-anchor="middle" fill="#111" font-weight="700" font-family="'Hiragino Sans','Hiragino Kaku Gothic ProN','Noto Sans JP','Yu Gothic',Meiryo,'IPAGothic',sans-serif">C</text><circle cx="552" cy="64" r="9" fill="#fff" stroke="#111" stroke-width="0.9"/><text x="552" y="68" font-size="10" text-anchor="middle" fill="#111" font-weight="700" font-family="'Hiragino Sans','Hiragino Kaku Gothic ProN','Noto Sans JP','Yu Gothic',Meiryo,'IPAGothic',sans-serif">D</text><circle cx="64" cy="664" r="9" fill="#fff" stroke="#111" stroke-width="0.9"/><text x="64" y="668" font-size="10" text-anchor="middle" fill="#111" font-weight="700" font-family="'Hiragino Sans','Hiragino Kaku Gothic ProN','Noto Sans JP','Yu Gothic',Meiryo,'IPAGothic',sans-serif">1</text><circle cx="64" cy="440" r="9" fill="#fff" stroke="#111" stroke-width="0.9"/><text x="64" y="444" font-size="10" text-anchor="middle" fill="#111" font-weight="700" font-family="'Hiragino Sans','Hiragino Kaku Gothic ProN','Noto Sans JP','Yu Gothic',Meiryo,'IPAGothic',sans-serif">2</text><circle cx="64" cy="272" r="9" fill="#fff" stroke="#111" stroke-width="0.9"/><text x="64" y="276" font-size="10" text-anchor="middle" fill="#111" font-weight="700" font-family="'Hiragino Sans','Hiragino Kaku Gothic ProN','Noto Sans JP','Yu Gothic',Meiryo,'IPAGothic',sans-serif">3</text><circle cx="64" cy="104" r="9" fill="#fff" stroke="#111" stroke-width="0.9"/><text x="64" y="108" font-size="10" text-anchor="middle" fill="#111" font-weight="700" font-family="'Hiragino Sans','Hiragino Kaku Gothic ProN','Noto Sans JP','Yu Gothic',Meiryo,'IPAGothic',sans-serif">4</text><line x1="104" y1="720" x2="552" y2="720" stroke="#444" stroke-width="0.8"/><line x1="104" y1="716" x2="104" y2="724" stroke="#444" stroke-width="0.8"/><line x1="552" y1="716" x2="552" y2="724" stroke="#444" stroke-width="0.8"/><text x="328" y="715" font-size="11" text-anchor="middle" fill="#444" font-weight="400" font-family="'Hiragino Sans','Hiragino Kaku Gothic ProN','Noto Sans JP','Yu Gothic',Meiryo,'IPAGothic',sans-serif">7,280</text><line x1="604" y1="664" x2="604" y2="104" stroke="#444" stroke-width="0.8"/><line x1="600" y1="664" x2="608" y2="664" stroke="#444" stroke-width="0.8"/><line x1="600" y1="104" x2="608" y2="104" stroke="#444" stroke-width="0.8"/><text x="598" y="388" font-size="11" text-anchor="end" fill="#444" font-weight="400" font-family="'Hiragino Sans','Hiragino Kaku Gothic ProN','Noto Sans JP','Yu Gothic',Meiryo,'IPAGothic',sans-serif">9,100</text><circle cx="638" cy="34" r="12" fill="#fff" stroke="#444" stroke-width="0.9"/><polygon points="638,25 634,41 638,37 642,41" fill="#111"/><text x="638" y="58" font-size="9.5" text-anchor="middle" fill="#111" font-weight="700" font-family="'Hiragino Sans','Hiragino Kaku Gothic ProN','Noto Sans JP','Yu Gothic',Meiryo,'IPAGothic',sans-serif">N</text></svg>