<svg xmlns="http://www.w3.org/2000/svg" viewBox="0 0 668 814" width="668" height="814" font-family="'Hiragino Sans','Hiragino Kaku Gothic ProN','Noto Sans JP','Yu Gothic',Meiryo,'IPAGothic',sans-serif"><rect width="668" height="814" fill="#ffffff"/><text x="334" y="30" font-size="15" text-anchor="middle" fill="#111" font-weight="700" font-family="'Hiragino Sans','Hiragino Kaku Gothic ProN','Noto Sans JP','Yu Gothic',Meiryo,'IPAGothic',sans-serif">１階平面図 兼 配置図　縮尺1／100</text><line x1="20" y1="0" x2="20" y2="814" stroke="#dedede" stroke-width="0.55"/><line x1="48" y1="0" x2="48" y2="814" stroke="#c9c9c9" stroke-width="0.7"/><line x1="76" y1="0" x2="76" y2="814" stroke="#dedede" stroke-width="0.55"/><line x1="104" y1="0" x2="104" y2="814" stroke="#c9c9c9" stroke-width="0.7"/><line x1="132" y1="0" x2="132" y2="814" stroke="#dedede" stroke-width="0.55"/><line x1="160" y1="0" x2="160" y2="814" stroke="#c9c9c9" stroke-width="0.7"/><line x1="188" y1="0" x2="188" y2="814" stroke="#dedede" stroke-width="0.55"/><line x1="216" y1="0" x2="216" y2="814" stroke="#c9c9c9" stroke-width="0.7"/><line x1="244" y1="0" x2="244" y2="814" stroke="#dedede" stroke-width="0.55"/><line x1="272" y1="0" x2="272" y2="814" stroke="#c9c9c9" stroke-width="0.7"/><line x1="300" y1="0" x2="300" y2="814" stroke="#dedede" stroke-width="0.55"/><line x1="328" y1="0" x2="328" y2="814" stroke="#c9c9c9" stroke-width="0.7"/><line x1="356" y1="0" x2="356" y2="814" stroke="#dedede" stroke-width="0.55"/><line x1="384" y1="0" x2="384" y2="814" stroke="#c9c9c9" stroke-width="0.7"/><line x1="412" y1="0" x2="412" y2="814" stroke="#dedede" stroke-width="0.55"/><line x1="440" y1="0" x2="440" y2="814" stroke="#c9c9c9" stroke-width="0.7"/><line x1="468" y1="0" x2="468" y2="814" stroke="#dedede" stroke-width="0.55"/><line x1="496" y1="0" x2="496" y2="814" stroke="#c9c9c9" stroke-width="0.7"/><line x1="524" y1="0" x2="524" y2="814" stroke="#dedede" stroke-width="0.55"/><line x1="552" y1="0" x2="552" y2="814" stroke="#c9c9c9" stroke-width="0.7"/><line x1="580" y1="0" x2="580" y2="814" stroke="#dedede" stroke-width="0.55"/><line x1="608" y1="0" x2="608" y2="814" stroke="#c9c9c9" stroke-width="0.7"/><line x1="636" y1="0" x2="636" y2="814" stroke="#dedede" stroke-width="0.55"/><line x1="664" y1="0" x2="664" y2="814" stroke="#c9c9c9" stroke-width="0.7"/><line x1="0" y1="20" x2="668" y2="20" stroke="#dedede" stroke-width="0.55"/><line x1="0" y1="48" x2="668" y2="48" stroke="#c9c9c9" stroke-width="0.7"/><line x1="0" y1="76" x2="668" y2="76" stroke="#dedede" stroke-width="0.55"/><line x1="0" y1="104" x2="668" y2="104" stroke="#c9c9c9" stroke-width="0.7"/><line x1="0" y1="132" x2="668" y2="132" stroke="#dedede" stroke-width="0.55"/><line x1="0" y1="160" x2="668" y2="160" stroke="#c9c9c9" stroke-width="0.7"/><line x1="0" y1="188" x2="668" y2="188" stroke="#dedede" stroke-width="0.55"/><line x1="0" y1="216" x2="668" y2="216" stroke="#c9c9c9" stroke-width="0.7"/><line x1="0" y1="244" x2="668" y2="244" stroke="#dedede" stroke-width="0.55"/><line x1="0" y1="272" x2="668" y2="272" stroke="#c9c9c9" stroke-width="0.7"/><line x1="0" y1="300" x2="668" y2="300" stroke="#dedede" stroke-width="0.55"/><line x1="0" y1="328" x2="668" y2="328" stroke="#c9c9c9" stroke-width="0.7"/><line x1="0" y1="356" x2="668" y2="356" stroke="#dedede" stroke-width="0.55"/><line x1="0" y1="384" x2="668" y2="384" stroke="#c9c9c9" stroke-width="0.7"/><line x1="0" y1="412" x2="668" y2="412" stroke="#dedede" stroke-width="0.55"/><line x1="0" y1="440" x2="668" y2="440" stroke="#c9c9c9" stroke-width="0.7"/><line x1="0" y1="468" x2="668" y2="468" stroke="#dedede" stroke-width="0.55"/><line x1="0" y1="496" x2="668" y2="496" stroke="#c9c9c9" stroke-width="0.7"/><line x1="0" y1="524" x2="668" y2="524" stroke="#dedede" stroke-width="0.55"/><line x1="0" y1="552" x2="668" y2="552" stroke="#c9c9c9" stroke-width="0.7"/><line x1="0" y1="580" x2="668" y2="580" stroke="#dedede" stroke-width="0.55"/><line x1="0" y1="608" x2="668" y2="608" stroke="#c9c9c9" stroke-width="0.7"/><line x1="0" y1="636" x2="668" y2="636" stroke="#dedede" stroke-width="0.55"/><line x1="0" y1="664" x2="668" y2="664" stroke="#c9c9c9" stroke-width="0.7"/><line x1="0" y1="692" x2="668" y2="692" stroke="#dedede" stroke-width="0.55"/><line x1="0" y1="720" x2="668" y2="720" stroke="#c9c9c9" stroke-width="0.7"/><line x1="0" y1="748" x2="668" y2="748" stroke="#dedede" stroke-width="0.55"/><line x1="0" y1="776" x2="668" y2="776" stroke="#c9c9c9" stroke-width="0.7"/><line x1="0" y1="804" x2="668" y2="804" stroke="#dedede" stroke-width="0.55"/><line x1="104" y1="78" x2="104" y2="694" stroke="#888" stroke-width="0.6" stroke-dasharray="12 3 2 3"/><line x1="216" y1="78" x2="216" y2="694" stroke="#888" stroke-width="0.6" stroke-dasharray="12 3 2 3"/><line x1="384" y1="78" x2="384" y2="694" stroke="#888" stroke-width="0.6" stroke-dasharray="12 3 2 3"/><line x1="552" y1="78" x2="552" y2="694" stroke="#888" stroke-width="0.6" stroke-dasharray="12 3 2 3"/><line x1="78" y1="664" x2="582" y2="664" stroke="#888" stroke-width="0.6" stroke-dasharray="12 3 2 3"/><line x1="78" y1="552" x2="582" y2="552" stroke="#888" stroke-width="0.6" stroke-dasharray="12 3 2 3"/><line x1="78" y1="328" x2="582" y2="328" stroke="#888" stroke-width="0.6" stroke-dasharray="12 3 2 3"/><line x1="78" y1="104" x2="582" y2="104" stroke="#888" stroke-width="0.6" stroke-dasharray="12 3 2 3"/><line x1="100.31" y1="664" x2="100.31" y2="608" stroke="#111" stroke-width="1.15"/><line x1="107.69" y1="664" x2="107.69" y2="608" stroke="#111" stroke-width="1.15"/><line x1="100.31" y1="557.6" x2="100.31" y2="546.4" stroke="#111" stroke-width="1.15"/><line x1="107.69" y1="557.6" x2="107.69" y2="546.4" stroke="#111" stroke-width="1.15"/><line x1="100.31" y1="468" x2="100.31" y2="104" stroke="#111" stroke-width="1.15"/><line x1="107.69" y1="468" x2="107.69" y2="104" stroke="#111" stroke-width="1.15"/><line x1="212.31" y1="664" x2="212.31" y2="641.6" stroke="#111" stroke-width="1.15"/><line x1="219.69" y1="664" x2="219.69" y2="641.6" stroke="#111" stroke-width="1.15"/><line x1="212.31" y1="585.6" x2="212.31" y2="484.8" stroke="#111" stroke-width="1.15"/><line x1="219.69" y1="585.6" x2="219.69" y2="484.8" stroke="#111" stroke-width="1.15"/><line x1="212.31" y1="428.8" x2="212.31" y2="104" stroke="#111" stroke-width="1.15"/><line x1="219.69" y1="428.8" x2="219.69" y2="104" stroke="#111" stroke-width="1.15"/><line x1="104" y1="660.31" x2="272" y2="660.31" stroke="#111" stroke-width="1.15"/><line x1="104" y1="667.69" x2="272" y2="667.69" stroke="#111" stroke-width="1.15"/><line x1="378.4" y1="660.31" x2="445.6" y2="660.31" stroke="#111" stroke-width="1.15"/><line x1="378.4" y1="667.69" x2="445.6" y2="667.69" stroke="#111" stroke-width="1.15"/><line x1="546.4" y1="660.31" x2="552" y2="660.31" stroke="#111" stroke-width="1.15"/><line x1="546.4" y1="667.69" x2="552" y2="667.69" stroke="#111" stroke-width="1.15"/><line x1="104" y1="548.31" x2="216" y2="548.31" stroke="#111" stroke-width="1.15"/><line x1="104" y1="555.69" x2="216" y2="555.69" stroke="#111" stroke-width="1.15"/><line x1="104" y1="324.31" x2="126.4" y2="324.31" stroke="#111" stroke-width="1.15"/><line x1="104" y1="331.69" x2="126.4" y2="331.69" stroke="#111" stroke-width="1.15"/><line x1="193.6" y1="324.31" x2="238.4" y2="324.31" stroke="#111" stroke-width="1.15"/><line x1="193.6" y1="331.69" x2="238.4" y2="331.69" stroke="#111" stroke-width="1.15"/><line x1="294.4" y1="324.31" x2="328" y2="324.31" stroke="#111" stroke-width="1.15"/><line x1="294.4" y1="331.69" x2="328" y2="331.69" stroke="#111" stroke-width="1.15"/><line x1="104" y1="212.31" x2="126.4" y2="212.31" stroke="#111" stroke-width="1.15"/><line x1="104" y1="219.69" x2="126.4" y2="219.69" stroke="#111" stroke-width="1.15"/><line x1="193.6" y1="212.31" x2="216" y2="212.31" stroke="#111" stroke-width="1.15"/><line x1="193.6" y1="219.69" x2="216" y2="219.69" stroke="#111" stroke-width="1.15"/><line x1="104" y1="100.31" x2="160" y2="100.31" stroke="#111" stroke-width="1.15"/><line x1="104" y1="107.69" x2="160" y2="107.69" stroke="#111" stroke-width="1.15"/><line x1="210.4" y1="100.31" x2="272" y2="100.31" stroke="#111" stroke-width="1.15"/><line x1="210.4" y1="107.69" x2="272" y2="107.69" stroke="#111" stroke-width="1.15"/><line x1="378.4" y1="100.31" x2="468" y2="100.31" stroke="#111" stroke-width="1.15"/><line x1="378.4" y1="107.69" x2="468" y2="107.69" stroke="#111" stroke-width="1.15"/><line x1="546.4" y1="100.31" x2="552" y2="100.31" stroke="#111" stroke-width="1.15"/><line x1="546.4" y1="107.69" x2="552" y2="107.69" stroke="#111" stroke-width="1.15"/><line x1="380.31" y1="664" x2="380.31" y2="580" stroke="#111" stroke-width="1.15"/><line x1="387.69" y1="664" x2="387.69" y2="580" stroke="#111" stroke-width="1.15"/><line x1="380.31" y1="512.8" x2="380.31" y2="440" stroke="#111" stroke-width="1.15"/><line x1="387.69" y1="512.8" x2="387.69" y2="440" stroke="#111" stroke-width="1.15"/><line x1="216" y1="436.31" x2="272" y2="436.31" stroke="#111" stroke-width="1.15"/><line x1="216" y1="443.69" x2="272" y2="443.69" stroke="#111" stroke-width="1.15"/><line x1="361.6" y1="436.31" x2="552" y2="436.31" stroke="#111" stroke-width="1.15"/><line x1="361.6" y1="443.69" x2="552" y2="443.69" stroke="#111" stroke-width="1.15"/><line x1="548.31" y1="664" x2="548.31" y2="608" stroke="#111" stroke-width="1.15"/><line x1="555.69" y1="664" x2="555.69" y2="608" stroke="#111" stroke-width="1.15"/><line x1="548.31" y1="557.6" x2="548.31" y2="322.4" stroke="#111" stroke-width="1.15"/><line x1="555.69" y1="557.6" x2="555.69" y2="322.4" stroke="#111" stroke-width="1.15"/><line x1="548.31" y1="160" x2="548.31" y2="104" stroke="#111" stroke-width="1.15"/><line x1="555.69" y1="160" x2="555.69" y2="104" stroke="#111" stroke-width="1.15"/><line x1="324.31" y1="440" x2="324.31" y2="328" stroke="#111" stroke-width="1.15"/><line x1="331.69" y1="440" x2="331.69" y2="328" stroke="#111" stroke-width="1.15"/><line x1="272" y1="102.15" x2="325.2" y2="102.15" stroke="#111" stroke-width="1.6"/><line x1="325.2" y1="105.85" x2="378.4" y2="105.85" stroke="#111" stroke-width="1.6"/><line x1="272" y1="100.31" x2="272" y2="107.69" stroke="#111" stroke-width="1.0"/><line x1="378.4" y1="100.31" x2="378.4" y2="107.69" stroke="#111" stroke-width="1.0"/><line x1="160" y1="102.15" x2="185.2" y2="102.15" stroke="#111" stroke-width="1.6"/><line x1="185.2" y1="105.85" x2="210.4" y2="105.85" stroke="#111" stroke-width="1.6"/><line x1="160" y1="100.31" x2="160" y2="107.69" stroke="#111" stroke-width="1.0"/><line x1="210.4" y1="100.31" x2="210.4" y2="107.69" stroke="#111" stroke-width="1.0"/><line x1="468" y1="100.31" x2="546.4" y2="100.31" stroke="#111" stroke-width="0.9"/><line x1="468" y1="107.69" x2="546.4" y2="107.69" stroke="#111" stroke-width="0.9"/><line x1="468" y1="104" x2="546.4" y2="104" stroke="#111" stroke-width="0.7"/><line x1="468" y1="100.31" x2="468" y2="107.69" stroke="#111" stroke-width="1.0"/><line x1="546.4" y1="100.31" x2="546.4" y2="107.69" stroke="#111" stroke-width="1.0"/><line x1="272" y1="662.15" x2="325.2" y2="662.15" stroke="#111" stroke-width="1.6"/><line x1="325.2" y1="665.85" x2="378.4" y2="665.85" stroke="#111" stroke-width="1.6"/><line x1="272" y1="660.31" x2="272" y2="667.69" stroke="#111" stroke-width="1.0"/><line x1="378.4" y1="660.31" x2="378.4" y2="667.69" stroke="#111" stroke-width="1.0"/><line x1="445.6" y1="660.31" x2="546.4" y2="660.31" stroke="#111" stroke-width="0.9"/><line x1="445.6" y1="667.69" x2="546.4" y2="667.69" stroke="#111" stroke-width="0.9"/><line x1="445.6" y1="664" x2="546.4" y2="664" stroke="#111" stroke-width="0.7"/><line x1="445.6" y1="660.31" x2="445.6" y2="667.69" stroke="#111" stroke-width="1.0"/><line x1="546.4" y1="660.31" x2="546.4" y2="667.69" stroke="#111" stroke-width="1.0"/><line x1="548.31" y1="608" x2="548.31" y2="557.6" stroke="#111" stroke-width="0.9"/><line x1="555.69" y1="608" x2="555.69" y2="557.6" stroke="#111" stroke-width="0.9"/><line x1="552" y1="608" x2="552" y2="557.6" stroke="#111" stroke-width="0.7"/><line x1="548.31" y1="608" x2="555.69" y2="608" stroke="#111" stroke-width="1.0"/><line x1="548.31" y1="557.6" x2="555.69" y2="557.6" stroke="#111" stroke-width="1.0"/><line x1="548.31" y1="322.4" x2="548.31" y2="160" stroke="#111" stroke-width="0.9"/><line x1="555.69" y1="322.4" x2="555.69" y2="160" stroke="#111" stroke-width="0.9"/><line x1="552" y1="322.4" x2="552" y2="160" stroke="#111" stroke-width="0.7"/><line x1="548.31" y1="322.4" x2="555.69" y2="322.4" stroke="#111" stroke-width="1.0"/><line x1="548.31" y1="160" x2="555.69" y2="160" stroke="#111" stroke-width="1.0"/><line x1="100.31" y1="608" x2="100.31" y2="557.6" stroke="#111" stroke-width="0.9"/><line x1="107.69" y1="608" x2="107.69" y2="557.6" stroke="#111" stroke-width="0.9"/><line x1="104" y1="608" x2="104" y2="557.6" stroke="#111" stroke-width="0.7"/><line x1="100.31" y1="608" x2="107.69" y2="608" stroke="#111" stroke-width="1.0"/><line x1="100.31" y1="557.6" x2="107.69" y2="557.6" stroke="#111" stroke-width="1.0"/><line x1="100.31" y1="546.4" x2="100.31" y2="468" stroke="#111" stroke-width="0.9"/><line x1="107.69" y1="546.4" x2="107.69" y2="468" stroke="#111" stroke-width="0.9"/><line x1="104" y1="546.4" x2="104" y2="468" stroke="#111" stroke-width="0.7"/><line x1="100.31" y1="546.4" x2="107.69" y2="546.4" stroke="#111" stroke-width="1.0"/><line x1="100.31" y1="468" x2="107.69" y2="468" stroke="#111" stroke-width="1.0"/><line x1="126.4" y1="212.31" x2="126.4" y2="219.69" stroke="#111" stroke-width="1.0"/><line x1="193.6" y1="212.31" x2="193.6" y2="219.69" stroke="#111" stroke-width="1.0"/><line x1="126.4" y1="216" x2="126.4" y2="148.8" stroke="#555" stroke-width="1.2"/><path d="M 126.4 148.8 A 67.2 67.2 0 0 0 193.6 216.0" stroke="#777" stroke-width="0.9" fill="none"/><line x1="126.4" y1="324.31" x2="126.4" y2="331.69" stroke="#111" stroke-width="1.0"/><line x1="193.6" y1="324.31" x2="193.6" y2="331.69" stroke="#111" stroke-width="1.0"/><line x1="126.4" y1="328" x2="126.4" y2="260.8" stroke="#555" stroke-width="1.2"/><path d="M 126.4 260.8 A 67.2 67.2 0 0 0 193.6 328.0" stroke="#777" stroke-width="0.9" fill="none"/><line x1="238.4" y1="324.31" x2="238.4" y2="331.69" stroke="#111" stroke-width="1.0"/><line x1="294.4" y1="324.31" x2="294.4" y2="331.69" stroke="#111" stroke-width="1.0"/><line x1="238.4" y1="328" x2="238.4" y2="272" stroke="#555" stroke-width="1.2"/><path d="M 238.4 272.0 A 56.0 56.0 0 0 0 294.4 328.0" stroke="#777" stroke-width="0.9" fill="none"/><line x1="212.31" y1="484.8" x2="219.69" y2="484.8" stroke="#111" stroke-width="1.0"/><line x1="212.31" y1="428.8" x2="219.69" y2="428.8" stroke="#111" stroke-width="1.0"/><line x1="216" y1="484.8" x2="272" y2="484.8" stroke="#555" stroke-width="1.2"/><path d="M 272.0 484.8 A 56.0 56.0 0 0 0 216.0 428.8" stroke="#777" stroke-width="0.9" fill="none"/><line x1="212.31" y1="641.6" x2="219.69" y2="641.6" stroke="#111" stroke-width="1.0"/><line x1="212.31" y1="585.6" x2="219.69" y2="585.6" stroke="#111" stroke-width="1.0"/><line x1="216" y1="641.6" x2="272" y2="641.6" stroke="#555" stroke-width="1.2"/><path d="M 272.0 641.6 A 56.0 56.0 0 0 0 216.0 585.6" stroke="#777" stroke-width="0.9" fill="none"/><line x1="272" y1="438.15" x2="316.8" y2="438.15" stroke="#111" stroke-width="1.6"/><line x1="316.8" y1="441.85" x2="361.6" y2="441.85" stroke="#111" stroke-width="1.6"/><line x1="272" y1="436.31" x2="272" y2="443.69" stroke="#111" stroke-width="1.0"/><line x1="361.6" y1="436.31" x2="361.6" y2="443.69" stroke="#111" stroke-width="1.0"/><line x1="380.31" y1="580" x2="387.69" y2="580" stroke="#111" stroke-width="1.0"/><line x1="380.31" y1="512.8" x2="387.69" y2="512.8" stroke="#111" stroke-width="1.0"/><line x1="384" y1="580" x2="316.8" y2="580" stroke="#555" stroke-width="1.2"/><path d="M 316.8 580.0 A 67.2 67.2 0 0 1 384.0 512.8" stroke="#777" stroke-width="0.9" fill="none"/><rect x="109.6" y="109.6" width="61.6" height="22.4" fill="#fff" stroke="#333" stroke-width="0.85"/><text x="140.4" y="123.8" font-size="7" text-anchor="middle" fill="#333" font-weight="400" font-family="'Hiragino Sans','Hiragino Kaku Gothic ProN','Noto Sans JP','Yu Gothic',Meiryo,'IPAGothic',sans-serif">下足入れ</text><rect x="232.8" y="613.6" width="84" height="33.6" fill="#fff" stroke="#333" stroke-width="0.85"/><ellipse cx="258.0" cy="630.4" rx="9.0" ry="9.0" fill="#fff" stroke="#333" stroke-width="0.85"/><ellipse cx="291.6" cy="637.1" rx="3.4" ry="3.4" fill="#fff" stroke="#333" stroke-width="0.85"/><ellipse cx="291.6" cy="623.7" rx="3.4" ry="3.4" fill="#fff" stroke="#333" stroke-width="0.85"/><ellipse cx="303.9" cy="637.1" rx="3.4" ry="3.4" fill="#fff" stroke="#333" stroke-width="0.85"/><ellipse cx="303.9" cy="623.7" rx="3.4" ry="3.4" fill="#fff" stroke="#333" stroke-width="0.85"/><rect x="316.8" y="613.6" width="33.6" height="33.6" fill="#fff" stroke="#333" stroke-width="0.85"/><text x="333.6" y="633.4" font-size="7.5" text-anchor="middle" fill="#333" font-weight="400" font-family="'Hiragino Sans','Hiragino Kaku Gothic ProN','Noto Sans JP','Yu Gothic',Meiryo,'IPAGothic',sans-serif">冷</text><rect x="333.6" y="451.2" width="39.2" height="56" fill="#fff" stroke="#333" stroke-width="0.85"/><text x="353.2" y="482.2" font-size="7.5" text-anchor="middle" fill="#333" font-weight="400" font-family="'Hiragino Sans','Hiragino Kaku Gothic ProN','Noto Sans JP','Yu Gothic',Meiryo,'IPAGothic',sans-serif">作業台</text><rect x="426" y="588.4" width="67.2" height="28" fill="#fff" stroke="#333" stroke-width="0.85"/><rect x="428.24" y="618.08" width="17.92" height="13.44" fill="#fff" stroke="#333" stroke-width="0.85"/><rect x="428.24" y="573.28" width="17.92" height="13.44" fill="#fff" stroke="#333" stroke-width="0.85"/><rect x="473.04" y="618.08" width="17.92" height="13.44" fill="#fff" stroke="#333" stroke-width="0.85"/><rect x="473.04" y="573.28" width="17.92" height="13.44" fill="#fff" stroke="#333" stroke-width="0.85"/><rect x="496" y="451.2" width="19.6" height="44.8" fill="#fff" stroke="#333" stroke-width="0.85"/><rect x="521.2" y="451.2" width="19.6" height="44.8" fill="#fff" stroke="#333" stroke-width="0.85"/><text x="518.4" y="507.4" font-size="6.5" text-anchor="middle" fill="#333" font-weight="400" font-family="'Hiragino Sans','Hiragino Kaku Gothic ProN','Noto Sans JP','Yu Gothic',Meiryo,'IPAGothic',sans-serif">ロッカー</text><rect x="406.4" y="380.64" width="117.6" height="17.92" fill="#fff" stroke="#333" stroke-width="0.85"/><rect x="406.4" y="263.04" width="117.6" height="17.92" fill="#fff" stroke="#333" stroke-width="0.85"/><rect x="406.4" y="145.44" width="117.6" height="17.92" fill="#fff" stroke="#333" stroke-width="0.85"/><rect x="244" y="212.64" width="117.6" height="17.92" fill="#fff" stroke="#333" stroke-width="0.85"/><rect x="244" y="134.24" width="117.6" height="17.92" fill="#fff" stroke="#333" stroke-width="0.85"/><text x="277.6" y="408" font-size="8" text-anchor="middle" fill="#333" font-weight="400" font-family="'Hiragino Sans','Hiragino Kaku Gothic ProN','Noto Sans JP','Yu Gothic',Meiryo,'IPAGothic',sans-serif">レジ</text><ellipse cx="264.7" cy="408.1" rx="9.5" ry="12.3" fill="#fff" stroke="#333" stroke-width="0.85"/><ellipse cx="290.8" cy="391.8" rx="3.9" ry="3.9" fill="#fff" stroke="#333" stroke-width="0.85"/><line x1="107.69" y1="384" x2="212.31" y2="384" stroke="#111" stroke-width="1.0"/><line x1="160" y1="552" x2="160" y2="384" stroke="#111" stroke-width="1.0"/><line x1="161" y1="396.92" x2="212.31" y2="396.92" stroke="#111" stroke-width="0.7"/><line x1="161" y1="409.85" x2="212.31" y2="409.85" stroke="#111" stroke-width="0.7"/><line x1="161" y1="422.77" x2="212.31" y2="422.77" stroke="#111" stroke-width="0.7"/><line x1="161" y1="435.69" x2="212.31" y2="435.69" stroke="#111" stroke-width="0.7"/><line x1="161" y1="448.62" x2="212.31" y2="448.62" stroke="#111" stroke-width="0.7"/><line x1="161" y1="461.54" x2="212.31" y2="461.54" stroke="#111" stroke-width="0.7"/><line x1="107.69" y1="396.92" x2="159" y2="396.92" stroke="#111" stroke-width="0.7"/><line x1="107.69" y1="409.85" x2="159" y2="409.85" stroke="#111" stroke-width="0.7"/><line x1="107.69" y1="422.77" x2="159" y2="422.77" stroke="#111" stroke-width="0.7"/><line x1="107.69" y1="435.69" x2="159" y2="435.69" stroke="#111" stroke-width="0.7"/><line x1="107.69" y1="448.62" x2="159" y2="448.62" stroke="#111" stroke-width="0.7"/><line x1="107.69" y1="461.54" x2="159" y2="461.54" stroke="#111" stroke-width="0.7"/><line x1="107.69" y1="474.46" x2="159" y2="474.46" stroke="#111" stroke-width="0.7"/><line x1="188" y1="473.86" x2="188" y2="398.72" stroke="#111" stroke-width="1.2"/><polygon points="188,390.72 184,398.72 192,398.72" fill="#111"/><text x="188" y="485.86" font-size="9" text-anchor="middle" fill="#111" font-weight="700" font-family="'Hiragino Sans','Hiragino Kaku Gothic ProN','Noto Sans JP','Yu Gothic',Meiryo,'IPAGothic',sans-serif">UP</text><line x1="162.8" y1="454.62" x2="213.2" y2="442.62" stroke="#111" stroke-width="0.9"/><line x1="162.8" y1="459.62" x2="213.2" y2="447.62" stroke="#111" stroke-width="0.9"/><rect x="107" y="331" width="106" height="218" fill="none" stroke="#111" stroke-width="1.0" stroke-dasharray="7 3 2 3"/><text x="160" y="341" font-size="7.5" text-anchor="middle" fill="#333" font-weight="400" font-family="'Hiragino Sans','Hiragino Kaku Gothic ProN','Noto Sans JP','Yu Gothic',Meiryo,'IPAGothic',sans-serif">竪穴区画</text><polygon points="97,636 87,630.5 87,641.5" fill="#fff" stroke="#111" stroke-width="1.1"/><polygon points="97,398 87,392.5 87,403.5" fill="#fff" stroke="#111" stroke-width="1.1"/><polygon points="97,216 87,210.5 87,221.5" fill="#fff" stroke="#111" stroke-width="1.1"/><polygon points="223,378.4 233,372.9 233,383.9" fill="#fff" stroke="#111" stroke-width="1.1"/><polygon points="223,216 233,210.5 233,221.5" fill="#fff" stroke="#111" stroke-width="1.1"/><polygon points="391,622 401,616.5 401,627.5" fill="#fff" stroke="#111" stroke-width="1.1"/><polygon points="559,636 569,630.5 569,641.5" fill="#fff" stroke="#111" stroke-width="1.1"/><polygon points="559,440 569,434.5 569,445.5" fill="#fff" stroke="#111" stroke-width="1.1"/><polygon points="559,132 569,126.5 569,137.5" fill="#fff" stroke="#111" stroke-width="1.1"/><polygon points="160,671 154.5,681 165.5,681" fill="#fff" stroke="#111" stroke-width="1.1"/><polygon points="244,671 238.5,681 249.5,681" fill="#fff" stroke="#111" stroke-width="1.1"/><polygon points="414.8,671 409.3,681 420.3,681" fill="#fff" stroke="#111" stroke-width="1.1"/><polygon points="160,545 154.5,535 165.5,535" fill="#fff" stroke="#111" stroke-width="1.1"/><polygon points="132,97 126.5,87 137.5,87" fill="#fff" stroke="#111" stroke-width="1.1"/><polygon points="244,97 238.5,87 249.5,87" fill="#fff" stroke="#111" stroke-width="1.1"/><polygon points="426,97 420.5,87 431.5,87" fill="#fff" stroke="#111" stroke-width="1.1"/><rect x="212.31" y="660.31" width="7.38" height="7.38" fill="#111"/><rect x="380.31" y="660.31" width="7.38" height="7.38" fill="#111"/><rect x="100.31" y="548.31" width="7.38" height="7.38" fill="#111"/><rect x="548.31" y="548.31" width="7.38" height="7.38" fill="#111"/><rect x="100.31" y="324.31" width="7.38" height="7.38" fill="#111"/><rect x="548.31" y="324.31" width="7.38" height="7.38" fill="#111"/><rect x="212.31" y="100.31" width="7.38" height="7.38" fill="#111"/><rect x="380.31" y="100.31" width="7.38" height="7.38" fill="#111"/><rect x="212.31" y="548.31" width="7.38" height="7.38" fill="#111"/><rect x="380.31" y="548.31" width="7.38" height="7.38" fill="#111"/><rect x="212.31" y="324.31" width="7.38" height="7.38" fill="#111"/><rect x="380.31" y="324.31" width="7.38" height="7.38" fill="#111"/><rect x="100.31" y="660.31" width="7.38" height="7.38" fill="#111"/><circle cx="104" cy="664" r="8" fill="none" stroke="#111" stroke-width="1.2"/><rect x="548.31" y="660.31" width="7.38" height="7.38" fill="#111"/><circle cx="552" cy="664" r="8" fill="none" stroke="#111" stroke-width="1.2"/><rect x="100.31" y="100.31" width="7.38" height="7.38" fill="#111"/><circle cx="104" cy="104" r="8" fill="none" stroke="#111" stroke-width="1.2"/><rect x="548.31" y="100.31" width="7.38" height="7.38" fill="#111"/><circle cx="552" cy="104" r="8" fill="none" stroke="#111" stroke-width="1.2"/><polygon points="325.2,97 319.2,85 331.2,85" fill="#111"/><polygon points="185.2,97 179.2,85 191.2,85" fill="#111"/><polygon points="325.2,671 319.2,683 331.2,683" fill="#111"/><text x="160" y="595.04" font-size="10" text-anchor="middle" fill="#111" font-weight="700" font-family="'Hiragino Sans','Hiragino Kaku Gothic ProN','Noto Sans JP','Yu Gothic',Meiryo,'IPAGothic',sans-serif">倉　庫</text><text x="160" y="608.04" font-size="9" text-anchor="middle" fill="#111" font-weight="400" font-family="'Hiragino Sans','Hiragino Kaku Gothic ProN','Noto Sans JP','Yu Gothic',Meiryo,'IPAGothic',sans-serif">3.31㎡</text><text x="160" y="513.28" font-size="10" text-anchor="middle" fill="#111" font-weight="700" font-family="'Hiragino Sans','Hiragino Kaku Gothic ProN','Noto Sans JP','Yu Gothic',Meiryo,'IPAGothic',sans-serif">階　段</text><text x="160" y="526.28" font-size="9" text-anchor="middle" fill="#111" font-weight="400" font-family="'Hiragino Sans','Hiragino Kaku Gothic ProN','Noto Sans JP','Yu Gothic',Meiryo,'IPAGothic',sans-serif">6.62㎡</text><text x="160" y="259.04" font-size="10" text-anchor="middle" fill="#111" font-weight="700" font-family="'Hiragino Sans','Hiragino Kaku Gothic ProN','Noto Sans JP','Yu Gothic',Meiryo,'IPAGothic',sans-serif">廊　下</text><text x="160" y="272.04" font-size="9" text-anchor="middle" fill="#111" font-weight="400" font-family="'Hiragino Sans','Hiragino Kaku Gothic ProN','Noto Sans JP','Yu Gothic',Meiryo,'IPAGothic',sans-serif">3.31㎡</text><text x="160" y="284.04" font-size="8.5" text-anchor="middle" fill="#333" font-weight="400" font-family="'Hiragino Sans','Hiragino Kaku Gothic ProN','Noto Sans JP','Yu Gothic',Meiryo,'IPAGothic',sans-serif">GL＋550</text><text x="160" y="147.04" font-size="10" text-anchor="middle" fill="#111" font-weight="700" font-family="'Hiragino Sans','Hiragino Kaku Gothic ProN','Noto Sans JP','Yu Gothic',Meiryo,'IPAGothic',sans-serif">住宅玄関</text><text x="160" y="160.04" font-size="9" text-anchor="middle" fill="#111" font-weight="400" font-family="'Hiragino Sans','Hiragino Kaku Gothic ProN','Noto Sans JP','Yu Gothic',Meiryo,'IPAGothic',sans-serif">3.31㎡</text><text x="160" y="172.04" font-size="8.5" text-anchor="middle" fill="#333" font-weight="400" font-family="'Hiragino Sans','Hiragino Kaku Gothic ProN','Noto Sans JP','Yu Gothic',Meiryo,'IPAGothic',sans-serif">GL＋550</text><text x="300" y="503.2" font-size="10" text-anchor="middle" fill="#111" font-weight="700" font-family="'Hiragino Sans','Hiragino Kaku Gothic ProN','Noto Sans JP','Yu Gothic',Meiryo,'IPAGothic',sans-serif">厨房・作業場</text><text x="300" y="516.2" font-size="9" text-anchor="middle" fill="#111" font-weight="400" font-family="'Hiragino Sans','Hiragino Kaku Gothic ProN','Noto Sans JP','Yu Gothic',Meiryo,'IPAGothic',sans-serif">9.93㎡</text><text x="300" y="528.2" font-size="8.5" text-anchor="middle" fill="#333" font-weight="400" font-family="'Hiragino Sans','Hiragino Kaku Gothic ProN','Noto Sans JP','Yu Gothic',Meiryo,'IPAGothic',sans-serif">GL＋550</text><text x="468" y="503.2" font-size="10" text-anchor="middle" fill="#111" font-weight="700" font-family="'Hiragino Sans','Hiragino Kaku Gothic ProN','Noto Sans JP','Yu Gothic',Meiryo,'IPAGothic',sans-serif">スタッフルーム</text><text x="468" y="516.2" font-size="9" text-anchor="middle" fill="#111" font-weight="400" font-family="'Hiragino Sans','Hiragino Kaku Gothic ProN','Noto Sans JP','Yu Gothic',Meiryo,'IPAGothic',sans-serif">9.93㎡</text><text x="468" y="528.2" font-size="8.5" text-anchor="middle" fill="#333" font-weight="400" font-family="'Hiragino Sans','Hiragino Kaku Gothic ProN','Noto Sans JP','Yu Gothic',Meiryo,'IPAGothic',sans-serif">GL＋550</text><text x="384" y="200.8" font-size="11.5" text-anchor="middle" fill="#111" font-weight="700" font-family="'Hiragino Sans','Hiragino Kaku Gothic ProN','Noto Sans JP','Yu Gothic',Meiryo,'IPAGothic',sans-serif">店舗売場</text><text x="384" y="213.8" font-size="9" text-anchor="middle" fill="#111" font-weight="400" font-family="'Hiragino Sans','Hiragino Kaku Gothic ProN','Noto Sans JP','Yu Gothic',Meiryo,'IPAGothic',sans-serif">26.49㎡</text><text x="384" y="225.8" font-size="8.5" text-anchor="middle" fill="#333" font-weight="400" font-family="'Hiragino Sans','Hiragino Kaku Gothic ProN','Noto Sans JP','Yu Gothic',Meiryo,'IPAGothic',sans-serif">GL＋550</text><text x="272" y="371.04" font-size="10" text-anchor="middle" fill="#111" font-weight="700" font-family="'Hiragino Sans','Hiragino Kaku Gothic ProN','Noto Sans JP','Yu Gothic',Meiryo,'IPAGothic',sans-serif">店舗用便所</text><text x="272" y="384.04" font-size="9" text-anchor="middle" fill="#111" font-weight="400" font-family="'Hiragino Sans','Hiragino Kaku Gothic ProN','Noto Sans JP','Yu Gothic',Meiryo,'IPAGothic',sans-serif">3.31㎡</text><circle cx="104" cy="64" r="9" fill="#fff" stroke="#111" stroke-width="0.9"/><text x="104" y="68" font-size="10" text-anchor="middle" fill="#111" font-weight="700" font-family="'Hiragino Sans','Hiragino Kaku Gothic ProN','Noto Sans JP','Yu Gothic',Meiryo,'IPAGothic',sans-serif">A</text><circle cx="216" cy="64" r="9" fill="#fff" stroke="#111" stroke-width="0.9"/><text x="216" y="68" font-size="10" text-anchor="middle" fill="#111" font-weight="700" font-family="'Hiragino Sans','Hiragino Kaku Gothic ProN','Noto Sans JP','Yu Gothic',Meiryo,'IPAGothic',sans-serif">B</text><circle cx="384" cy="64" r="9" fill="#fff" stroke="#111" stroke-width="0.9"/><text x="384" y="68" font-size="10" text-anchor="middle" fill="#111" font-weight="700" font-family="'Hiragino Sans','Hiragino Kaku Gothic ProN','Noto Sans JP','Yu Gothic',Meiryo,'IPAGothic',sans-serif">C</text><circle cx="552" cy="64" r="9" fill="#fff" stroke="#111" stroke-width="0.9"/><text x="552" y="68" font-size="10" text-anchor="middle" fill="#111" font-weight="700" font-family="'Hiragino Sans','Hiragino Kaku Gothic ProN','Noto Sans JP','Yu Gothic',Meiryo,'IPAGothic',sans-serif">D</text><circle cx="64" cy="664" r="9" fill="#fff" stroke="#111" stroke-width="0.9"/><text x="64" y="668" font-size="10" text-anchor="middle" fill="#111" font-weight="700" font-family="'Hiragino Sans','Hiragino Kaku Gothic ProN','Noto Sans JP','Yu Gothic',Meiryo,'IPAGothic',sans-serif">1</text><circle cx="64" cy="552" r="9" fill="#fff" stroke="#111" stroke-width="0.9"/><text x="64" y="556" font-size="10" text-anchor="middle" fill="#111" font-weight="700" font-family="'Hiragino Sans','Hiragino Kaku Gothic ProN','Noto Sans JP','Yu Gothic',Meiryo,'IPAGothic',sans-serif">2</text><circle cx="64" cy="328" r="9" fill="#fff" stroke="#111" stroke-width="0.9"/><text x="64" y="332" font-size="10" text-anchor="middle" fill="#111" font-weight="700" font-family="'Hiragino Sans','Hiragino Kaku Gothic ProN','Noto Sans JP','Yu Gothic',Meiryo,'IPAGothic',sans-serif">3</text><circle cx="64" cy="104" r="9" fill="#fff" stroke="#111" stroke-width="0.9"/><text x="64" y="108" font-size="10" text-anchor="middle" fill="#111" font-weight="700" font-family="'Hiragino Sans','Hiragino Kaku Gothic ProN','Noto Sans JP','Yu Gothic',Meiryo,'IPAGothic',sans-serif">4</text><line x1="104" y1="720" x2="552" y2="720" stroke="#444" stroke-width="0.8"/><line x1="104" y1="716" x2="104" y2="724" stroke="#444" stroke-width="0.8"/><line x1="552" y1="716" x2="552" y2="724" stroke="#444" stroke-width="0.8"/><text x="328" y="715" font-size="11" text-anchor="middle" fill="#444" font-weight="400" font-family="'Hiragino Sans','Hiragino Kaku Gothic ProN','Noto Sans JP','Yu Gothic',Meiryo,'IPAGothic',sans-serif">7,280</text><line x1="604" y1="664" x2="604" y2="104" stroke="#444" stroke-width="0.8"/><line x1="600" y1="664" x2="608" y2="664" stroke="#444" stroke-width="0.8"/><line x1="600" y1="104" x2="608" y2="104" stroke="#444" stroke-width="0.8"/><text x="598" y="388" font-size="11" text-anchor="end" fill="#444" font-weight="400" font-family="'Hiragino Sans','Hiragino Kaku Gothic ProN','Noto Sans JP','Yu Gothic',Meiryo,'IPAGothic',sans-serif">9,100</text><text x="334" y="42" font-size="11" text-anchor="middle" fill="#111" font-weight="700" font-family="'Hiragino Sans','Hiragino Kaku Gothic ProN','Noto Sans JP','Yu Gothic',Meiryo,'IPAGothic',sans-serif">道　路</text><circle cx="638" cy="34" r="12" fill="#fff" stroke="#444" stroke-width="0.9"/><polygon points="638,25 634,41 638,37 642,41" fill="#111"/><text x="638" y="58" font-size="9.5" text-anchor="middle" fill="#111" font-weight="700" font-family="'Hiragino Sans','Hiragino Kaku Gothic ProN','Noto Sans JP','Yu Gothic',Meiryo,'IPAGothic',sans-serif">N</text></svg>