<svg xmlns="http://www.w3.org/2000/svg" viewBox="0 0 758 880.98" width="758" height="880.98" font-family="'Hiragino Sans','Hiragino Kaku Gothic ProN','Noto Sans JP','Yu Gothic',Meiryo,'IPAGothic',sans-serif"><rect width="758" height="880.98" fill="#ffffff"/><text x="379" y="30" font-size="15" text-anchor="middle" fill="#111" font-weight="700" font-family="'Hiragino Sans','Hiragino Kaku Gothic ProN','Noto Sans JP','Yu Gothic',Meiryo,'IPAGothic',sans-serif">南側立面図　縮尺1／100</text><line x1="4" y1="0" x2="4" y2="880.98" stroke="#e0e0e0" stroke-width="0.5"/><line x1="32" y1="0" x2="32" y2="880.98" stroke="#e0e0e0" stroke-width="0.5"/><line x1="60" y1="0" x2="60" y2="880.98" stroke="#e0e0e0" stroke-width="0.5"/><line x1="88" y1="0" x2="88" y2="880.98" stroke="#e0e0e0" stroke-width="0.5"/><line x1="116" y1="0" x2="116" y2="880.98" stroke="#e0e0e0" stroke-width="0.5"/><line x1="144" y1="0" x2="144" y2="880.98" stroke="#e0e0e0" stroke-width="0.5"/><line x1="172" y1="0" x2="172" y2="880.98" stroke="#e0e0e0" stroke-width="0.5"/><line x1="200" y1="0" x2="200" y2="880.98" stroke="#e0e0e0" stroke-width="0.5"/><line x1="228" y1="0" x2="228" y2="880.98" stroke="#e0e0e0" stroke-width="0.5"/><line x1="256" y1="0" x2="256" y2="880.98" stroke="#e0e0e0" stroke-width="0.5"/><line x1="284" y1="0" x2="284" y2="880.98" stroke="#e0e0e0" stroke-width="0.5"/><line x1="312" y1="0" x2="312" y2="880.98" stroke="#e0e0e0" stroke-width="0.5"/><line x1="340" y1="0" x2="340" y2="880.98" stroke="#e0e0e0" stroke-width="0.5"/><line x1="368" y1="0" x2="368" y2="880.98" stroke="#e0e0e0" stroke-width="0.5"/><line x1="396" y1="0" x2="396" y2="880.98" stroke="#e0e0e0" stroke-width="0.5"/><line x1="424" y1="0" x2="424" y2="880.98" stroke="#e0e0e0" stroke-width="0.5"/><line x1="452" y1="0" x2="452" y2="880.98" stroke="#e0e0e0" stroke-width="0.5"/><line x1="480" y1="0" x2="480" y2="880.98" stroke="#e0e0e0" stroke-width="0.5"/><line x1="508" y1="0" x2="508" y2="880.98" stroke="#e0e0e0" stroke-width="0.5"/><line x1="536" y1="0" x2="536" y2="880.98" stroke="#e0e0e0" stroke-width="0.5"/><line x1="564" y1="0" x2="564" y2="880.98" stroke="#e0e0e0" stroke-width="0.5"/><line x1="592" y1="0" x2="592" y2="880.98" stroke="#e0e0e0" stroke-width="0.5"/><line x1="620" y1="0" x2="620" y2="880.98" stroke="#e0e0e0" stroke-width="0.5"/><line x1="648" y1="0" x2="648" y2="880.98" stroke="#e0e0e0" stroke-width="0.5"/><line x1="676" y1="0" x2="676" y2="880.98" stroke="#e0e0e0" stroke-width="0.5"/><line x1="704" y1="0" x2="704" y2="880.98" stroke="#e0e0e0" stroke-width="0.5"/><line x1="732" y1="0" x2="732" y2="880.98" stroke="#e0e0e0" stroke-width="0.5"/><line x1="0" y1="4.98" x2="758" y2="4.98" stroke="#e0e0e0" stroke-width="0.5"/><line x1="0" y1="32.98" x2="758" y2="32.98" stroke="#e0e0e0" stroke-width="0.5"/><line x1="0" y1="60.98" x2="758" y2="60.98" stroke="#e0e0e0" stroke-width="0.5"/><line x1="0" y1="88.98" x2="758" y2="88.98" stroke="#e0e0e0" stroke-width="0.5"/><line x1="0" y1="116.98" x2="758" y2="116.98" stroke="#e0e0e0" stroke-width="0.5"/><line x1="0" y1="144.98" x2="758" y2="144.98" stroke="#e0e0e0" stroke-width="0.5"/><line x1="0" y1="172.98" x2="758" y2="172.98" stroke="#e0e0e0" stroke-width="0.5"/><line x1="0" y1="200.98" x2="758" y2="200.98" stroke="#e0e0e0" stroke-width="0.5"/><line x1="0" y1="228.98" x2="758" y2="228.98" stroke="#e0e0e0" stroke-width="0.5"/><line x1="0" y1="256.98" x2="758" y2="256.98" stroke="#e0e0e0" stroke-width="0.5"/><line x1="0" y1="284.98" x2="758" y2="284.98" stroke="#e0e0e0" stroke-width="0.5"/><line x1="0" y1="312.98" x2="758" y2="312.98" stroke="#e0e0e0" stroke-width="0.5"/><line x1="0" y1="340.98" x2="758" y2="340.98" stroke="#e0e0e0" stroke-width="0.5"/><line x1="0" y1="368.98" x2="758" y2="368.98" stroke="#e0e0e0" stroke-width="0.5"/><line x1="0" y1="396.98" x2="758" y2="396.98" stroke="#e0e0e0" stroke-width="0.5"/><line x1="0" y1="424.98" x2="758" y2="424.98" stroke="#e0e0e0" stroke-width="0.5"/><line x1="0" y1="452.98" x2="758" y2="452.98" stroke="#e0e0e0" stroke-width="0.5"/><line x1="0" y1="480.98" x2="758" y2="480.98" stroke="#e0e0e0" stroke-width="0.5"/><line x1="0" y1="508.98" x2="758" y2="508.98" stroke="#e0e0e0" stroke-width="0.5"/><line x1="0" y1="536.98" x2="758" y2="536.98" stroke="#e0e0e0" stroke-width="0.5"/><line x1="0" y1="564.98" x2="758" y2="564.98" stroke="#e0e0e0" stroke-width="0.5"/><line x1="0" y1="592.98" x2="758" y2="592.98" stroke="#e0e0e0" stroke-width="0.5"/><line x1="0" y1="620.98" x2="758" y2="620.98" stroke="#e0e0e0" stroke-width="0.5"/><line x1="0" y1="648.98" x2="758" y2="648.98" stroke="#e0e0e0" stroke-width="0.5"/><line x1="0" y1="676.98" x2="758" y2="676.98" stroke="#e0e0e0" stroke-width="0.5"/><line x1="0" y1="704.98" x2="758" y2="704.98" stroke="#e0e0e0" stroke-width="0.5"/><line x1="0" y1="732.98" x2="758" y2="732.98" stroke="#e0e0e0" stroke-width="0.5"/><line x1="0" y1="760.98" x2="758" y2="760.98" stroke="#e0e0e0" stroke-width="0.5"/><line x1="0" y1="788.98" x2="758" y2="788.98" stroke="#e0e0e0" stroke-width="0.5"/><line x1="0" y1="816.98" x2="758" y2="816.98" stroke="#e0e0e0" stroke-width="0.5"/><line x1="0" y1="844.98" x2="758" y2="844.98" stroke="#e0e0e0" stroke-width="0.5"/><line x1="0" y1="872.98" x2="758" y2="872.98" stroke="#e0e0e0" stroke-width="0.5"/><line x1="140" y1="760.98" x2="718" y2="760.98" stroke="#111" stroke-width="1.6"/><line x1="140" y1="769.98" x2="146" y2="760.98" stroke="#777" stroke-width="0.7"/><line x1="149" y1="769.98" x2="155" y2="760.98" stroke="#777" stroke-width="0.7"/><line x1="158" y1="769.98" x2="164" y2="760.98" stroke="#777" stroke-width="0.7"/><line x1="167" y1="769.98" x2="173" y2="760.98" stroke="#777" stroke-width="0.7"/><line x1="176" y1="769.98" x2="182" y2="760.98" stroke="#777" stroke-width="0.7"/><line x1="185" y1="769.98" x2="191" y2="760.98" stroke="#777" stroke-width="0.7"/><line x1="194" y1="769.98" x2="200" y2="760.98" stroke="#777" stroke-width="0.7"/><line x1="203" y1="769.98" x2="209" y2="760.98" stroke="#777" stroke-width="0.7"/><line x1="212" y1="769.98" x2="218" y2="760.98" stroke="#777" stroke-width="0.7"/><line x1="221" y1="769.98" x2="227" y2="760.98" stroke="#777" stroke-width="0.7"/><line x1="230" y1="769.98" x2="236" y2="760.98" stroke="#777" stroke-width="0.7"/><line x1="239" y1="769.98" x2="245" y2="760.98" stroke="#777" stroke-width="0.7"/><line x1="248" y1="769.98" x2="254" y2="760.98" stroke="#777" stroke-width="0.7"/><line x1="257" y1="769.98" x2="263" y2="760.98" stroke="#777" stroke-width="0.7"/><line x1="266" y1="769.98" x2="272" y2="760.98" stroke="#777" stroke-width="0.7"/><line x1="275" y1="769.98" x2="281" y2="760.98" stroke="#777" stroke-width="0.7"/><line x1="284" y1="769.98" x2="290" y2="760.98" stroke="#777" stroke-width="0.7"/><line x1="293" y1="769.98" x2="299" y2="760.98" stroke="#777" stroke-width="0.7"/><line x1="302" y1="769.98" x2="308" y2="760.98" stroke="#777" stroke-width="0.7"/><line x1="311" y1="769.98" x2="317" y2="760.98" stroke="#777" stroke-width="0.7"/><line x1="320" y1="769.98" x2="326" y2="760.98" stroke="#777" stroke-width="0.7"/><line x1="329" y1="769.98" x2="335" y2="760.98" stroke="#777" stroke-width="0.7"/><line x1="338" y1="769.98" x2="344" y2="760.98" stroke="#777" stroke-width="0.7"/><line x1="347" y1="769.98" x2="353" y2="760.98" stroke="#777" stroke-width="0.7"/><line x1="356" y1="769.98" x2="362" y2="760.98" stroke="#777" stroke-width="0.7"/><line x1="365" y1="769.98" x2="371" y2="760.98" stroke="#777" stroke-width="0.7"/><line x1="374" y1="769.98" x2="380" y2="760.98" stroke="#777" stroke-width="0.7"/><line x1="383" y1="769.98" x2="389" y2="760.98" stroke="#777" stroke-width="0.7"/><line x1="392" y1="769.98" x2="398" y2="760.98" stroke="#777" stroke-width="0.7"/><line x1="401" y1="769.98" x2="407" y2="760.98" stroke="#777" stroke-width="0.7"/><line x1="410" y1="769.98" x2="416" y2="760.98" stroke="#777" stroke-width="0.7"/><line x1="419" y1="769.98" x2="425" y2="760.98" stroke="#777" stroke-width="0.7"/><line x1="428" y1="769.98" x2="434" y2="760.98" stroke="#777" stroke-width="0.7"/><line x1="437" y1="769.98" x2="443" y2="760.98" stroke="#777" stroke-width="0.7"/><line x1="446" y1="769.98" x2="452" y2="760.98" stroke="#777" stroke-width="0.7"/><line x1="455" y1="769.98" x2="461" y2="760.98" stroke="#777" stroke-width="0.7"/><line x1="464" y1="769.98" x2="470" y2="760.98" stroke="#777" stroke-width="0.7"/><line x1="473" y1="769.98" x2="479" y2="760.98" stroke="#777" stroke-width="0.7"/><line x1="482" y1="769.98" x2="488" y2="760.98" stroke="#777" stroke-width="0.7"/><line x1="491" y1="769.98" x2="497" y2="760.98" stroke="#777" stroke-width="0.7"/><line x1="500" y1="769.98" x2="506" y2="760.98" stroke="#777" stroke-width="0.7"/><line x1="509" y1="769.98" x2="515" y2="760.98" stroke="#777" stroke-width="0.7"/><line x1="518" y1="769.98" x2="524" y2="760.98" stroke="#777" stroke-width="0.7"/><line x1="527" y1="769.98" x2="533" y2="760.98" stroke="#777" stroke-width="0.7"/><line x1="536" y1="769.98" x2="542" y2="760.98" stroke="#777" stroke-width="0.7"/><line x1="545" y1="769.98" x2="551" y2="760.98" stroke="#777" stroke-width="0.7"/><line x1="554" y1="769.98" x2="560" y2="760.98" stroke="#777" stroke-width="0.7"/><line x1="563" y1="769.98" x2="569" y2="760.98" stroke="#777" stroke-width="0.7"/><line x1="572" y1="769.98" x2="578" y2="760.98" stroke="#777" stroke-width="0.7"/><line x1="581" y1="769.98" x2="587" y2="760.98" stroke="#777" stroke-width="0.7"/><line x1="590" y1="769.98" x2="596" y2="760.98" stroke="#777" stroke-width="0.7"/><line x1="599" y1="769.98" x2="605" y2="760.98" stroke="#777" stroke-width="0.7"/><line x1="608" y1="769.98" x2="614" y2="760.98" stroke="#777" stroke-width="0.7"/><line x1="617" y1="769.98" x2="623" y2="760.98" stroke="#777" stroke-width="0.7"/><line x1="626" y1="769.98" x2="632" y2="760.98" stroke="#777" stroke-width="0.7"/><line x1="635" y1="769.98" x2="641" y2="760.98" stroke="#777" stroke-width="0.7"/><line x1="644" y1="769.98" x2="650" y2="760.98" stroke="#777" stroke-width="0.7"/><line x1="653" y1="769.98" x2="659" y2="760.98" stroke="#777" stroke-width="0.7"/><line x1="662" y1="769.98" x2="668" y2="760.98" stroke="#777" stroke-width="0.7"/><line x1="671" y1="769.98" x2="677" y2="760.98" stroke="#777" stroke-width="0.7"/><line x1="680" y1="769.98" x2="686" y2="760.98" stroke="#777" stroke-width="0.7"/><line x1="689" y1="769.98" x2="695" y2="760.98" stroke="#777" stroke-width="0.7"/><line x1="698" y1="769.98" x2="704" y2="760.98" stroke="#777" stroke-width="0.7"/><line x1="707" y1="769.98" x2="713" y2="760.98" stroke="#777" stroke-width="0.7"/><text x="138" y="754.98" font-size="10" text-anchor="end" fill="#111" font-weight="700" font-family="'Hiragino Sans','Hiragino Kaku Gothic ProN','Noto Sans JP','Yu Gothic',Meiryo,'IPAGothic',sans-serif">G.L.</text><rect x="197" y="727.14" width="454" height="33.85" fill="#fff" stroke="#111" stroke-width="1.2"/><rect x="200" y="185.6" width="448" height="541.54" fill="#fff" stroke="#111" stroke-width="1.6"/><polyline points="163.08,185.6 424,96 684.92,185.6" stroke="#111" stroke-width="1.6" fill="none"/><polyline points="163.08,197.53 424,107.93 684.92,197.53" stroke="#111" stroke-width="1.2" fill="none"/><line x1="163.08" y1="185.6" x2="163.08" y2="197.53" stroke="#111" stroke-width="1.2"/><line x1="684.92" y1="185.6" x2="684.92" y2="197.53" stroke="#111" stroke-width="1.2"/><text x="470" y="136" font-size="9" text-anchor="start" fill="#111" font-weight="400" font-family="'Hiragino Sans','Hiragino Kaku Gothic ProN','Noto Sans JP','Yu Gothic',Meiryo,'IPAGothic',sans-serif">4 / 10（4寸勾配）</text><rect x="368" y="604.06" width="106.4" height="123.08" fill="#fff" stroke="#111" stroke-width="1.3"/><rect x="371" y="607.06" width="100.4" height="117.08" fill="none" stroke="#111" stroke-width="0.9"/><line x1="421.2" y1="607.06" x2="421.2" y2="724.14" stroke="#111" stroke-width="0.9"/><rect x="256" y="604.06" width="50.4" height="123.08" fill="#fff" stroke="#111" stroke-width="1.3"/><rect x="259" y="607.06" width="44.4" height="117.08" fill="none" stroke="#111" stroke-width="0.9"/><line x1="281.2" y1="607.06" x2="281.2" y2="724.14" stroke="#111" stroke-width="0.9"/><rect x="558.4" y="597.91" width="84" height="80" fill="#fff" stroke="#111" stroke-width="1.3"/><rect x="561.4" y="600.91" width="78" height="74" fill="none" stroke="#111" stroke-width="0.9"/><line x1="600.4" y1="600.91" x2="600.4" y2="674.91" stroke="#111" stroke-width="0.9"/><rect x="368" y="413.29" width="106.4" height="123.08" fill="#fff" stroke="#111" stroke-width="1.3"/><rect x="371" y="416.29" width="100.4" height="117.08" fill="none" stroke="#111" stroke-width="0.9"/><line x1="421.2" y1="416.29" x2="421.2" y2="533.37" stroke="#111" stroke-width="0.9"/><rect x="362" y="468.68" width="118.4" height="67.69" fill="none" stroke="#111" stroke-width="1.3"/><line x1="381.73" y1="536.37" x2="381.73" y2="468.68" stroke="#111" stroke-width="0.7"/><line x1="401.47" y1="536.37" x2="401.47" y2="468.68" stroke="#111" stroke-width="0.7"/><line x1="421.2" y1="536.37" x2="421.2" y2="468.68" stroke="#111" stroke-width="0.7"/><line x1="440.93" y1="536.37" x2="440.93" y2="468.68" stroke="#111" stroke-width="0.7"/><line x1="460.67" y1="536.37" x2="460.67" y2="468.68" stroke="#111" stroke-width="0.7"/><rect x="558.4" y="407.14" width="84" height="80" fill="#fff" stroke="#111" stroke-width="1.3"/><rect x="561.4" y="410.14" width="78" height="74" fill="none" stroke="#111" stroke-width="0.9"/><line x1="600.4" y1="410.14" x2="600.4" y2="484.14" stroke="#111" stroke-width="0.9"/><rect x="256" y="407.14" width="50.4" height="80" fill="#fff" stroke="#111" stroke-width="1.3"/><rect x="259" y="410.14" width="44.4" height="74" fill="none" stroke="#111" stroke-width="0.9"/><line x1="281.2" y1="410.14" x2="281.2" y2="484.14" stroke="#111" stroke-width="0.9"/><rect x="373.6" y="228.68" width="100.8" height="80" fill="#fff" stroke="#111" stroke-width="1.3"/><rect x="376.6" y="231.68" width="94.8" height="74" fill="none" stroke="#111" stroke-width="0.9"/><line x1="424" y1="231.68" x2="424" y2="305.68" stroke="#111" stroke-width="0.9"/><rect x="541.6" y="228.68" width="100.8" height="80" fill="#fff" stroke="#111" stroke-width="1.3"/><rect x="544.6" y="231.68" width="94.8" height="74" fill="none" stroke="#111" stroke-width="0.9"/><line x1="592" y1="231.68" x2="592" y2="305.68" stroke="#111" stroke-width="0.9"/><rect x="256" y="228.68" width="50.4" height="80" fill="#fff" stroke="#111" stroke-width="1.3"/><rect x="259" y="231.68" width="44.4" height="74" fill="none" stroke="#111" stroke-width="0.9"/><line x1="281.2" y1="231.68" x2="281.2" y2="305.68" stroke="#111" stroke-width="0.9"/><line x1="104" y1="96" x2="196" y2="96" stroke="#111" stroke-width="0.8" stroke-dasharray="10 3 2 3"/><text x="100" y="92" font-size="9.5" text-anchor="end" fill="#111" font-weight="700" font-family="'Hiragino Sans','Hiragino Kaku Gothic ProN','Noto Sans JP','Yu Gothic',Meiryo,'IPAGothic',sans-serif">▽最高の高さ</text><text x="100" y="105" font-size="8.5" text-anchor="end" fill="#333" font-weight="400" font-family="'Hiragino Sans','Hiragino Kaku Gothic ProN','Noto Sans JP','Yu Gothic',Meiryo,'IPAGothic',sans-serif">GL＋10,806</text><line x1="104" y1="185.6" x2="196" y2="185.6" stroke="#111" stroke-width="0.8" stroke-dasharray="10 3 2 3"/><text x="100" y="181.6" font-size="9.5" text-anchor="end" fill="#111" font-weight="700" font-family="'Hiragino Sans','Hiragino Kaku Gothic ProN','Noto Sans JP','Yu Gothic',Meiryo,'IPAGothic',sans-serif">▽軒高</text><text x="100" y="194.6" font-size="8.5" text-anchor="end" fill="#333" font-weight="400" font-family="'Hiragino Sans','Hiragino Kaku Gothic ProN','Noto Sans JP','Yu Gothic',Meiryo,'IPAGothic',sans-serif">GL＋9,350</text><line x1="104" y1="357.91" x2="196" y2="357.91" stroke="#111" stroke-width="0.8" stroke-dasharray="10 3 2 3"/><text x="100" y="353.91" font-size="9.5" text-anchor="end" fill="#111" font-weight="700" font-family="'Hiragino Sans','Hiragino Kaku Gothic ProN','Noto Sans JP','Yu Gothic',Meiryo,'IPAGothic',sans-serif">3FL</text><text x="100" y="366.91" font-size="8.5" text-anchor="end" fill="#333" font-weight="400" font-family="'Hiragino Sans','Hiragino Kaku Gothic ProN','Noto Sans JP','Yu Gothic',Meiryo,'IPAGothic',sans-serif">GL＋6,550</text><line x1="104" y1="536.37" x2="196" y2="536.37" stroke="#111" stroke-width="0.8" stroke-dasharray="10 3 2 3"/><text x="100" y="532.37" font-size="9.5" text-anchor="end" fill="#111" font-weight="700" font-family="'Hiragino Sans','Hiragino Kaku Gothic ProN','Noto Sans JP','Yu Gothic',Meiryo,'IPAGothic',sans-serif">2FL</text><text x="100" y="545.37" font-size="8.5" text-anchor="end" fill="#333" font-weight="400" font-family="'Hiragino Sans','Hiragino Kaku Gothic ProN','Noto Sans JP','Yu Gothic',Meiryo,'IPAGothic',sans-serif">GL＋3,650</text><line x1="104" y1="727.14" x2="196" y2="727.14" stroke="#111" stroke-width="0.8" stroke-dasharray="10 3 2 3"/><text x="100" y="723.14" font-size="9.5" text-anchor="end" fill="#111" font-weight="700" font-family="'Hiragino Sans','Hiragino Kaku Gothic ProN','Noto Sans JP','Yu Gothic',Meiryo,'IPAGothic',sans-serif">1FL</text><text x="100" y="736.14" font-size="8.5" text-anchor="end" fill="#333" font-weight="400" font-family="'Hiragino Sans','Hiragino Kaku Gothic ProN','Noto Sans JP','Yu Gothic',Meiryo,'IPAGothic',sans-serif">GL＋550</text><line x1="694" y1="760.98" x2="694" y2="96" stroke="#444" stroke-width="0.8"/><line x1="690" y1="760.98" x2="698" y2="760.98" stroke="#444" stroke-width="0.8"/><line x1="690" y1="96" x2="698" y2="96" stroke="#444" stroke-width="0.8"/><text x="700" y="432.49" font-size="11" text-anchor="start" fill="#444" font-weight="400" font-family="'Hiragino Sans','Hiragino Kaku Gothic ProN','Noto Sans JP','Yu Gothic',Meiryo,'IPAGothic',sans-serif">10,806</text><line x1="668" y1="760.98" x2="668" y2="185.6" stroke="#444" stroke-width="0.8"/><line x1="664" y1="760.98" x2="672" y2="760.98" stroke="#444" stroke-width="0.8"/><line x1="664" y1="185.6" x2="672" y2="185.6" stroke="#444" stroke-width="0.8"/><text x="673" y="477.29" font-size="9" text-anchor="start" fill="#444" font-weight="400" font-family="'Hiragino Sans','Hiragino Kaku Gothic ProN','Noto Sans JP','Yu Gothic',Meiryo,'IPAGothic',sans-serif">9,350</text><line x1="200" y1="806.98" x2="648" y2="806.98" stroke="#444" stroke-width="0.8"/><line x1="200" y1="802.98" x2="200" y2="810.98" stroke="#444" stroke-width="0.8"/><line x1="648" y1="802.98" x2="648" y2="810.98" stroke="#444" stroke-width="0.8"/><text x="424" y="801.98" font-size="11" text-anchor="middle" fill="#444" font-weight="400" font-family="'Hiragino Sans','Hiragino Kaku Gothic ProN','Noto Sans JP','Yu Gothic',Meiryo,'IPAGothic',sans-serif">7,280</text></svg>