<svg xmlns="http://www.w3.org/2000/svg" viewBox="0 0 660 904" width="660" height="904" font-family="'Hiragino Sans','Hiragino Kaku Gothic ProN','Noto Sans JP','Yu Gothic',Meiryo,'IPAGothic',sans-serif"><rect width="660" height="904" fill="#ffffff"/><text x="330" y="36" font-size="21" text-anchor="middle" fill="#111" font-weight="700" font-family="'Hiragino Sans','Hiragino Kaku Gothic ProN','Noto Sans JP','Yu Gothic',Meiryo,'IPAGothic',sans-serif">予想問題　F 解答例　1階平面図 兼 配置図（北側道路）</text><text x="330" y="60" font-size="12" text-anchor="middle" fill="#666" font-weight="400" font-family="'Hiragino Sans','Hiragino Kaku Gothic ProN','Noto Sans JP','Yu Gothic',Meiryo,'IPAGothic',sans-serif">1マス = 910mm ／ 間口 7,280 × 奥行 9,100 ／ 床面積 66.24㎡</text><line x1="100" y1="182" x2="100" y2="742" stroke="#e8e8e8" stroke-width="0.7"/><line x1="156" y1="182" x2="156" y2="742" stroke="#e8e8e8" stroke-width="0.7"/><line x1="212" y1="182" x2="212" y2="742" stroke="#e8e8e8" stroke-width="0.7"/><line x1="268" y1="182" x2="268" y2="742" stroke="#e8e8e8" stroke-width="0.7"/><line x1="324" y1="182" x2="324" y2="742" stroke="#e8e8e8" stroke-width="0.7"/><line x1="380" y1="182" x2="380" y2="742" stroke="#e8e8e8" stroke-width="0.7"/><line x1="436" y1="182" x2="436" y2="742" stroke="#e8e8e8" stroke-width="0.7"/><line x1="492" y1="182" x2="492" y2="742" stroke="#e8e8e8" stroke-width="0.7"/><line x1="548" y1="182" x2="548" y2="742" stroke="#e8e8e8" stroke-width="0.7"/><line x1="100" y1="742" x2="548" y2="742" stroke="#e8e8e8" stroke-width="0.7"/><line x1="100" y1="686" x2="548" y2="686" stroke="#e8e8e8" stroke-width="0.7"/><line x1="100" y1="630" x2="548" y2="630" stroke="#e8e8e8" stroke-width="0.7"/><line x1="100" y1="574" x2="548" y2="574" stroke="#e8e8e8" stroke-width="0.7"/><line x1="100" y1="518" x2="548" y2="518" stroke="#e8e8e8" stroke-width="0.7"/><line x1="100" y1="462" x2="548" y2="462" stroke="#e8e8e8" stroke-width="0.7"/><line x1="100" y1="406" x2="548" y2="406" stroke="#e8e8e8" stroke-width="0.7"/><line x1="100" y1="350" x2="548" y2="350" stroke="#e8e8e8" stroke-width="0.7"/><line x1="100" y1="294" x2="548" y2="294" stroke="#e8e8e8" stroke-width="0.7"/><line x1="100" y1="238" x2="548" y2="238" stroke="#e8e8e8" stroke-width="0.7"/><line x1="100" y1="182" x2="548" y2="182" stroke="#e8e8e8" stroke-width="0.7"/><rect x="100" y="630" width="112" height="112" fill="#ececec" stroke="#8a8a8a" stroke-width="1.2" opacity="0.95"/><text x="156" y="684" font-size="13" text-anchor="middle" fill="#1a1a1a" font-weight="700" font-family="'Hiragino Sans','Hiragino Kaku Gothic ProN','Noto Sans JP','Yu Gothic',Meiryo,'IPAGothic',sans-serif">倉　庫</text><text x="156" y="701" font-size="11" text-anchor="middle" fill="#555" font-weight="400" font-family="'Hiragino Sans','Hiragino Kaku Gothic ProN','Noto Sans JP','Yu Gothic',Meiryo,'IPAGothic',sans-serif">3.31 ㎡</text><rect x="100" y="406" width="112" height="224" fill="#fff3c4" stroke="#bb9508" stroke-width="1.2" opacity="0.95"/><text x="156" y="593.28" font-size="13" text-anchor="middle" fill="#1a1a1a" font-weight="700" font-family="'Hiragino Sans','Hiragino Kaku Gothic ProN','Noto Sans JP','Yu Gothic',Meiryo,'IPAGothic',sans-serif">階　段</text><text x="156" y="610.28" font-size="11" text-anchor="middle" fill="#555" font-weight="400" font-family="'Hiragino Sans','Hiragino Kaku Gothic ProN','Noto Sans JP','Yu Gothic',Meiryo,'IPAGothic',sans-serif">6.62 ㎡</text><rect x="100" y="294" width="112" height="112" fill="#f1e6fa" stroke="#8b62b5" stroke-width="1.2" opacity="0.95"/><text x="156" y="348" font-size="13" text-anchor="middle" fill="#1a1a1a" font-weight="700" font-family="'Hiragino Sans','Hiragino Kaku Gothic ProN','Noto Sans JP','Yu Gothic',Meiryo,'IPAGothic',sans-serif">廊　下</text><text x="156" y="365" font-size="11" text-anchor="middle" fill="#555" font-weight="400" font-family="'Hiragino Sans','Hiragino Kaku Gothic ProN','Noto Sans JP','Yu Gothic',Meiryo,'IPAGothic',sans-serif">3.31 ㎡</text><rect x="100" y="182" width="112" height="112" fill="#f1e6fa" stroke="#8b62b5" stroke-width="1.2" opacity="0.95"/><text x="156" y="236" font-size="13" text-anchor="middle" fill="#1a1a1a" font-weight="700" font-family="'Hiragino Sans','Hiragino Kaku Gothic ProN','Noto Sans JP','Yu Gothic',Meiryo,'IPAGothic',sans-serif">住宅玄関</text><text x="156" y="253" font-size="11" text-anchor="middle" fill="#555" font-weight="400" font-family="'Hiragino Sans','Hiragino Kaku Gothic ProN','Noto Sans JP','Yu Gothic',Meiryo,'IPAGothic',sans-serif">3.31 ㎡</text><rect x="212" y="518" width="168" height="224" fill="#ffe6d0" stroke="#c9762f" stroke-width="1.2" opacity="0.95"/><text x="296" y="628" font-size="13" text-anchor="middle" fill="#1a1a1a" font-weight="700" font-family="'Hiragino Sans','Hiragino Kaku Gothic ProN','Noto Sans JP','Yu Gothic',Meiryo,'IPAGothic',sans-serif">厨房・作業場</text><text x="296" y="645" font-size="11" text-anchor="middle" fill="#555" font-weight="400" font-family="'Hiragino Sans','Hiragino Kaku Gothic ProN','Noto Sans JP','Yu Gothic',Meiryo,'IPAGothic',sans-serif">9.93 ㎡</text><rect x="380" y="518" width="168" height="224" fill="#ffe6d0" stroke="#c9762f" stroke-width="1.2" opacity="0.95"/><text x="464" y="628" font-size="13" text-anchor="middle" fill="#1a1a1a" font-weight="700" font-family="'Hiragino Sans','Hiragino Kaku Gothic ProN','Noto Sans JP','Yu Gothic',Meiryo,'IPAGothic',sans-serif">スタッフルーム</text><text x="464" y="645" font-size="11" text-anchor="middle" fill="#555" font-weight="400" font-family="'Hiragino Sans','Hiragino Kaku Gothic ProN','Noto Sans JP','Yu Gothic',Meiryo,'IPAGothic',sans-serif">9.93 ㎡</text><rect x="212" y="182" width="336" height="336" fill="#ffe6d0" stroke="#c9762f" stroke-width="1.2" opacity="0.95"/><text x="380" y="348" font-size="16" text-anchor="middle" fill="#1a1a1a" font-weight="700" font-family="'Hiragino Sans','Hiragino Kaku Gothic ProN','Noto Sans JP','Yu Gothic',Meiryo,'IPAGothic',sans-serif">店舗売場</text><text x="380" y="367" font-size="12" text-anchor="middle" fill="#555" font-weight="400" font-family="'Hiragino Sans','Hiragino Kaku Gothic ProN','Noto Sans JP','Yu Gothic',Meiryo,'IPAGothic',sans-serif">26.49 ㎡</text><rect x="212" y="406" width="112" height="112" fill="#d5f0e7" stroke="#2f9077" stroke-width="1.2" opacity="0.95"/><text x="268" y="460" font-size="13" text-anchor="middle" fill="#1a1a1a" font-weight="700" font-family="'Hiragino Sans','Hiragino Kaku Gothic ProN','Noto Sans JP','Yu Gothic',Meiryo,'IPAGothic',sans-serif">店舗用便所</text><text x="268" y="477" font-size="11" text-anchor="middle" fill="#555" font-weight="400" font-family="'Hiragino Sans','Hiragino Kaku Gothic ProN','Noto Sans JP','Yu Gothic',Meiryo,'IPAGothic',sans-serif">3.31 ㎡</text><line x1="100" y1="164" x2="100" y2="768" stroke="#b03060" stroke-width="0.9" stroke-dasharray="9 3 2 3" opacity="0.55"/><line x1="212" y1="164" x2="212" y2="768" stroke="#b03060" stroke-width="0.9" stroke-dasharray="9 3 2 3" opacity="0.55"/><line x1="380" y1="164" x2="380" y2="768" stroke="#b03060" stroke-width="0.9" stroke-dasharray="9 3 2 3" opacity="0.55"/><line x1="548" y1="164" x2="548" y2="768" stroke="#b03060" stroke-width="0.9" stroke-dasharray="9 3 2 3" opacity="0.55"/><line x1="82" y1="742" x2="574" y2="742" stroke="#b03060" stroke-width="0.9" stroke-dasharray="9 3 2 3" opacity="0.55"/><line x1="82" y1="630" x2="574" y2="630" stroke="#b03060" stroke-width="0.9" stroke-dasharray="9 3 2 3" opacity="0.55"/><line x1="82" y1="406" x2="574" y2="406" stroke="#b03060" stroke-width="0.9" stroke-dasharray="9 3 2 3" opacity="0.55"/><line x1="82" y1="182" x2="574" y2="182" stroke="#b03060" stroke-width="0.9" stroke-dasharray="9 3 2 3" opacity="0.55"/><rect x="100" y="182" width="448" height="560" stroke="#111" stroke-width="3.4" fill="none"/><line x1="268" y1="182" x2="374.4" y2="182" stroke="#ffffff" stroke-width="4.2"/><line x1="268" y1="182" x2="374.4" y2="182" stroke="#d0342f" stroke-width="5.0"/><text x="321.2" y="172" font-size="11" text-anchor="middle" fill="#d0342f" font-weight="700" font-family="'Hiragino Sans','Hiragino Kaku Gothic ProN','Noto Sans JP','Yu Gothic',Meiryo,'IPAGothic',sans-serif">店舗出入口</text><line x1="156" y1="182" x2="206.4" y2="182" stroke="#ffffff" stroke-width="4.2"/><line x1="156" y1="182" x2="206.4" y2="182" stroke="#d0342f" stroke-width="5.0"/><text x="181.2" y="172" font-size="11" text-anchor="middle" fill="#d0342f" font-weight="700" font-family="'Hiragino Sans','Hiragino Kaku Gothic ProN','Noto Sans JP','Yu Gothic',Meiryo,'IPAGothic',sans-serif">住宅玄関</text><line x1="464" y1="182" x2="542.4" y2="182" stroke="#ffffff" stroke-width="4.2"/><line x1="464" y1="182" x2="542.4" y2="182" stroke="#2f7fd0" stroke-width="5.0"/><line x1="268" y1="742" x2="374.4" y2="742" stroke="#ffffff" stroke-width="4.2"/><line x1="268" y1="742" x2="374.4" y2="742" stroke="#d0342f" stroke-width="5.0"/><text x="321.2" y="762" font-size="11" text-anchor="middle" fill="#d0342f" font-weight="700" font-family="'Hiragino Sans','Hiragino Kaku Gothic ProN','Noto Sans JP','Yu Gothic',Meiryo,'IPAGothic',sans-serif">勝手口</text><line x1="441.6" y1="742" x2="542.4" y2="742" stroke="#ffffff" stroke-width="4.2"/><line x1="441.6" y1="742" x2="542.4" y2="742" stroke="#2f7fd0" stroke-width="5.0"/><line x1="548" y1="686" x2="548" y2="635.6" stroke="#ffffff" stroke-width="4.2"/><line x1="548" y1="686" x2="548" y2="635.6" stroke="#2f7fd0" stroke-width="5.0"/><line x1="548" y1="400.4" x2="548" y2="238" stroke="#ffffff" stroke-width="4.2"/><line x1="548" y1="400.4" x2="548" y2="238" stroke="#2f7fd0" stroke-width="5.0"/><line x1="100" y1="686" x2="100" y2="635.6" stroke="#ffffff" stroke-width="4.2"/><line x1="100" y1="686" x2="100" y2="635.6" stroke="#2f7fd0" stroke-width="5.0"/><line x1="100" y1="624.4" x2="100" y2="546" stroke="#ffffff" stroke-width="4.2"/><line x1="100" y1="624.4" x2="100" y2="546" stroke="#2f7fd0" stroke-width="5.0"/><line x1="212" y1="406" x2="324" y2="406" stroke="#111" stroke-width="2.0"/><line x1="212" y1="630" x2="212" y2="406" stroke="#111" stroke-width="2.0"/><line x1="212" y1="518" x2="212" y2="406" stroke="#111" stroke-width="2.0"/><line x1="212" y1="742" x2="212" y2="630" stroke="#111" stroke-width="2.0"/><line x1="380" y1="518" x2="548" y2="518" stroke="#111" stroke-width="2.0"/><line x1="380" y1="742" x2="380" y2="518" stroke="#111" stroke-width="2.0"/><line x1="100" y1="294" x2="212" y2="294" stroke="#111" stroke-width="2.0"/><line x1="212" y1="518" x2="380" y2="518" stroke="#111" stroke-width="2.0"/><line x1="212" y1="742" x2="212" y2="518" stroke="#111" stroke-width="2.0"/><line x1="212" y1="518" x2="548" y2="518" stroke="#111" stroke-width="2.0"/><line x1="100" y1="406" x2="212" y2="406" stroke="#111" stroke-width="2.0"/><line x1="212" y1="406" x2="212" y2="294" stroke="#111" stroke-width="2.0"/><line x1="100" y1="630" x2="212" y2="630" stroke="#111" stroke-width="2.0"/><line x1="212" y1="518" x2="212" y2="182" stroke="#111" stroke-width="2.0"/><line x1="324" y1="518" x2="324" y2="406" stroke="#111" stroke-width="2.0"/><line x1="212" y1="518" x2="324" y2="518" stroke="#111" stroke-width="2.0"/><line x1="212" y1="294" x2="212" y2="182" stroke="#111" stroke-width="2.0"/><line x1="122.4" y1="294" x2="189.6" y2="294" stroke="#ffffff" stroke-width="3.4"/><line x1="122.4" y1="294" x2="122.4" y2="339.92" stroke="#777" stroke-width="0.9"/><path d="M 122.4 339.9 A 45.9 45.9 0 0 1 168.3 294.0" stroke="#aaa" stroke-width="0.8" fill="none"/><line x1="122.4" y1="406" x2="189.6" y2="406" stroke="#ffffff" stroke-width="3.4"/><line x1="122.4" y1="406" x2="122.4" y2="451.92" stroke="#777" stroke-width="0.9"/><path d="M 122.4 451.9 A 45.9 45.9 0 0 1 168.3 406.0" stroke="#aaa" stroke-width="0.8" fill="none"/><line x1="212" y1="562.8" x2="212" y2="506.8" stroke="#ffffff" stroke-width="3.4"/><line x1="212" y1="562.8" x2="252.32" y2="562.8" stroke="#777" stroke-width="0.9"/><path d="M 252.3 562.8 A 40.3 40.3 0 0 1 212.0 522.5" stroke="#aaa" stroke-width="0.8" fill="none"/><line x1="234.4" y1="406" x2="290.4" y2="406" stroke="#ffffff" stroke-width="3.4"/><line x1="234.4" y1="406" x2="234.4" y2="446.32" stroke="#777" stroke-width="0.9"/><path d="M 234.4 446.3 A 40.3 40.3 0 0 1 274.7 406.0" stroke="#aaa" stroke-width="0.8" fill="none"/><line x1="268" y1="518" x2="357.6" y2="518" stroke="#ffffff" stroke-width="3.4"/><line x1="268" y1="516" x2="357.6" y2="516" stroke="#777" stroke-width="1.0"/><line x1="268" y1="520" x2="357.6" y2="520" stroke="#777" stroke-width="1.0"/><line x1="212" y1="719.6" x2="212" y2="663.6" stroke="#ffffff" stroke-width="3.4"/><line x1="212" y1="719.6" x2="252.32" y2="719.6" stroke="#777" stroke-width="0.9"/><path d="M 252.3 719.6 A 40.3 40.3 0 0 1 212.0 679.3" stroke="#aaa" stroke-width="0.8" fill="none"/><line x1="380" y1="658" x2="380" y2="590.8" stroke="#ffffff" stroke-width="3.4"/><line x1="380" y1="658" x2="425.92" y2="658" stroke="#777" stroke-width="0.9"/><path d="M 425.9 658.0 A 45.9 45.9 0 0 1 380.0 612.1" stroke="#aaa" stroke-width="0.8" fill="none"/><rect x="104" y="410" width="104" height="216" fill="none" stroke="#c0392b" stroke-width="1.6" stroke-dasharray="6 4"/><line x1="103" y1="462" x2="209" y2="462" stroke="#8a6d00" stroke-width="1.6"/><line x1="156" y1="630" x2="156" y2="462" stroke="#8a6d00" stroke-width="1.4"/><line x1="158" y1="474.92" x2="209" y2="474.92" stroke="#8a6d00" stroke-width="0.9"/><line x1="158" y1="487.85" x2="209" y2="487.85" stroke="#8a6d00" stroke-width="0.9"/><line x1="158" y1="500.77" x2="209" y2="500.77" stroke="#8a6d00" stroke-width="0.9"/><line x1="158" y1="513.69" x2="209" y2="513.69" stroke="#8a6d00" stroke-width="0.9"/><line x1="158" y1="526.62" x2="209" y2="526.62" stroke="#8a6d00" stroke-width="0.9"/><line x1="158" y1="539.54" x2="209" y2="539.54" stroke="#8a6d00" stroke-width="0.9"/><line x1="103" y1="474.92" x2="154" y2="474.92" stroke="#8a6d00" stroke-width="0.9"/><line x1="103" y1="487.85" x2="154" y2="487.85" stroke="#8a6d00" stroke-width="0.9"/><line x1="103" y1="500.77" x2="154" y2="500.77" stroke="#8a6d00" stroke-width="0.9"/><line x1="103" y1="513.69" x2="154" y2="513.69" stroke="#8a6d00" stroke-width="0.9"/><line x1="103" y1="526.62" x2="154" y2="526.62" stroke="#8a6d00" stroke-width="0.9"/><line x1="103" y1="539.54" x2="154" y2="539.54" stroke="#8a6d00" stroke-width="0.9"/><line x1="103" y1="552.46" x2="154" y2="552.46" stroke="#8a6d00" stroke-width="0.9"/><line x1="184" y1="551.86" x2="184" y2="477.72" stroke="#8a6d00" stroke-width="1.6"/><polygon points="184,468.72 179,477.72 189,477.72" fill="#8a6d00"/><text x="184" y="565.86" font-size="11" text-anchor="middle" fill="#8a6d00" font-weight="700" font-family="'Hiragino Sans','Hiragino Kaku Gothic ProN','Noto Sans JP','Yu Gothic',Meiryo,'IPAGothic',sans-serif">UP</text><line x1="158.8" y1="533.62" x2="209.2" y2="519.62" stroke="#111" stroke-width="1.1"/><line x1="158.8" y1="539.62" x2="209.2" y2="525.62" stroke="#111" stroke-width="1.1"/><text x="156" y="438.48" font-size="9.5" text-anchor="middle" fill="#a08840" font-weight="400" font-family="'Hiragino Sans','Hiragino Kaku Gothic ProN','Noto Sans JP','Yu Gothic',Meiryo,'IPAGothic',sans-serif">踊場</text><polygon points="92,714 81,707.5 81,720.5" fill="#ffffff" stroke="#1f6fb2" stroke-width="1.5"/><polygon points="92,476 81,469.5 81,482.5" fill="#ffffff" stroke="#1f6fb2" stroke-width="1.5"/><polygon points="92,294 81,287.5 81,300.5" fill="#ffffff" stroke="#1f6fb2" stroke-width="1.5"/><polygon points="220,456.4 231,449.9 231,462.9" fill="#ffffff" stroke="#1f6fb2" stroke-width="1.5"/><polygon points="220,294 231,287.5 231,300.5" fill="#ffffff" stroke="#1f6fb2" stroke-width="1.5"/><polygon points="388,700 399,693.5 399,706.5" fill="#ffffff" stroke="#1f6fb2" stroke-width="1.5"/><polygon points="556,714 567,707.5 567,720.5" fill="#ffffff" stroke="#1f6fb2" stroke-width="1.5"/><polygon points="556,518 567,511.5 567,524.5" fill="#ffffff" stroke="#1f6fb2" stroke-width="1.5"/><polygon points="556,210 567,203.5 567,216.5" fill="#ffffff" stroke="#1f6fb2" stroke-width="1.5"/><polygon points="156,750 149.5,761 162.5,761" fill="#ffffff" stroke="#1f6fb2" stroke-width="1.5"/><polygon points="240,750 233.5,761 246.5,761" fill="#ffffff" stroke="#1f6fb2" stroke-width="1.5"/><polygon points="410.8,750 404.3,761 417.3,761" fill="#ffffff" stroke="#1f6fb2" stroke-width="1.5"/><polygon points="156,622 149.5,611 162.5,611" fill="#ffffff" stroke="#1f6fb2" stroke-width="1.5"/><polygon points="128,174 121.5,163 134.5,163" fill="#ffffff" stroke="#1f6fb2" stroke-width="1.5"/><polygon points="240,174 233.5,163 246.5,163" fill="#ffffff" stroke="#1f6fb2" stroke-width="1.5"/><polygon points="422,174 415.5,163 428.5,163" fill="#ffffff" stroke="#1f6fb2" stroke-width="1.5"/><rect x="208" y="738" width="8" height="8" fill="#111"/><rect x="376" y="738" width="8" height="8" fill="#111"/><rect x="96" y="626" width="8" height="8" fill="#111"/><rect x="544" y="626" width="8" height="8" fill="#111"/><rect x="96" y="402" width="8" height="8" fill="#111"/><rect x="544" y="402" width="8" height="8" fill="#111"/><rect x="208" y="178" width="8" height="8" fill="#111"/><rect x="376" y="178" width="8" height="8" fill="#111"/><rect x="208" y="626" width="8" height="8" fill="#111"/><rect x="376" y="626" width="8" height="8" fill="#111"/><rect x="208" y="402" width="8" height="8" fill="#111"/><rect x="376" y="402" width="8" height="8" fill="#111"/><circle cx="100" cy="742" r="9" fill="#ffffff" stroke="#c0392b" stroke-width="2.0"/><rect x="96" y="738" width="8" height="8" fill="#111"/><circle cx="548" cy="742" r="9" fill="#ffffff" stroke="#c0392b" stroke-width="2.0"/><rect x="544" y="738" width="8" height="8" fill="#111"/><circle cx="100" cy="182" r="9" fill="#ffffff" stroke="#c0392b" stroke-width="2.0"/><rect x="96" y="178" width="8" height="8" fill="#111"/><circle cx="548" cy="182" r="9" fill="#ffffff" stroke="#c0392b" stroke-width="2.0"/><rect x="544" y="178" width="8" height="8" fill="#111"/><circle cx="100" cy="146" r="11" fill="#ffffff" stroke="#b03060" stroke-width="1.2"/><text x="100" y="150" font-size="12" text-anchor="middle" fill="#b03060" font-weight="700" font-family="'Hiragino Sans','Hiragino Kaku Gothic ProN','Noto Sans JP','Yu Gothic',Meiryo,'IPAGothic',sans-serif">A</text><circle cx="212" cy="146" r="11" fill="#ffffff" stroke="#b03060" stroke-width="1.2"/><text x="212" y="150" font-size="12" text-anchor="middle" fill="#b03060" font-weight="700" font-family="'Hiragino Sans','Hiragino Kaku Gothic ProN','Noto Sans JP','Yu Gothic',Meiryo,'IPAGothic',sans-serif">B</text><circle cx="380" cy="146" r="11" fill="#ffffff" stroke="#b03060" stroke-width="1.2"/><text x="380" y="150" font-size="12" text-anchor="middle" fill="#b03060" font-weight="700" font-family="'Hiragino Sans','Hiragino Kaku Gothic ProN','Noto Sans JP','Yu Gothic',Meiryo,'IPAGothic',sans-serif">C</text><circle cx="548" cy="146" r="11" fill="#ffffff" stroke="#b03060" stroke-width="1.2"/><text x="548" y="150" font-size="12" text-anchor="middle" fill="#b03060" font-weight="700" font-family="'Hiragino Sans','Hiragino Kaku Gothic ProN','Noto Sans JP','Yu Gothic',Meiryo,'IPAGothic',sans-serif">D</text><circle cx="60" cy="742" r="11" fill="#ffffff" stroke="#b03060" stroke-width="1.2"/><text x="60" y="746" font-size="12" text-anchor="middle" fill="#b03060" font-weight="700" font-family="'Hiragino Sans','Hiragino Kaku Gothic ProN','Noto Sans JP','Yu Gothic',Meiryo,'IPAGothic',sans-serif">1</text><circle cx="60" cy="630" r="11" fill="#ffffff" stroke="#b03060" stroke-width="1.2"/><text x="60" y="634" font-size="12" text-anchor="middle" fill="#b03060" font-weight="700" font-family="'Hiragino Sans','Hiragino Kaku Gothic ProN','Noto Sans JP','Yu Gothic',Meiryo,'IPAGothic',sans-serif">2</text><circle cx="60" cy="406" r="11" fill="#ffffff" stroke="#b03060" stroke-width="1.2"/><text x="60" y="410" font-size="12" text-anchor="middle" fill="#b03060" font-weight="700" font-family="'Hiragino Sans','Hiragino Kaku Gothic ProN','Noto Sans JP','Yu Gothic',Meiryo,'IPAGothic',sans-serif">3</text><circle cx="60" cy="182" r="11" fill="#ffffff" stroke="#b03060" stroke-width="1.2"/><text x="60" y="186" font-size="12" text-anchor="middle" fill="#b03060" font-weight="700" font-family="'Hiragino Sans','Hiragino Kaku Gothic ProN','Noto Sans JP','Yu Gothic',Meiryo,'IPAGothic',sans-serif">4</text><line x1="100" y1="794" x2="548" y2="794" stroke="#444" stroke-width="0.8"/><line x1="100" y1="790" x2="100" y2="798" stroke="#444" stroke-width="0.8"/><line x1="548" y1="790" x2="548" y2="798" stroke="#444" stroke-width="0.8"/><text x="324" y="789" font-size="11" text-anchor="middle" fill="#444" font-weight="400" font-family="'Hiragino Sans','Hiragino Kaku Gothic ProN','Noto Sans JP','Yu Gothic',Meiryo,'IPAGothic',sans-serif">7,280  ( 910 × 8マス )</text><line x1="594" y1="742" x2="594" y2="182" stroke="#444" stroke-width="0.8"/><line x1="590" y1="742" x2="598" y2="742" stroke="#444" stroke-width="0.8"/><line x1="590" y1="182" x2="598" y2="182" stroke="#444" stroke-width="0.8"/><g transform="translate(588,462) rotate(-90)"><text x="0" y="0" font-size="11" text-anchor="middle" fill="#444" font-weight="400" font-family="'Hiragino Sans','Hiragino Kaku Gothic ProN','Noto Sans JP','Yu Gothic',Meiryo,'IPAGothic',sans-serif">9,100  ( 910 × 10マス )</text></g><circle cx="614" cy="208" r="19" fill="#ffffff" stroke="#444" stroke-width="1.1"/><polygon points="614,194 608,215 614,210 620,215" fill="#c0392b"/><text x="614" y="227" font-size="11" text-anchor="middle" fill="#444" font-weight="700" font-family="'Hiragino Sans','Hiragino Kaku Gothic ProN','Noto Sans JP','Yu Gothic',Meiryo,'IPAGothic',sans-serif">N</text><rect x="66.4" y="94" width="515.2" height="26" fill="#f2f2f2" stroke="#bbb" stroke-width="0.8"/><text x="324" y="111" font-size="12" text-anchor="middle" fill="#666" font-weight="700" font-family="'Hiragino Sans','Hiragino Kaku Gothic ProN','Noto Sans JP','Yu Gothic',Meiryo,'IPAGothic',sans-serif">道　路（北）</text><circle cx="108" cy="854" r="7.5" fill="#ffffff" stroke="#c0392b" stroke-width="1.8"/><rect x="104.5" y="850.5" width="7" height="7" fill="#111"/><text x="120" y="858" font-size="11" text-anchor="start" fill="#444" font-weight="400" font-family="'Hiragino Sans','Hiragino Kaku Gothic ProN','Noto Sans JP','Yu Gothic',Meiryo,'IPAGothic',sans-serif">通し柱（○で囲む）</text><rect x="240" y="850" width="8" height="8" fill="#111"/><text x="254" y="858" font-size="11" text-anchor="start" fill="#444" font-weight="400" font-family="'Hiragino Sans','Hiragino Kaku Gothic ProN','Noto Sans JP','Yu Gothic',Meiryo,'IPAGothic',sans-serif">管柱</text><polygon points="300,847 294,857 306,857" fill="#fff" stroke="#1f6fb2" stroke-width="1.4"/><text x="312" y="858" font-size="11" text-anchor="start" fill="#444" font-weight="400" font-family="'Hiragino Sans','Hiragino Kaku Gothic ProN','Noto Sans JP','Yu Gothic',Meiryo,'IPAGothic',sans-serif">耐力壁</text><line x1="362" y1="854" x2="382" y2="854" stroke="#2f7fd0" stroke-width="5"/><text x="388" y="858" font-size="11" text-anchor="start" fill="#444" font-weight="400" font-family="'Hiragino Sans','Hiragino Kaku Gothic ProN','Noto Sans JP','Yu Gothic',Meiryo,'IPAGothic',sans-serif">窓</text><line x1="412" y1="854" x2="432" y2="854" stroke="#d0342f" stroke-width="5"/><text x="438" y="858" font-size="11" text-anchor="start" fill="#444" font-weight="400" font-family="'Hiragino Sans','Hiragino Kaku Gothic ProN','Noto Sans JP','Yu Gothic',Meiryo,'IPAGothic',sans-serif">出入口</text><rect x="488" y="849" width="18" height="10" fill="none" stroke="#c0392b" stroke-width="1.4" stroke-dasharray="4 3"/><text x="512" y="858" font-size="11" text-anchor="start" fill="#444" font-weight="400" font-family="'Hiragino Sans','Hiragino Kaku Gothic ProN','Noto Sans JP','Yu Gothic',Meiryo,'IPAGothic',sans-serif">竪穴区画</text><text x="330" y="886" font-size="11.5" text-anchor="middle" fill="#555" font-weight="400" font-family="'Hiragino Sans','Hiragino Kaku Gothic ProN','Noto Sans JP','Yu Gothic',Meiryo,'IPAGothic',sans-serif">道路が北。1階だけ南北を入れかえる。階段の位置は動かさない。　／　階段 UP 15段（蹴上206.7 / 踏面210）</text></svg>