<svg xmlns="http://www.w3.org/2000/svg" viewBox="0 0 1240 1060" width="1240" height="1060" font-family="'Hiragino Sans','Hiragino Kaku Gothic ProN','Noto Sans JP','Yu Gothic',Meiryo,'IPAGothic',sans-serif"><rect width="1240" height="1060" fill="#ffffff"/><text x="620" y="40" font-size="22" text-anchor="middle" fill="#111" font-weight="700" font-family="'Hiragino Sans','Hiragino Kaku Gothic ProN','Noto Sans JP','Yu Gothic',Meiryo,'IPAGothic',sans-serif">部材ずかん ⑤　完成形 その2　小屋伏図</text><text x="620" y="66" font-size="12.5" text-anchor="middle" fill="#666" font-weight="400" font-family="'Hiragino Sans','Hiragino Kaku Gothic ProN','Noto Sans JP','Yu Gothic',Meiryo,'IPAGothic',sans-serif">答案用紙にこれが描けていれば満点。黒だけ・2本線・記号・断面寸法・通り符号・主要な寸法。</text><rect x="20" y="88" width="820" height="946" fill="#fcfcfb" stroke="#e0ded8" stroke-width="1.0" rx="10"/><text x="36" y="114" font-size="15" text-anchor="start" fill="#111" font-weight="700" font-family="'Hiragino Sans','Hiragino Kaku Gothic ProN','Noto Sans JP','Yu Gothic',Meiryo,'IPAGothic',sans-serif">小屋伏図　縮尺1／100</text><text x="36" y="134" font-size="11.5" text-anchor="start" fill="#777" font-weight="400" font-family="'Hiragino Sans','Hiragino Kaku Gothic ProN','Noto Sans JP','Yu Gothic',Meiryo,'IPAGothic',sans-serif">（棟は南北方向・4寸勾配）</text><line x1="128" y1="164" x2="128" y2="956" stroke="#ededed" stroke-width="0.6"/><line x1="164" y1="164" x2="164" y2="956" stroke="#ededed" stroke-width="0.6"/><line x1="200" y1="164" x2="200" y2="956" stroke="#ededed" stroke-width="0.6"/><line x1="236" y1="164" x2="236" y2="956" stroke="#ededed" stroke-width="0.6"/><line x1="272" y1="164" x2="272" y2="956" stroke="#ededed" stroke-width="0.6"/><line x1="308" y1="164" x2="308" y2="956" stroke="#ededed" stroke-width="0.6"/><line x1="344" y1="164" x2="344" y2="956" stroke="#ededed" stroke-width="0.6"/><line x1="380" y1="164" x2="380" y2="956" stroke="#ededed" stroke-width="0.6"/><line x1="416" y1="164" x2="416" y2="956" stroke="#ededed" stroke-width="0.6"/><line x1="452" y1="164" x2="452" y2="956" stroke="#ededed" stroke-width="0.6"/><line x1="488" y1="164" x2="488" y2="956" stroke="#ededed" stroke-width="0.6"/><line x1="524" y1="164" x2="524" y2="956" stroke="#ededed" stroke-width="0.6"/><line x1="560" y1="164" x2="560" y2="956" stroke="#ededed" stroke-width="0.6"/><line x1="596" y1="164" x2="596" y2="956" stroke="#ededed" stroke-width="0.6"/><line x1="632" y1="164" x2="632" y2="956" stroke="#ededed" stroke-width="0.6"/><line x1="668" y1="164" x2="668" y2="956" stroke="#ededed" stroke-width="0.6"/><line x1="704" y1="164" x2="704" y2="956" stroke="#ededed" stroke-width="0.6"/><line x1="92" y1="920" x2="740" y2="920" stroke="#ededed" stroke-width="0.6"/><line x1="92" y1="884" x2="740" y2="884" stroke="#ededed" stroke-width="0.6"/><line x1="92" y1="848" x2="740" y2="848" stroke="#ededed" stroke-width="0.6"/><line x1="92" y1="812" x2="740" y2="812" stroke="#ededed" stroke-width="0.6"/><line x1="92" y1="776" x2="740" y2="776" stroke="#ededed" stroke-width="0.6"/><line x1="92" y1="740" x2="740" y2="740" stroke="#ededed" stroke-width="0.6"/><line x1="92" y1="704" x2="740" y2="704" stroke="#ededed" stroke-width="0.6"/><line x1="92" y1="668" x2="740" y2="668" stroke="#ededed" stroke-width="0.6"/><line x1="92" y1="632" x2="740" y2="632" stroke="#ededed" stroke-width="0.6"/><line x1="92" y1="596" x2="740" y2="596" stroke="#ededed" stroke-width="0.6"/><line x1="92" y1="560" x2="740" y2="560" stroke="#ededed" stroke-width="0.6"/><line x1="92" y1="524" x2="740" y2="524" stroke="#ededed" stroke-width="0.6"/><line x1="92" y1="488" x2="740" y2="488" stroke="#ededed" stroke-width="0.6"/><line x1="92" y1="452" x2="740" y2="452" stroke="#ededed" stroke-width="0.6"/><line x1="92" y1="416" x2="740" y2="416" stroke="#ededed" stroke-width="0.6"/><line x1="92" y1="380" x2="740" y2="380" stroke="#ededed" stroke-width="0.6"/><line x1="92" y1="344" x2="740" y2="344" stroke="#ededed" stroke-width="0.6"/><line x1="92" y1="308" x2="740" y2="308" stroke="#ededed" stroke-width="0.6"/><line x1="92" y1="272" x2="740" y2="272" stroke="#ededed" stroke-width="0.6"/><line x1="92" y1="236" x2="740" y2="236" stroke="#ededed" stroke-width="0.6"/><line x1="92" y1="200" x2="740" y2="200" stroke="#ededed" stroke-width="0.6"/><line x1="131" y1="915.25" x2="701" y2="915.25" stroke="#111" stroke-width="1.1"/><line x1="131" y1="924.75" x2="701" y2="924.75" stroke="#111" stroke-width="1.1"/><line x1="128" y1="918.25" x2="128" y2="921.75" stroke="#111" stroke-width="1.1"/><line x1="128" y1="918.25" x2="131" y2="915.25" stroke="#111" stroke-width="1.1"/><line x1="128" y1="921.75" x2="131" y2="924.75" stroke="#111" stroke-width="1.1"/><line x1="704" y1="918.25" x2="704" y2="921.75" stroke="#111" stroke-width="1.1"/><line x1="704" y1="918.25" x2="701" y2="915.25" stroke="#111" stroke-width="1.1"/><line x1="704" y1="921.75" x2="701" y2="924.75" stroke="#111" stroke-width="1.1"/><line x1="131" y1="195.25" x2="701" y2="195.25" stroke="#111" stroke-width="1.1"/><line x1="131" y1="204.75" x2="701" y2="204.75" stroke="#111" stroke-width="1.1"/><line x1="128" y1="198.25" x2="128" y2="201.75" stroke="#111" stroke-width="1.1"/><line x1="128" y1="198.25" x2="131" y2="195.25" stroke="#111" stroke-width="1.1"/><line x1="128" y1="201.75" x2="131" y2="204.75" stroke="#111" stroke-width="1.1"/><line x1="704" y1="198.25" x2="704" y2="201.75" stroke="#111" stroke-width="1.1"/><line x1="704" y1="198.25" x2="701" y2="195.25" stroke="#111" stroke-width="1.1"/><line x1="704" y1="201.75" x2="701" y2="204.75" stroke="#111" stroke-width="1.1"/><line x1="123.25" y1="917" x2="123.25" y2="203" stroke="#111" stroke-width="1.1"/><line x1="132.75" y1="917" x2="132.75" y2="203" stroke="#111" stroke-width="1.1"/><line x1="126.25" y1="920" x2="129.75" y2="920" stroke="#111" stroke-width="1.1"/><line x1="126.25" y1="920" x2="123.25" y2="917" stroke="#111" stroke-width="1.1"/><line x1="129.75" y1="920" x2="132.75" y2="917" stroke="#111" stroke-width="1.1"/><line x1="126.25" y1="200" x2="129.75" y2="200" stroke="#111" stroke-width="1.1"/><line x1="126.25" y1="200" x2="123.25" y2="203" stroke="#111" stroke-width="1.1"/><line x1="129.75" y1="200" x2="132.75" y2="203" stroke="#111" stroke-width="1.1"/><line x1="267.25" y1="917" x2="267.25" y2="203" stroke="#111" stroke-width="1.1"/><line x1="276.75" y1="917" x2="276.75" y2="203" stroke="#111" stroke-width="1.1"/><line x1="270.25" y1="920" x2="273.75" y2="920" stroke="#111" stroke-width="1.1"/><line x1="270.25" y1="920" x2="267.25" y2="917" stroke="#111" stroke-width="1.1"/><line x1="273.75" y1="920" x2="276.75" y2="917" stroke="#111" stroke-width="1.1"/><line x1="270.25" y1="200" x2="273.75" y2="200" stroke="#111" stroke-width="1.1"/><line x1="270.25" y1="200" x2="267.25" y2="203" stroke="#111" stroke-width="1.1"/><line x1="273.75" y1="200" x2="276.75" y2="203" stroke="#111" stroke-width="1.1"/><line x1="483.25" y1="917" x2="483.25" y2="203" stroke="#111" stroke-width="1.1"/><line x1="492.75" y1="917" x2="492.75" y2="203" stroke="#111" stroke-width="1.1"/><line x1="486.25" y1="920" x2="489.75" y2="920" stroke="#111" stroke-width="1.1"/><line x1="486.25" y1="920" x2="483.25" y2="917" stroke="#111" stroke-width="1.1"/><line x1="489.75" y1="920" x2="492.75" y2="917" stroke="#111" stroke-width="1.1"/><line x1="486.25" y1="200" x2="489.75" y2="200" stroke="#111" stroke-width="1.1"/><line x1="486.25" y1="200" x2="483.25" y2="203" stroke="#111" stroke-width="1.1"/><line x1="489.75" y1="200" x2="492.75" y2="203" stroke="#111" stroke-width="1.1"/><line x1="699.25" y1="917" x2="699.25" y2="203" stroke="#111" stroke-width="1.1"/><line x1="708.75" y1="917" x2="708.75" y2="203" stroke="#111" stroke-width="1.1"/><line x1="702.25" y1="920" x2="705.75" y2="920" stroke="#111" stroke-width="1.1"/><line x1="702.25" y1="920" x2="699.25" y2="917" stroke="#111" stroke-width="1.1"/><line x1="705.75" y1="920" x2="708.75" y2="917" stroke="#111" stroke-width="1.1"/><line x1="702.25" y1="200" x2="705.75" y2="200" stroke="#111" stroke-width="1.1"/><line x1="702.25" y1="200" x2="699.25" y2="203" stroke="#111" stroke-width="1.1"/><line x1="705.75" y1="200" x2="708.75" y2="203" stroke="#111" stroke-width="1.1"/><line x1="131" y1="771.25" x2="269" y2="771.25" stroke="#111" stroke-width="1.1"/><line x1="131" y1="780.75" x2="269" y2="780.75" stroke="#111" stroke-width="1.1"/><line x1="128" y1="774.25" x2="128" y2="777.75" stroke="#111" stroke-width="1.1"/><line x1="128" y1="774.25" x2="131" y2="771.25" stroke="#111" stroke-width="1.1"/><line x1="128" y1="777.75" x2="131" y2="780.75" stroke="#111" stroke-width="1.1"/><line x1="272" y1="774.25" x2="272" y2="777.75" stroke="#111" stroke-width="1.1"/><line x1="272" y1="774.25" x2="269" y2="771.25" stroke="#111" stroke-width="1.1"/><line x1="272" y1="777.75" x2="269" y2="780.75" stroke="#111" stroke-width="1.1"/><line x1="275" y1="771.25" x2="485" y2="771.25" stroke="#111" stroke-width="1.1"/><line x1="275" y1="780.75" x2="485" y2="780.75" stroke="#111" stroke-width="1.1"/><line x1="272" y1="774.25" x2="272" y2="777.75" stroke="#111" stroke-width="1.1"/><line x1="272" y1="774.25" x2="275" y2="771.25" stroke="#111" stroke-width="1.1"/><line x1="272" y1="777.75" x2="275" y2="780.75" stroke="#111" stroke-width="1.1"/><line x1="488" y1="774.25" x2="488" y2="777.75" stroke="#111" stroke-width="1.1"/><line x1="488" y1="774.25" x2="485" y2="771.25" stroke="#111" stroke-width="1.1"/><line x1="488" y1="777.75" x2="485" y2="780.75" stroke="#111" stroke-width="1.1"/><line x1="491" y1="771.25" x2="701" y2="771.25" stroke="#111" stroke-width="1.1"/><line x1="491" y1="780.75" x2="701" y2="780.75" stroke="#111" stroke-width="1.1"/><line x1="488" y1="774.25" x2="488" y2="777.75" stroke="#111" stroke-width="1.1"/><line x1="488" y1="774.25" x2="491" y2="771.25" stroke="#111" stroke-width="1.1"/><line x1="488" y1="777.75" x2="491" y2="780.75" stroke="#111" stroke-width="1.1"/><line x1="704" y1="774.25" x2="704" y2="777.75" stroke="#111" stroke-width="1.1"/><line x1="704" y1="774.25" x2="701" y2="771.25" stroke="#111" stroke-width="1.1"/><line x1="704" y1="777.75" x2="701" y2="780.75" stroke="#111" stroke-width="1.1"/><line x1="131" y1="627.25" x2="269" y2="627.25" stroke="#111" stroke-width="1.1"/><line x1="131" y1="636.75" x2="269" y2="636.75" stroke="#111" stroke-width="1.1"/><line x1="128" y1="630.25" x2="128" y2="633.75" stroke="#111" stroke-width="1.1"/><line x1="128" y1="630.25" x2="131" y2="627.25" stroke="#111" stroke-width="1.1"/><line x1="128" y1="633.75" x2="131" y2="636.75" stroke="#111" stroke-width="1.1"/><line x1="272" y1="630.25" x2="272" y2="633.75" stroke="#111" stroke-width="1.1"/><line x1="272" y1="630.25" x2="269" y2="627.25" stroke="#111" stroke-width="1.1"/><line x1="272" y1="633.75" x2="269" y2="636.75" stroke="#111" stroke-width="1.1"/><line x1="275" y1="627.25" x2="485" y2="627.25" stroke="#111" stroke-width="1.1"/><line x1="275" y1="636.75" x2="485" y2="636.75" stroke="#111" stroke-width="1.1"/><line x1="272" y1="630.25" x2="272" y2="633.75" stroke="#111" stroke-width="1.1"/><line x1="272" y1="630.25" x2="275" y2="627.25" stroke="#111" stroke-width="1.1"/><line x1="272" y1="633.75" x2="275" y2="636.75" stroke="#111" stroke-width="1.1"/><line x1="488" y1="630.25" x2="488" y2="633.75" stroke="#111" stroke-width="1.1"/><line x1="488" y1="630.25" x2="485" y2="627.25" stroke="#111" stroke-width="1.1"/><line x1="488" y1="633.75" x2="485" y2="636.75" stroke="#111" stroke-width="1.1"/><line x1="491" y1="627.25" x2="701" y2="627.25" stroke="#111" stroke-width="1.1"/><line x1="491" y1="636.75" x2="701" y2="636.75" stroke="#111" stroke-width="1.1"/><line x1="488" y1="630.25" x2="488" y2="633.75" stroke="#111" stroke-width="1.1"/><line x1="488" y1="630.25" x2="491" y2="627.25" stroke="#111" stroke-width="1.1"/><line x1="488" y1="633.75" x2="491" y2="636.75" stroke="#111" stroke-width="1.1"/><line x1="704" y1="630.25" x2="704" y2="633.75" stroke="#111" stroke-width="1.1"/><line x1="704" y1="630.25" x2="701" y2="627.25" stroke="#111" stroke-width="1.1"/><line x1="704" y1="633.75" x2="701" y2="636.75" stroke="#111" stroke-width="1.1"/><line x1="131" y1="483.25" x2="269" y2="483.25" stroke="#111" stroke-width="1.1"/><line x1="131" y1="492.75" x2="269" y2="492.75" stroke="#111" stroke-width="1.1"/><line x1="128" y1="486.25" x2="128" y2="489.75" stroke="#111" stroke-width="1.1"/><line x1="128" y1="486.25" x2="131" y2="483.25" stroke="#111" stroke-width="1.1"/><line x1="128" y1="489.75" x2="131" y2="492.75" stroke="#111" stroke-width="1.1"/><line x1="272" y1="486.25" x2="272" y2="489.75" stroke="#111" stroke-width="1.1"/><line x1="272" y1="486.25" x2="269" y2="483.25" stroke="#111" stroke-width="1.1"/><line x1="272" y1="489.75" x2="269" y2="492.75" stroke="#111" stroke-width="1.1"/><line x1="275" y1="483.25" x2="485" y2="483.25" stroke="#111" stroke-width="1.1"/><line x1="275" y1="492.75" x2="485" y2="492.75" stroke="#111" stroke-width="1.1"/><line x1="272" y1="486.25" x2="272" y2="489.75" stroke="#111" stroke-width="1.1"/><line x1="272" y1="486.25" x2="275" y2="483.25" stroke="#111" stroke-width="1.1"/><line x1="272" y1="489.75" x2="275" y2="492.75" stroke="#111" stroke-width="1.1"/><line x1="488" y1="486.25" x2="488" y2="489.75" stroke="#111" stroke-width="1.1"/><line x1="488" y1="486.25" x2="485" y2="483.25" stroke="#111" stroke-width="1.1"/><line x1="488" y1="489.75" x2="485" y2="492.75" stroke="#111" stroke-width="1.1"/><line x1="491" y1="483.25" x2="701" y2="483.25" stroke="#111" stroke-width="1.1"/><line x1="491" y1="492.75" x2="701" y2="492.75" stroke="#111" stroke-width="1.1"/><line x1="488" y1="486.25" x2="488" y2="489.75" stroke="#111" stroke-width="1.1"/><line x1="488" y1="486.25" x2="491" y2="483.25" stroke="#111" stroke-width="1.1"/><line x1="488" y1="489.75" x2="491" y2="492.75" stroke="#111" stroke-width="1.1"/><line x1="704" y1="486.25" x2="704" y2="489.75" stroke="#111" stroke-width="1.1"/><line x1="704" y1="486.25" x2="701" y2="483.25" stroke="#111" stroke-width="1.1"/><line x1="704" y1="489.75" x2="701" y2="492.75" stroke="#111" stroke-width="1.1"/><line x1="131" y1="339.25" x2="269" y2="339.25" stroke="#111" stroke-width="1.1"/><line x1="131" y1="348.75" x2="269" y2="348.75" stroke="#111" stroke-width="1.1"/><line x1="128" y1="342.25" x2="128" y2="345.75" stroke="#111" stroke-width="1.1"/><line x1="128" y1="342.25" x2="131" y2="339.25" stroke="#111" stroke-width="1.1"/><line x1="128" y1="345.75" x2="131" y2="348.75" stroke="#111" stroke-width="1.1"/><line x1="272" y1="342.25" x2="272" y2="345.75" stroke="#111" stroke-width="1.1"/><line x1="272" y1="342.25" x2="269" y2="339.25" stroke="#111" stroke-width="1.1"/><line x1="272" y1="345.75" x2="269" y2="348.75" stroke="#111" stroke-width="1.1"/><line x1="275" y1="339.25" x2="485" y2="339.25" stroke="#111" stroke-width="1.1"/><line x1="275" y1="348.75" x2="485" y2="348.75" stroke="#111" stroke-width="1.1"/><line x1="272" y1="342.25" x2="272" y2="345.75" stroke="#111" stroke-width="1.1"/><line x1="272" y1="342.25" x2="275" y2="339.25" stroke="#111" stroke-width="1.1"/><line x1="272" y1="345.75" x2="275" y2="348.75" stroke="#111" stroke-width="1.1"/><line x1="488" y1="342.25" x2="488" y2="345.75" stroke="#111" stroke-width="1.1"/><line x1="488" y1="342.25" x2="485" y2="339.25" stroke="#111" stroke-width="1.1"/><line x1="488" y1="345.75" x2="485" y2="348.75" stroke="#111" stroke-width="1.1"/><line x1="491" y1="339.25" x2="701" y2="339.25" stroke="#111" stroke-width="1.1"/><line x1="491" y1="348.75" x2="701" y2="348.75" stroke="#111" stroke-width="1.1"/><line x1="488" y1="342.25" x2="488" y2="345.75" stroke="#111" stroke-width="1.1"/><line x1="488" y1="342.25" x2="491" y2="339.25" stroke="#111" stroke-width="1.1"/><line x1="488" y1="345.75" x2="491" y2="348.75" stroke="#111" stroke-width="1.1"/><line x1="704" y1="342.25" x2="704" y2="345.75" stroke="#111" stroke-width="1.1"/><line x1="704" y1="342.25" x2="701" y2="339.25" stroke="#111" stroke-width="1.1"/><line x1="704" y1="345.75" x2="701" y2="348.75" stroke="#111" stroke-width="1.1"/><line x1="200" y1="926" x2="200" y2="194" stroke="#111" stroke-width="0.9" stroke-dasharray="16 3 2 3"/><line x1="272" y1="926" x2="272" y2="194" stroke="#111" stroke-width="0.9" stroke-dasharray="16 3 2 3"/><line x1="344" y1="926" x2="344" y2="194" stroke="#111" stroke-width="0.9" stroke-dasharray="16 3 2 3"/><line x1="488" y1="926" x2="488" y2="194" stroke="#111" stroke-width="0.9" stroke-dasharray="16 3 2 3"/><line x1="560" y1="926" x2="560" y2="194" stroke="#111" stroke-width="0.9" stroke-dasharray="16 3 2 3"/><line x1="632" y1="926" x2="632" y2="194" stroke="#111" stroke-width="0.9" stroke-dasharray="16 3 2 3"/><line x1="411.25" y1="926" x2="411.25" y2="194" stroke="#111" stroke-width="1.2"/><line x1="420.75" y1="926" x2="420.75" y2="194" stroke="#111" stroke-width="1.2"/><circle cx="200" cy="776" r="3.4" fill="#111"/><circle cx="200" cy="632" r="3.4" fill="#111"/><circle cx="200" cy="488" r="3.4" fill="#111"/><circle cx="200" cy="344" r="3.4" fill="#111"/><circle cx="272" cy="776" r="3.4" fill="#111"/><circle cx="272" cy="632" r="3.4" fill="#111"/><circle cx="272" cy="488" r="3.4" fill="#111"/><circle cx="272" cy="344" r="3.4" fill="#111"/><circle cx="344" cy="776" r="3.4" fill="#111"/><circle cx="344" cy="632" r="3.4" fill="#111"/><circle cx="344" cy="488" r="3.4" fill="#111"/><circle cx="344" cy="344" r="3.4" fill="#111"/><circle cx="416" cy="776" r="3.4" fill="#111"/><circle cx="416" cy="632" r="3.4" fill="#111"/><circle cx="416" cy="488" r="3.4" fill="#111"/><circle cx="416" cy="344" r="3.4" fill="#111"/><circle cx="488" cy="776" r="3.4" fill="#111"/><circle cx="488" cy="632" r="3.4" fill="#111"/><circle cx="488" cy="488" r="3.4" fill="#111"/><circle cx="488" cy="344" r="3.4" fill="#111"/><circle cx="560" cy="776" r="3.4" fill="#111"/><circle cx="560" cy="632" r="3.4" fill="#111"/><circle cx="560" cy="488" r="3.4" fill="#111"/><circle cx="560" cy="344" r="3.4" fill="#111"/><circle cx="632" cy="776" r="3.4" fill="#111"/><circle cx="632" cy="632" r="3.4" fill="#111"/><circle cx="632" cy="488" r="3.4" fill="#111"/><circle cx="632" cy="344" r="3.4" fill="#111"/><rect x="428" y="257" width="92" height="19" fill="#fff" fill-opacity="0.9" stroke="none"/><text x="432" y="270" font-size="9.5" text-anchor="start" fill="#111" font-weight="400" font-family="'Hiragino Sans','Hiragino Kaku Gothic ProN','Noto Sans JP','Yu Gothic',Meiryo,'IPAGothic',sans-serif">棟木 120×120</text><rect x="204" y="837" width="168" height="19" fill="#fff" fill-opacity="0.9" stroke="none"/><text x="208" y="850" font-size="9.5" text-anchor="start" fill="#111" font-weight="400" font-family="'Hiragino Sans','Hiragino Kaku Gothic ProN','Noto Sans JP','Yu Gothic',Meiryo,'IPAGothic',sans-serif">母屋 90×90（小屋束 90×90）</text><line x1="200" y1="920" x2="128" y2="848" stroke="#111" stroke-width="1.2" stroke-dasharray="9 5"/><line x1="632" y1="920" x2="704" y2="848" stroke="#111" stroke-width="1.2" stroke-dasharray="9 5"/><line x1="200" y1="200" x2="128" y2="272" stroke="#111" stroke-width="1.2" stroke-dasharray="9 5"/><line x1="632" y1="200" x2="704" y2="272" stroke="#111" stroke-width="1.2" stroke-dasharray="9 5"/><line x1="344" y1="776" x2="272" y2="704" stroke="#111" stroke-width="1.2" stroke-dasharray="9 5"/><line x1="416" y1="776" x2="488" y2="704" stroke="#111" stroke-width="1.2" stroke-dasharray="9 5"/><line x1="344" y1="488" x2="272" y2="560" stroke="#111" stroke-width="1.2" stroke-dasharray="9 5"/><line x1="416" y1="488" x2="488" y2="560" stroke="#111" stroke-width="1.2" stroke-dasharray="9 5"/><rect x="266.5" y="914.5" width="11" height="11" fill="#fff" stroke="#111" stroke-width="1.0"/><line x1="266.5" y1="914.5" x2="277.5" y2="925.5" stroke="#111" stroke-width="1.2"/><line x1="266.5" y1="925.5" x2="277.5" y2="914.5" stroke="#111" stroke-width="1.2"/><rect x="482.5" y="914.5" width="11" height="11" fill="#fff" stroke="#111" stroke-width="1.0"/><line x1="482.5" y1="914.5" x2="493.5" y2="925.5" stroke="#111" stroke-width="1.2"/><line x1="482.5" y1="925.5" x2="493.5" y2="914.5" stroke="#111" stroke-width="1.2"/><rect x="122.5" y="770.5" width="11" height="11" fill="#fff" stroke="#111" stroke-width="1.0"/><line x1="122.5" y1="770.5" x2="133.5" y2="781.5" stroke="#111" stroke-width="1.2"/><line x1="122.5" y1="781.5" x2="133.5" y2="770.5" stroke="#111" stroke-width="1.2"/><rect x="698.5" y="770.5" width="11" height="11" fill="#fff" stroke="#111" stroke-width="1.0"/><line x1="698.5" y1="770.5" x2="709.5" y2="781.5" stroke="#111" stroke-width="1.2"/><line x1="698.5" y1="781.5" x2="709.5" y2="770.5" stroke="#111" stroke-width="1.2"/><rect x="122.5" y="482.5" width="11" height="11" fill="#fff" stroke="#111" stroke-width="1.0"/><line x1="122.5" y1="482.5" x2="133.5" y2="493.5" stroke="#111" stroke-width="1.2"/><line x1="122.5" y1="493.5" x2="133.5" y2="482.5" stroke="#111" stroke-width="1.2"/><rect x="698.5" y="482.5" width="11" height="11" fill="#fff" stroke="#111" stroke-width="1.0"/><line x1="698.5" y1="482.5" x2="709.5" y2="493.5" stroke="#111" stroke-width="1.2"/><line x1="698.5" y1="493.5" x2="709.5" y2="482.5" stroke="#111" stroke-width="1.2"/><rect x="266.5" y="194.5" width="11" height="11" fill="#fff" stroke="#111" stroke-width="1.0"/><line x1="266.5" y1="194.5" x2="277.5" y2="205.5" stroke="#111" stroke-width="1.2"/><line x1="266.5" y1="205.5" x2="277.5" y2="194.5" stroke="#111" stroke-width="1.2"/><rect x="482.5" y="194.5" width="11" height="11" fill="#fff" stroke="#111" stroke-width="1.0"/><line x1="482.5" y1="194.5" x2="493.5" y2="205.5" stroke="#111" stroke-width="1.2"/><line x1="482.5" y1="205.5" x2="493.5" y2="194.5" stroke="#111" stroke-width="1.2"/><rect x="266.5" y="770.5" width="11" height="11" fill="#fff" stroke="#111" stroke-width="1.0"/><line x1="266.5" y1="770.5" x2="277.5" y2="781.5" stroke="#111" stroke-width="1.2"/><line x1="266.5" y1="781.5" x2="277.5" y2="770.5" stroke="#111" stroke-width="1.2"/><rect x="482.5" y="770.5" width="11" height="11" fill="#fff" stroke="#111" stroke-width="1.0"/><line x1="482.5" y1="770.5" x2="493.5" y2="781.5" stroke="#111" stroke-width="1.2"/><line x1="482.5" y1="781.5" x2="493.5" y2="770.5" stroke="#111" stroke-width="1.2"/><rect x="266.5" y="482.5" width="11" height="11" fill="#fff" stroke="#111" stroke-width="1.0"/><line x1="266.5" y1="482.5" x2="277.5" y2="493.5" stroke="#111" stroke-width="1.2"/><line x1="266.5" y1="493.5" x2="277.5" y2="482.5" stroke="#111" stroke-width="1.2"/><rect x="482.5" y="482.5" width="11" height="11" fill="#fff" stroke="#111" stroke-width="1.0"/><line x1="482.5" y1="482.5" x2="493.5" y2="493.5" stroke="#111" stroke-width="1.2"/><line x1="482.5" y1="493.5" x2="493.5" y2="482.5" stroke="#111" stroke-width="1.2"/><rect x="122.5" y="914.5" width="11" height="11" fill="#fff" stroke="#111" stroke-width="1.0"/><circle cx="128" cy="920" r="9.5" fill="none" stroke="#111" stroke-width="1.2"/><rect x="698.5" y="914.5" width="11" height="11" fill="#fff" stroke="#111" stroke-width="1.0"/><circle cx="704" cy="920" r="9.5" fill="none" stroke="#111" stroke-width="1.2"/><rect x="122.5" y="194.5" width="11" height="11" fill="#fff" stroke="#111" stroke-width="1.0"/><circle cx="128" cy="200" r="9.5" fill="none" stroke="#111" stroke-width="1.2"/><rect x="698.5" y="194.5" width="11" height="11" fill="#fff" stroke="#111" stroke-width="1.0"/><circle cx="704" cy="200" r="9.5" fill="none" stroke="#111" stroke-width="1.2"/><text x="416" y="911.25" font-size="9.5" text-anchor="middle" fill="#111" font-weight="400" font-family="'Hiragino Sans','Hiragino Kaku Gothic ProN','Noto Sans JP','Yu Gothic',Meiryo,'IPAGothic',sans-serif">120×240</text><text x="416" y="191.25" font-size="9.5" text-anchor="middle" fill="#111" font-weight="400" font-family="'Hiragino Sans','Hiragino Kaku Gothic ProN','Noto Sans JP','Yu Gothic',Meiryo,'IPAGothic',sans-serif">120×240</text><g transform="translate(143.75,560) rotate(-90)"><text x="0" y="0" font-size="9.5" text-anchor="middle" fill="#111" font-weight="400" font-family="'Hiragino Sans','Hiragino Kaku Gothic ProN','Noto Sans JP','Yu Gothic',Meiryo,'IPAGothic',sans-serif">120×240</text></g><g transform="translate(287.75,560) rotate(-90)"><text x="0" y="0" font-size="9.5" text-anchor="middle" fill="#111" font-weight="400" font-family="'Hiragino Sans','Hiragino Kaku Gothic ProN','Noto Sans JP','Yu Gothic',Meiryo,'IPAGothic',sans-serif">120×240</text></g><g transform="translate(503.75,560) rotate(-90)"><text x="0" y="0" font-size="9.5" text-anchor="middle" fill="#111" font-weight="400" font-family="'Hiragino Sans','Hiragino Kaku Gothic ProN','Noto Sans JP','Yu Gothic',Meiryo,'IPAGothic',sans-serif">120×240</text></g><g transform="translate(719.75,560) rotate(-90)"><text x="0" y="0" font-size="9.5" text-anchor="middle" fill="#111" font-weight="400" font-family="'Hiragino Sans','Hiragino Kaku Gothic ProN','Noto Sans JP','Yu Gothic',Meiryo,'IPAGothic',sans-serif">120×240</text></g><text x="200" y="767.25" font-size="9.5" text-anchor="middle" fill="#111" font-weight="400" font-family="'Hiragino Sans','Hiragino Kaku Gothic ProN','Noto Sans JP','Yu Gothic',Meiryo,'IPAGothic',sans-serif">120×240</text><text x="380" y="767.25" font-size="9.5" text-anchor="middle" fill="#111" font-weight="400" font-family="'Hiragino Sans','Hiragino Kaku Gothic ProN','Noto Sans JP','Yu Gothic',Meiryo,'IPAGothic',sans-serif">120×240</text><text x="596" y="767.25" font-size="9.5" text-anchor="middle" fill="#111" font-weight="400" font-family="'Hiragino Sans','Hiragino Kaku Gothic ProN','Noto Sans JP','Yu Gothic',Meiryo,'IPAGothic',sans-serif">120×240</text><text x="200" y="623.25" font-size="9.5" text-anchor="middle" fill="#111" font-weight="400" font-family="'Hiragino Sans','Hiragino Kaku Gothic ProN','Noto Sans JP','Yu Gothic',Meiryo,'IPAGothic',sans-serif">120×240</text><text x="380" y="623.25" font-size="9.5" text-anchor="middle" fill="#111" font-weight="400" font-family="'Hiragino Sans','Hiragino Kaku Gothic ProN','Noto Sans JP','Yu Gothic',Meiryo,'IPAGothic',sans-serif">120×240</text><text x="596" y="623.25" font-size="9.5" text-anchor="middle" fill="#111" font-weight="400" font-family="'Hiragino Sans','Hiragino Kaku Gothic ProN','Noto Sans JP','Yu Gothic',Meiryo,'IPAGothic',sans-serif">120×240</text><text x="200" y="479.25" font-size="9.5" text-anchor="middle" fill="#111" font-weight="400" font-family="'Hiragino Sans','Hiragino Kaku Gothic ProN','Noto Sans JP','Yu Gothic',Meiryo,'IPAGothic',sans-serif">120×240</text><text x="380" y="479.25" font-size="9.5" text-anchor="middle" fill="#111" font-weight="400" font-family="'Hiragino Sans','Hiragino Kaku Gothic ProN','Noto Sans JP','Yu Gothic',Meiryo,'IPAGothic',sans-serif">120×240</text><text x="596" y="479.25" font-size="9.5" text-anchor="middle" fill="#111" font-weight="400" font-family="'Hiragino Sans','Hiragino Kaku Gothic ProN','Noto Sans JP','Yu Gothic',Meiryo,'IPAGothic',sans-serif">120×240</text><text x="200" y="335.25" font-size="9.5" text-anchor="middle" fill="#111" font-weight="400" font-family="'Hiragino Sans','Hiragino Kaku Gothic ProN','Noto Sans JP','Yu Gothic',Meiryo,'IPAGothic',sans-serif">120×240</text><text x="380" y="335.25" font-size="9.5" text-anchor="middle" fill="#111" font-weight="400" font-family="'Hiragino Sans','Hiragino Kaku Gothic ProN','Noto Sans JP','Yu Gothic',Meiryo,'IPAGothic',sans-serif">120×240</text><text x="596" y="335.25" font-size="9.5" text-anchor="middle" fill="#111" font-weight="400" font-family="'Hiragino Sans','Hiragino Kaku Gothic ProN','Noto Sans JP','Yu Gothic',Meiryo,'IPAGothic',sans-serif">120×240</text><circle cx="128" cy="170" r="10" fill="#fff" stroke="#111" stroke-width="1.0"/><text x="128" y="174" font-size="11" text-anchor="middle" fill="#111" font-weight="700" font-family="'Hiragino Sans','Hiragino Kaku Gothic ProN','Noto Sans JP','Yu Gothic',Meiryo,'IPAGothic',sans-serif">A</text><circle cx="272" cy="170" r="10" fill="#fff" stroke="#111" stroke-width="1.0"/><text x="272" y="174" font-size="11" text-anchor="middle" fill="#111" font-weight="700" font-family="'Hiragino Sans','Hiragino Kaku Gothic ProN','Noto Sans JP','Yu Gothic',Meiryo,'IPAGothic',sans-serif">B</text><circle cx="488" cy="170" r="10" fill="#fff" stroke="#111" stroke-width="1.0"/><text x="488" y="174" font-size="11" text-anchor="middle" fill="#111" font-weight="700" font-family="'Hiragino Sans','Hiragino Kaku Gothic ProN','Noto Sans JP','Yu Gothic',Meiryo,'IPAGothic',sans-serif">C</text><circle cx="704" cy="170" r="10" fill="#fff" stroke="#111" stroke-width="1.0"/><text x="704" y="174" font-size="11" text-anchor="middle" fill="#111" font-weight="700" font-family="'Hiragino Sans','Hiragino Kaku Gothic ProN','Noto Sans JP','Yu Gothic',Meiryo,'IPAGothic',sans-serif">D</text><circle cx="96" cy="920" r="10" fill="#fff" stroke="#111" stroke-width="1.0"/><text x="96" y="924" font-size="11" text-anchor="middle" fill="#111" font-weight="700" font-family="'Hiragino Sans','Hiragino Kaku Gothic ProN','Noto Sans JP','Yu Gothic',Meiryo,'IPAGothic',sans-serif">1</text><circle cx="96" cy="776" r="10" fill="#fff" stroke="#111" stroke-width="1.0"/><text x="96" y="780" font-size="11" text-anchor="middle" fill="#111" font-weight="700" font-family="'Hiragino Sans','Hiragino Kaku Gothic ProN','Noto Sans JP','Yu Gothic',Meiryo,'IPAGothic',sans-serif">2</text><circle cx="96" cy="488" r="10" fill="#fff" stroke="#111" stroke-width="1.0"/><text x="96" y="492" font-size="11" text-anchor="middle" fill="#111" font-weight="700" font-family="'Hiragino Sans','Hiragino Kaku Gothic ProN','Noto Sans JP','Yu Gothic',Meiryo,'IPAGothic',sans-serif">3</text><circle cx="96" cy="200" r="10" fill="#fff" stroke="#111" stroke-width="1.0"/><text x="96" y="204" font-size="11" text-anchor="middle" fill="#111" font-weight="700" font-family="'Hiragino Sans','Hiragino Kaku Gothic ProN','Noto Sans JP','Yu Gothic',Meiryo,'IPAGothic',sans-serif">4</text><line x1="128" y1="960" x2="272" y2="960" stroke="#444" stroke-width="0.8"/><line x1="128" y1="956" x2="128" y2="964" stroke="#444" stroke-width="0.8"/><line x1="272" y1="956" x2="272" y2="964" stroke="#444" stroke-width="0.8"/><text x="200" y="955" font-size="9.5" text-anchor="middle" fill="#444" font-weight="400" font-family="'Hiragino Sans','Hiragino Kaku Gothic ProN','Noto Sans JP','Yu Gothic',Meiryo,'IPAGothic',sans-serif">1,820</text><line x1="272" y1="960" x2="488" y2="960" stroke="#444" stroke-width="0.8"/><line x1="272" y1="956" x2="272" y2="964" stroke="#444" stroke-width="0.8"/><line x1="488" y1="956" x2="488" y2="964" stroke="#444" stroke-width="0.8"/><text x="380" y="955" font-size="9.5" text-anchor="middle" fill="#444" font-weight="400" font-family="'Hiragino Sans','Hiragino Kaku Gothic ProN','Noto Sans JP','Yu Gothic',Meiryo,'IPAGothic',sans-serif">2,730</text><line x1="488" y1="960" x2="704" y2="960" stroke="#444" stroke-width="0.8"/><line x1="488" y1="956" x2="488" y2="964" stroke="#444" stroke-width="0.8"/><line x1="704" y1="956" x2="704" y2="964" stroke="#444" stroke-width="0.8"/><text x="596" y="955" font-size="9.5" text-anchor="middle" fill="#444" font-weight="400" font-family="'Hiragino Sans','Hiragino Kaku Gothic ProN','Noto Sans JP','Yu Gothic',Meiryo,'IPAGothic',sans-serif">2,730</text><line x1="128" y1="990" x2="704" y2="990" stroke="#444" stroke-width="0.8"/><line x1="128" y1="986" x2="128" y2="994" stroke="#444" stroke-width="0.8"/><line x1="704" y1="986" x2="704" y2="994" stroke="#444" stroke-width="0.8"/><text x="416" y="985" font-size="11" text-anchor="middle" fill="#444" font-weight="400" font-family="'Hiragino Sans','Hiragino Kaku Gothic ProN','Noto Sans JP','Yu Gothic',Meiryo,'IPAGothic',sans-serif">7,280</text><line x1="750" y1="920" x2="750" y2="776" stroke="#444" stroke-width="0.8"/><line x1="746" y1="920" x2="754" y2="920" stroke="#444" stroke-width="0.8"/><line x1="746" y1="776" x2="754" y2="776" stroke="#444" stroke-width="0.8"/><text x="756" y="852" font-size="9.5" text-anchor="start" fill="#444" font-weight="400" font-family="'Hiragino Sans','Hiragino Kaku Gothic ProN','Noto Sans JP','Yu Gothic',Meiryo,'IPAGothic',sans-serif">1,820</text><line x1="750" y1="776" x2="750" y2="488" stroke="#444" stroke-width="0.8"/><line x1="746" y1="776" x2="754" y2="776" stroke="#444" stroke-width="0.8"/><line x1="746" y1="488" x2="754" y2="488" stroke="#444" stroke-width="0.8"/><text x="756" y="636" font-size="9.5" text-anchor="start" fill="#444" font-weight="400" font-family="'Hiragino Sans','Hiragino Kaku Gothic ProN','Noto Sans JP','Yu Gothic',Meiryo,'IPAGothic',sans-serif">3,640</text><line x1="750" y1="488" x2="750" y2="200" stroke="#444" stroke-width="0.8"/><line x1="746" y1="488" x2="754" y2="488" stroke="#444" stroke-width="0.8"/><line x1="746" y1="200" x2="754" y2="200" stroke="#444" stroke-width="0.8"/><text x="756" y="348" font-size="9.5" text-anchor="start" fill="#444" font-weight="400" font-family="'Hiragino Sans','Hiragino Kaku Gothic ProN','Noto Sans JP','Yu Gothic',Meiryo,'IPAGothic',sans-serif">3,640</text><line x1="788" y1="920" x2="788" y2="200" stroke="#444" stroke-width="0.8"/><line x1="784" y1="920" x2="792" y2="920" stroke="#444" stroke-width="0.8"/><line x1="784" y1="200" x2="792" y2="200" stroke="#444" stroke-width="0.8"/><text x="794" y="564" font-size="11" text-anchor="start" fill="#444" font-weight="400" font-family="'Hiragino Sans','Hiragino Kaku Gothic ProN','Noto Sans JP','Yu Gothic',Meiryo,'IPAGothic',sans-serif">9,100</text><rect x="854" y="88" width="366" height="946" fill="#fcfcfb" stroke="#e0ded8" stroke-width="1.0" rx="10"/><text x="866" y="126" font-size="15" text-anchor="start" fill="#111" font-weight="700" font-family="'Hiragino Sans','Hiragino Kaku Gothic ProN','Noto Sans JP','Yu Gothic',Meiryo,'IPAGothic',sans-serif">この1枚に入っているもの</text><line x1="866" y1="166" x2="1202" y2="166" stroke="#eee" stroke-width="0.8"/><text x="866" y="152" font-size="12.5" text-anchor="start" fill="#111" font-weight="700" font-family="'Hiragino Sans','Hiragino Kaku Gothic ProN','Noto Sans JP','Yu Gothic',Meiryo,'IPAGothic',sans-serif">軒桁</text><text x="974" y="152" font-size="12" text-anchor="start" fill="#c0392b" font-weight="700" font-family="'Hiragino Sans','Hiragino Kaku Gothic ProN','Noto Sans JP','Yu Gothic',Meiryo,'IPAGothic',sans-serif">120×240</text><text x="1060" y="152" font-size="10.5" text-anchor="start" fill="#777" font-weight="400" font-family="'Hiragino Sans','Hiragino Kaku Gothic ProN','Noto Sans JP','Yu Gothic',Meiryo,'IPAGothic',sans-serif">A・B・C・D通り（南北）</text><line x1="866" y1="196" x2="1202" y2="196" stroke="#eee" stroke-width="0.8"/><text x="866" y="182" font-size="12.5" text-anchor="start" fill="#111" font-weight="700" font-family="'Hiragino Sans','Hiragino Kaku Gothic ProN','Noto Sans JP','Yu Gothic',Meiryo,'IPAGothic',sans-serif">妻梁</text><text x="974" y="182" font-size="12" text-anchor="start" fill="#c0392b" font-weight="700" font-family="'Hiragino Sans','Hiragino Kaku Gothic ProN','Noto Sans JP','Yu Gothic',Meiryo,'IPAGothic',sans-serif">120×240</text><text x="1060" y="182" font-size="10.5" text-anchor="start" fill="#777" font-weight="400" font-family="'Hiragino Sans','Hiragino Kaku Gothic ProN','Noto Sans JP','Yu Gothic',Meiryo,'IPAGothic',sans-serif">1通りと4通り（東西）</text><line x1="866" y1="226" x2="1202" y2="226" stroke="#eee" stroke-width="0.8"/><text x="866" y="212" font-size="12.5" text-anchor="start" fill="#111" font-weight="700" font-family="'Hiragino Sans','Hiragino Kaku Gothic ProN','Noto Sans JP','Yu Gothic',Meiryo,'IPAGothic',sans-serif">小屋梁</text><text x="974" y="212" font-size="12" text-anchor="start" fill="#c0392b" font-weight="700" font-family="'Hiragino Sans','Hiragino Kaku Gothic ProN','Noto Sans JP','Yu Gothic',Meiryo,'IPAGothic',sans-serif">120×240</text><text x="1060" y="212" font-size="10.5" text-anchor="start" fill="#777" font-weight="400" font-family="'Hiragino Sans','Hiragino Kaku Gothic ProN','Noto Sans JP','Yu Gothic',Meiryo,'IPAGothic',sans-serif">東西・1,820おき</text><line x1="866" y1="256" x2="1202" y2="256" stroke="#eee" stroke-width="0.8"/><text x="866" y="242" font-size="12.5" text-anchor="start" fill="#111" font-weight="700" font-family="'Hiragino Sans','Hiragino Kaku Gothic ProN','Noto Sans JP','Yu Gothic',Meiryo,'IPAGothic',sans-serif">棟木</text><text x="974" y="242" font-size="12" text-anchor="start" fill="#c0392b" font-weight="700" font-family="'Hiragino Sans','Hiragino Kaku Gothic ProN','Noto Sans JP','Yu Gothic',Meiryo,'IPAGothic',sans-serif">120×120</text><text x="1060" y="242" font-size="10.5" text-anchor="start" fill="#777" font-weight="400" font-family="'Hiragino Sans','Hiragino Kaku Gothic ProN','Noto Sans JP','Yu Gothic',Meiryo,'IPAGothic',sans-serif">まん中に1本・2本線</text><line x1="866" y1="286" x2="1202" y2="286" stroke="#eee" stroke-width="0.8"/><text x="866" y="272" font-size="12.5" text-anchor="start" fill="#111" font-weight="700" font-family="'Hiragino Sans','Hiragino Kaku Gothic ProN','Noto Sans JP','Yu Gothic',Meiryo,'IPAGothic',sans-serif">母屋</text><text x="974" y="272" font-size="12" text-anchor="start" fill="#c0392b" font-weight="700" font-family="'Hiragino Sans','Hiragino Kaku Gothic ProN','Noto Sans JP','Yu Gothic',Meiryo,'IPAGothic',sans-serif">90×90</text><text x="1060" y="272" font-size="10.5" text-anchor="start" fill="#777" font-weight="400" font-family="'Hiragino Sans','Hiragino Kaku Gothic ProN','Noto Sans JP','Yu Gothic',Meiryo,'IPAGothic',sans-serif">一点鎖線・910おき</text><line x1="866" y1="316" x2="1202" y2="316" stroke="#eee" stroke-width="0.8"/><text x="866" y="302" font-size="12.5" text-anchor="start" fill="#111" font-weight="700" font-family="'Hiragino Sans','Hiragino Kaku Gothic ProN','Noto Sans JP','Yu Gothic',Meiryo,'IPAGothic',sans-serif">小屋束</text><text x="974" y="302" font-size="12" text-anchor="start" fill="#c0392b" font-weight="700" font-family="'Hiragino Sans','Hiragino Kaku Gothic ProN','Noto Sans JP','Yu Gothic',Meiryo,'IPAGothic',sans-serif">90×90</text><text x="1060" y="302" font-size="10.5" text-anchor="start" fill="#777" font-weight="400" font-family="'Hiragino Sans','Hiragino Kaku Gothic ProN','Noto Sans JP','Yu Gothic',Meiryo,'IPAGothic',sans-serif">交点の黒丸（寸法は書かない）</text><line x1="866" y1="346" x2="1202" y2="346" stroke="#eee" stroke-width="0.8"/><text x="866" y="332" font-size="12.5" text-anchor="start" fill="#111" font-weight="700" font-family="'Hiragino Sans','Hiragino Kaku Gothic ProN','Noto Sans JP','Yu Gothic',Meiryo,'IPAGothic',sans-serif">火打梁</text><text x="974" y="332" font-size="12" text-anchor="start" fill="#c0392b" font-weight="700" font-family="'Hiragino Sans','Hiragino Kaku Gothic ProN','Noto Sans JP','Yu Gothic',Meiryo,'IPAGothic',sans-serif">90×90</text><text x="1060" y="332" font-size="10.5" text-anchor="start" fill="#777" font-weight="400" font-family="'Hiragino Sans','Hiragino Kaku Gothic ProN','Noto Sans JP','Yu Gothic',Meiryo,'IPAGothic',sans-serif">破線・8か所</text><line x1="866" y1="376" x2="1202" y2="376" stroke="#eee" stroke-width="0.8"/><text x="866" y="362" font-size="12.5" text-anchor="start" fill="#111" font-weight="700" font-family="'Hiragino Sans','Hiragino Kaku Gothic ProN','Noto Sans JP','Yu Gothic',Meiryo,'IPAGothic',sans-serif">柱</text><text x="974" y="362" font-size="12" text-anchor="start" fill="#c0392b" font-weight="700" font-family="'Hiragino Sans','Hiragino Kaku Gothic ProN','Noto Sans JP','Yu Gothic',Meiryo,'IPAGothic',sans-serif">120×120</text><text x="1060" y="362" font-size="10.5" text-anchor="start" fill="#777" font-weight="400" font-family="'Hiragino Sans','Hiragino Kaku Gothic ProN','Noto Sans JP','Yu Gothic',Meiryo,'IPAGothic',sans-serif">記号は床伏図と同じ</text><text x="866" y="414" font-size="14" text-anchor="start" fill="#111" font-weight="700" font-family="'Hiragino Sans','Hiragino Kaku Gothic ProN','Noto Sans JP','Yu Gothic',Meiryo,'IPAGothic',sans-serif">描く順番（6手）</text><circle cx="875" cy="436" r="9" fill="#f3efe7" stroke="none"/><text x="875" y="440" font-size="11" text-anchor="middle" fill="#7a6a4a" font-weight="700" font-family="'Hiragino Sans','Hiragino Kaku Gothic ProN','Noto Sans JP','Yu Gothic',Meiryo,'IPAGothic',sans-serif">1</text><text x="892" y="440" font-size="12" text-anchor="start" fill="#333" font-weight="400" font-family="'Hiragino Sans','Hiragino Kaku Gothic ProN','Noto Sans JP','Yu Gothic',Meiryo,'IPAGothic',sans-serif">外周の軒桁・妻梁</text><circle cx="875" cy="462" r="9" fill="#f3efe7" stroke="none"/><text x="875" y="466" font-size="11" text-anchor="middle" fill="#7a6a4a" font-weight="700" font-family="'Hiragino Sans','Hiragino Kaku Gothic ProN','Noto Sans JP','Yu Gothic',Meiryo,'IPAGothic',sans-serif">2</text><text x="892" y="466" font-size="12" text-anchor="start" fill="#333" font-weight="400" font-family="'Hiragino Sans','Hiragino Kaku Gothic ProN','Noto Sans JP','Yu Gothic',Meiryo,'IPAGothic',sans-serif">A〜D通りに軒桁（南北）</text><circle cx="875" cy="488" r="9" fill="#f3efe7" stroke="none"/><text x="875" y="492" font-size="11" text-anchor="middle" fill="#7a6a4a" font-weight="700" font-family="'Hiragino Sans','Hiragino Kaku Gothic ProN','Noto Sans JP','Yu Gothic',Meiryo,'IPAGothic',sans-serif">3</text><text x="892" y="492" font-size="12" text-anchor="start" fill="#333" font-weight="400" font-family="'Hiragino Sans','Hiragino Kaku Gothic ProN','Noto Sans JP','Yu Gothic',Meiryo,'IPAGothic',sans-serif">東西に小屋梁を1,820おき</text><circle cx="875" cy="514" r="9" fill="#f3efe7" stroke="none"/><text x="875" y="518" font-size="11" text-anchor="middle" fill="#7a6a4a" font-weight="700" font-family="'Hiragino Sans','Hiragino Kaku Gothic ProN','Noto Sans JP','Yu Gothic',Meiryo,'IPAGothic',sans-serif">4</text><text x="892" y="518" font-size="12" text-anchor="start" fill="#333" font-weight="400" font-family="'Hiragino Sans','Hiragino Kaku Gothic ProN','Noto Sans JP','Yu Gothic',Meiryo,'IPAGothic',sans-serif">まん中に棟木、910おきに母屋</text><circle cx="875" cy="540" r="9" fill="#f3efe7" stroke="none"/><text x="875" y="544" font-size="11" text-anchor="middle" fill="#7a6a4a" font-weight="700" font-family="'Hiragino Sans','Hiragino Kaku Gothic ProN','Noto Sans JP','Yu Gothic',Meiryo,'IPAGothic',sans-serif">5</text><text x="892" y="544" font-size="12" text-anchor="start" fill="#333" font-weight="400" font-family="'Hiragino Sans','Hiragino Kaku Gothic ProN','Noto Sans JP','Yu Gothic',Meiryo,'IPAGothic',sans-serif">交点ぜんぶに小屋束の黒丸</text><circle cx="875" cy="566" r="9" fill="#f3efe7" stroke="none"/><text x="875" y="570" font-size="11" text-anchor="middle" fill="#7a6a4a" font-weight="700" font-family="'Hiragino Sans','Hiragino Kaku Gothic ProN','Noto Sans JP','Yu Gothic',Meiryo,'IPAGothic',sans-serif">6</text><text x="892" y="570" font-size="12" text-anchor="start" fill="#333" font-weight="400" font-family="'Hiragino Sans','Hiragino Kaku Gothic ProN','Noto Sans JP','Yu Gothic',Meiryo,'IPAGothic',sans-serif">すみに火打梁 → 柱 → 寸法</text><rect x="858" y="596" width="350" height="54" fill="#fdf3e7" stroke="#e0c060" stroke-width="1.0" rx="6"/><text x="866" y="614" font-size="11.5" text-anchor="start" fill="#7a5a10" font-weight="400" font-family="'Hiragino Sans','Hiragino Kaku Gothic ProN','Noto Sans JP','Yu Gothic',Meiryo,'IPAGothic',sans-serif">★ 棟木の下の「棟束」を忘れやすい。</text><text x="866" y="632" font-size="11.5" text-anchor="start" fill="#7a5a10" font-weight="400" font-family="'Hiragino Sans','Hiragino Kaku Gothic ProN','Noto Sans JP','Yu Gothic',Meiryo,'IPAGothic',sans-serif">　　母屋と同じように黒丸をうつ。</text><rect x="858" y="662" width="350" height="74" fill="#f1f8f2" stroke="#b9d8bd" stroke-width="1.0" rx="6"/><text x="866" y="680" font-size="12" text-anchor="start" fill="#1e7e34" font-weight="700" font-family="'Hiragino Sans','Hiragino Kaku Gothic ProN','Noto Sans JP','Yu Gothic',Meiryo,'IPAGothic',sans-serif">★ 断面寸法の書きどころ</text><text x="866" y="700" font-size="11.5" text-anchor="start" fill="#3d6b46" font-weight="400" font-family="'Hiragino Sans','Hiragino Kaku Gothic ProN','Noto Sans JP','Yu Gothic',Meiryo,'IPAGothic',sans-serif">平角材（120×300など）→ 図の中、梁のわき</text><text x="866" y="718" font-size="11.5" text-anchor="start" fill="#3d6b46" font-weight="400" font-family="'Hiragino Sans','Hiragino Kaku Gothic ProN','Noto Sans JP','Yu Gothic',Meiryo,'IPAGothic',sans-serif">正角材（120×120・90×90）→ 凡例欄</text><text x="620" y="1046" font-size="12.5" text-anchor="middle" fill="#555" font-weight="400" font-family="'Hiragino Sans','Hiragino Kaku Gothic ProN','Noto Sans JP','Yu Gothic',Meiryo,'IPAGothic',sans-serif">目安35分（2枚あわせて）。まず外周、つぎに太い梁、最後に細い梁と記号と寸法。</text></svg>