<svg xmlns="http://www.w3.org/2000/svg" viewBox="0 0 660 944" width="660" height="944" font-family="'Hiragino Sans','Hiragino Kaku Gothic ProN','Noto Sans JP','Yu Gothic',Meiryo,'IPAGothic',sans-serif"><rect width="660" height="944" fill="#ffffff"/><text x="330" y="34" font-size="21" text-anchor="middle" fill="#111" font-weight="700" font-family="'Hiragino Sans','Hiragino Kaku Gothic ProN','Noto Sans JP','Yu Gothic',Meiryo,'IPAGothic',sans-serif">エスキスの山場「スパンをどこで割るか」</text><text x="330" y="57" font-size="12" text-anchor="middle" fill="#666" font-weight="400" font-family="'Hiragino Sans','Hiragino Kaku Gothic ProN','Noto Sans JP','Yu Gothic',Meiryo,'IPAGothic',sans-serif">1階は最後。2階と3階から決める</text><rect x="0" y="74" width="660" height="282" fill="#fbfaf8" stroke="none"/><rect x="28" y="86" width="46" height="17" fill="#eee5da" stroke="none" rx="3"/><text x="51" y="98" font-size="10" text-anchor="middle" fill="#9a6b3a" font-weight="700" font-family="'Hiragino Sans','Hiragino Kaku Gothic ProN','Noto Sans JP','Yu Gothic',Meiryo,'IPAGothic',sans-serif">その1</text><text x="84" y="99" font-size="14.5" text-anchor="start" fill="#111" font-weight="700" font-family="'Hiragino Sans','Hiragino Kaku Gothic ProN','Noto Sans JP','Yu Gothic',Meiryo,'IPAGothic',sans-serif">まず3階と2階。主要室「以外」を先に置く</text><rect x="90" y="116" width="136" height="170" fill="#fff" stroke="#bbb" stroke-width="1.0"/><line x1="107" y1="116" x2="107" y2="286" stroke="#eee" stroke-width="0.6"/><line x1="124" y1="116" x2="124" y2="286" stroke="#eee" stroke-width="0.6"/><line x1="141" y1="116" x2="141" y2="286" stroke="#eee" stroke-width="0.6"/><line x1="158" y1="116" x2="158" y2="286" stroke="#eee" stroke-width="0.6"/><line x1="175" y1="116" x2="175" y2="286" stroke="#eee" stroke-width="0.6"/><line x1="192" y1="116" x2="192" y2="286" stroke="#eee" stroke-width="0.6"/><line x1="209" y1="116" x2="209" y2="286" stroke="#eee" stroke-width="0.6"/><line x1="90" y1="133" x2="226" y2="133" stroke="#eee" stroke-width="0.6"/><line x1="90" y1="150" x2="226" y2="150" stroke="#eee" stroke-width="0.6"/><line x1="90" y1="167" x2="226" y2="167" stroke="#eee" stroke-width="0.6"/><line x1="90" y1="184" x2="226" y2="184" stroke="#eee" stroke-width="0.6"/><line x1="90" y1="201" x2="226" y2="201" stroke="#eee" stroke-width="0.6"/><line x1="90" y1="218" x2="226" y2="218" stroke="#eee" stroke-width="0.6"/><line x1="90" y1="235" x2="226" y2="235" stroke="#eee" stroke-width="0.6"/><line x1="90" y1="252" x2="226" y2="252" stroke="#eee" stroke-width="0.6"/><line x1="90" y1="269" x2="226" y2="269" stroke="#eee" stroke-width="0.6"/><text x="158" y="303" font-size="11" text-anchor="middle" fill="#111" font-weight="700" font-family="'Hiragino Sans','Hiragino Kaku Gothic ProN','Noto Sans JP','Yu Gothic',Meiryo,'IPAGothic',sans-serif">3階　主要室以外を先に</text><rect x="90" y="116" width="34" height="68" fill="#dbe6f2" stroke="#9aa" stroke-width="0.8"/><text x="107" y="153" font-size="9" text-anchor="middle" fill="#111" font-weight="400" font-family="'Hiragino Sans','Hiragino Kaku Gothic ProN','Noto Sans JP','Yu Gothic',Meiryo,'IPAGothic',sans-serif">階段</text><rect x="124" y="116" width="34" height="34" fill="#dbe6f2" stroke="#9aa" stroke-width="0.8"/><text x="141" y="136" font-size="9" text-anchor="middle" fill="#111" font-weight="400" font-family="'Hiragino Sans','Hiragino Kaku Gothic ProN','Noto Sans JP','Yu Gothic',Meiryo,'IPAGothic',sans-serif">便所</text><rect x="158" y="116" width="68" height="34" fill="#dbe6f2" stroke="#9aa" stroke-width="0.8"/><text x="192" y="136" font-size="9" text-anchor="middle" fill="#111" font-weight="400" font-family="'Hiragino Sans','Hiragino Kaku Gothic ProN','Noto Sans JP','Yu Gothic',Meiryo,'IPAGothic',sans-serif">納戸</text><rect x="280" y="116" width="136" height="170" fill="#fff" stroke="#bbb" stroke-width="1.0"/><line x1="297" y1="116" x2="297" y2="286" stroke="#eee" stroke-width="0.6"/><line x1="314" y1="116" x2="314" y2="286" stroke="#eee" stroke-width="0.6"/><line x1="331" y1="116" x2="331" y2="286" stroke="#eee" stroke-width="0.6"/><line x1="348" y1="116" x2="348" y2="286" stroke="#eee" stroke-width="0.6"/><line x1="365" y1="116" x2="365" y2="286" stroke="#eee" stroke-width="0.6"/><line x1="382" y1="116" x2="382" y2="286" stroke="#eee" stroke-width="0.6"/><line x1="399" y1="116" x2="399" y2="286" stroke="#eee" stroke-width="0.6"/><line x1="280" y1="133" x2="416" y2="133" stroke="#eee" stroke-width="0.6"/><line x1="280" y1="150" x2="416" y2="150" stroke="#eee" stroke-width="0.6"/><line x1="280" y1="167" x2="416" y2="167" stroke="#eee" stroke-width="0.6"/><line x1="280" y1="184" x2="416" y2="184" stroke="#eee" stroke-width="0.6"/><line x1="280" y1="201" x2="416" y2="201" stroke="#eee" stroke-width="0.6"/><line x1="280" y1="218" x2="416" y2="218" stroke="#eee" stroke-width="0.6"/><line x1="280" y1="235" x2="416" y2="235" stroke="#eee" stroke-width="0.6"/><line x1="280" y1="252" x2="416" y2="252" stroke="#eee" stroke-width="0.6"/><line x1="280" y1="269" x2="416" y2="269" stroke="#eee" stroke-width="0.6"/><text x="348" y="303" font-size="11" text-anchor="middle" fill="#111" font-weight="700" font-family="'Hiragino Sans','Hiragino Kaku Gothic ProN','Noto Sans JP','Yu Gothic',Meiryo,'IPAGothic',sans-serif">2階　主要室以外を先に</text><rect x="280" y="116" width="34" height="68" fill="#dbe6f2" stroke="#9aa" stroke-width="0.8"/><text x="297" y="153" font-size="9" text-anchor="middle" fill="#111" font-weight="400" font-family="'Hiragino Sans','Hiragino Kaku Gothic ProN','Noto Sans JP','Yu Gothic',Meiryo,'IPAGothic',sans-serif">階段</text><rect x="314" y="116" width="51" height="34" fill="#dbe6f2" stroke="#9aa" stroke-width="0.8"/><text x="339.5" y="136" font-size="9" text-anchor="middle" fill="#111" font-weight="400" font-family="'Hiragino Sans','Hiragino Kaku Gothic ProN','Noto Sans JP','Yu Gothic',Meiryo,'IPAGothic',sans-serif">洗面・浴室</text><rect x="365" y="116" width="51" height="34" fill="#dbe6f2" stroke="#9aa" stroke-width="0.8"/><text x="390.5" y="136" font-size="9" text-anchor="middle" fill="#111" font-weight="400" font-family="'Hiragino Sans','Hiragino Kaku Gothic ProN','Noto Sans JP','Yu Gothic',Meiryo,'IPAGothic',sans-serif">便所</text><text x="474" y="152" font-size="12" text-anchor="start" fill="#111" font-weight="700" font-family="'Hiragino Sans','Hiragino Kaku Gothic ProN','Noto Sans JP','Yu Gothic',Meiryo,'IPAGothic',sans-serif">先に取るもの</text><text x="474" y="172" font-size="11.5" text-anchor="start" fill="#444" font-weight="400" font-family="'Hiragino Sans','Hiragino Kaku Gothic ProN','Noto Sans JP','Yu Gothic',Meiryo,'IPAGothic',sans-serif">・階段（3階とも同じ位置）</text><text x="474" y="192" font-size="11.5" text-anchor="start" fill="#444" font-weight="400" font-family="'Hiragino Sans','Hiragino Kaku Gothic ProN','Noto Sans JP','Yu Gothic',Meiryo,'IPAGothic',sans-serif">・水まわり（上下でそろえる）</text><text x="474" y="212" font-size="11.5" text-anchor="start" fill="#444" font-weight="400" font-family="'Hiragino Sans','Hiragino Kaku Gothic ProN','Noto Sans JP','Yu Gothic',Meiryo,'IPAGothic',sans-serif">・便所、納戸、廊下</text><text x="474" y="232" font-size="6" text-anchor="start" fill="#444" font-weight="400" font-family="'Hiragino Sans','Hiragino Kaku Gothic ProN','Noto Sans JP','Yu Gothic',Meiryo,'IPAGothic',sans-serif"></text><text x="474" y="252" font-size="12" text-anchor="start" fill="#c0392b" font-weight="700" font-family="'Hiragino Sans','Hiragino Kaku Gothic ProN','Noto Sans JP','Yu Gothic',Meiryo,'IPAGothic',sans-serif">これは動かせないので、</text><text x="474" y="272" font-size="12" text-anchor="start" fill="#c0392b" font-weight="700" font-family="'Hiragino Sans','Hiragino Kaku Gothic ProN','Noto Sans JP','Yu Gothic',Meiryo,'IPAGothic',sans-serif">先に場所を決める。</text><rect x="0" y="366" width="660" height="282" fill="#fbfaf8" stroke="none"/><rect x="28" y="378" width="46" height="17" fill="#eee5da" stroke="none" rx="3"/><text x="51" y="390" font-size="10" text-anchor="middle" fill="#9a6b3a" font-weight="700" font-family="'Hiragino Sans','Hiragino Kaku Gothic ProN','Noto Sans JP','Yu Gothic',Meiryo,'IPAGothic',sans-serif">その2</text><text x="84" y="391" font-size="14.5" text-anchor="start" fill="#111" font-weight="700" font-family="'Hiragino Sans','Hiragino Kaku Gothic ProN','Noto Sans JP','Yu Gothic',Meiryo,'IPAGothic',sans-serif">主要室を押し込む → ここでスパンが決まる</text><rect x="90" y="408" width="136" height="170" fill="#fff" stroke="#bbb" stroke-width="1.0"/><line x1="107" y1="408" x2="107" y2="578" stroke="#eee" stroke-width="0.6"/><line x1="124" y1="408" x2="124" y2="578" stroke="#eee" stroke-width="0.6"/><line x1="141" y1="408" x2="141" y2="578" stroke="#eee" stroke-width="0.6"/><line x1="158" y1="408" x2="158" y2="578" stroke="#eee" stroke-width="0.6"/><line x1="175" y1="408" x2="175" y2="578" stroke="#eee" stroke-width="0.6"/><line x1="192" y1="408" x2="192" y2="578" stroke="#eee" stroke-width="0.6"/><line x1="209" y1="408" x2="209" y2="578" stroke="#eee" stroke-width="0.6"/><line x1="90" y1="425" x2="226" y2="425" stroke="#eee" stroke-width="0.6"/><line x1="90" y1="442" x2="226" y2="442" stroke="#eee" stroke-width="0.6"/><line x1="90" y1="459" x2="226" y2="459" stroke="#eee" stroke-width="0.6"/><line x1="90" y1="476" x2="226" y2="476" stroke="#eee" stroke-width="0.6"/><line x1="90" y1="493" x2="226" y2="493" stroke="#eee" stroke-width="0.6"/><line x1="90" y1="510" x2="226" y2="510" stroke="#eee" stroke-width="0.6"/><line x1="90" y1="527" x2="226" y2="527" stroke="#eee" stroke-width="0.6"/><line x1="90" y1="544" x2="226" y2="544" stroke="#eee" stroke-width="0.6"/><line x1="90" y1="561" x2="226" y2="561" stroke="#eee" stroke-width="0.6"/><text x="158" y="595" font-size="11" text-anchor="middle" fill="#111" font-weight="700" font-family="'Hiragino Sans','Hiragino Kaku Gothic ProN','Noto Sans JP','Yu Gothic',Meiryo,'IPAGothic',sans-serif">3階　主要室が入った</text><rect x="90" y="408" width="34" height="68" fill="#dbe6f2" stroke="#9aa" stroke-width="0.8"/><text x="107" y="445" font-size="9" text-anchor="middle" fill="#111" font-weight="400" font-family="'Hiragino Sans','Hiragino Kaku Gothic ProN','Noto Sans JP','Yu Gothic',Meiryo,'IPAGothic',sans-serif">階段</text><rect x="124" y="408" width="34" height="34" fill="#dbe6f2" stroke="#9aa" stroke-width="0.8"/><text x="141" y="428" font-size="9" text-anchor="middle" fill="#111" font-weight="400" font-family="'Hiragino Sans','Hiragino Kaku Gothic ProN','Noto Sans JP','Yu Gothic',Meiryo,'IPAGothic',sans-serif">便所</text><rect x="158" y="408" width="68" height="34" fill="#dbe6f2" stroke="#9aa" stroke-width="0.8"/><text x="192" y="428" font-size="9" text-anchor="middle" fill="#111" font-weight="400" font-family="'Hiragino Sans','Hiragino Kaku Gothic ProN','Noto Sans JP','Yu Gothic',Meiryo,'IPAGothic',sans-serif">納戸</text><rect x="124" y="442" width="51" height="68" fill="#fbe3cd" stroke="#9aa" stroke-width="0.8"/><text x="149.5" y="479" font-size="9" text-anchor="middle" fill="#111" font-weight="400" font-family="'Hiragino Sans','Hiragino Kaku Gothic ProN','Noto Sans JP','Yu Gothic',Meiryo,'IPAGothic',sans-serif">子供室</text><rect x="175" y="442" width="51" height="68" fill="#fbe3cd" stroke="#9aa" stroke-width="0.8"/><text x="200.5" y="479" font-size="9" text-anchor="middle" fill="#111" font-weight="400" font-family="'Hiragino Sans','Hiragino Kaku Gothic ProN','Noto Sans JP','Yu Gothic',Meiryo,'IPAGothic',sans-serif">子供室</text><rect x="90" y="510" width="136" height="68" fill="#fbe3cd" stroke="#9aa" stroke-width="0.8"/><text x="158" y="547" font-size="9" text-anchor="middle" fill="#111" font-weight="400" font-family="'Hiragino Sans','Hiragino Kaku Gothic ProN','Noto Sans JP','Yu Gothic',Meiryo,'IPAGothic',sans-serif">夫婦寝室</text><line x1="82" y1="510" x2="234" y2="510" stroke="#c0392b" stroke-width="1.6" stroke-dasharray="6 3"/><rect x="280" y="408" width="136" height="170" fill="#fff" stroke="#bbb" stroke-width="1.0"/><line x1="297" y1="408" x2="297" y2="578" stroke="#eee" stroke-width="0.6"/><line x1="314" y1="408" x2="314" y2="578" stroke="#eee" stroke-width="0.6"/><line x1="331" y1="408" x2="331" y2="578" stroke="#eee" stroke-width="0.6"/><line x1="348" y1="408" x2="348" y2="578" stroke="#eee" stroke-width="0.6"/><line x1="365" y1="408" x2="365" y2="578" stroke="#eee" stroke-width="0.6"/><line x1="382" y1="408" x2="382" y2="578" stroke="#eee" stroke-width="0.6"/><line x1="399" y1="408" x2="399" y2="578" stroke="#eee" stroke-width="0.6"/><line x1="280" y1="425" x2="416" y2="425" stroke="#eee" stroke-width="0.6"/><line x1="280" y1="442" x2="416" y2="442" stroke="#eee" stroke-width="0.6"/><line x1="280" y1="459" x2="416" y2="459" stroke="#eee" stroke-width="0.6"/><line x1="280" y1="476" x2="416" y2="476" stroke="#eee" stroke-width="0.6"/><line x1="280" y1="493" x2="416" y2="493" stroke="#eee" stroke-width="0.6"/><line x1="280" y1="510" x2="416" y2="510" stroke="#eee" stroke-width="0.6"/><line x1="280" y1="527" x2="416" y2="527" stroke="#eee" stroke-width="0.6"/><line x1="280" y1="544" x2="416" y2="544" stroke="#eee" stroke-width="0.6"/><line x1="280" y1="561" x2="416" y2="561" stroke="#eee" stroke-width="0.6"/><text x="348" y="595" font-size="11" text-anchor="middle" fill="#111" font-weight="700" font-family="'Hiragino Sans','Hiragino Kaku Gothic ProN','Noto Sans JP','Yu Gothic',Meiryo,'IPAGothic',sans-serif">2階　主要室が入った</text><rect x="280" y="408" width="34" height="68" fill="#dbe6f2" stroke="#9aa" stroke-width="0.8"/><text x="297" y="445" font-size="9" text-anchor="middle" fill="#111" font-weight="400" font-family="'Hiragino Sans','Hiragino Kaku Gothic ProN','Noto Sans JP','Yu Gothic',Meiryo,'IPAGothic',sans-serif">階段</text><rect x="314" y="408" width="51" height="34" fill="#dbe6f2" stroke="#9aa" stroke-width="0.8"/><text x="339.5" y="428" font-size="9" text-anchor="middle" fill="#111" font-weight="400" font-family="'Hiragino Sans','Hiragino Kaku Gothic ProN','Noto Sans JP','Yu Gothic',Meiryo,'IPAGothic',sans-serif">洗面・浴室</text><rect x="365" y="408" width="51" height="34" fill="#dbe6f2" stroke="#9aa" stroke-width="0.8"/><text x="390.5" y="428" font-size="9" text-anchor="middle" fill="#111" font-weight="400" font-family="'Hiragino Sans','Hiragino Kaku Gothic ProN','Noto Sans JP','Yu Gothic',Meiryo,'IPAGothic',sans-serif">便所</text><rect x="314" y="442" width="51" height="68" fill="#fbe3cd" stroke="#9aa" stroke-width="0.8"/><text x="339.5" y="479" font-size="9" text-anchor="middle" fill="#111" font-weight="400" font-family="'Hiragino Sans','Hiragino Kaku Gothic ProN','Noto Sans JP','Yu Gothic',Meiryo,'IPAGothic',sans-serif">和室</text><rect x="365" y="442" width="51" height="68" fill="#fbe3cd" stroke="#9aa" stroke-width="0.8"/><text x="390.5" y="479" font-size="9" text-anchor="middle" fill="#111" font-weight="400" font-family="'Hiragino Sans','Hiragino Kaku Gothic ProN','Noto Sans JP','Yu Gothic',Meiryo,'IPAGothic',sans-serif">納戸</text><rect x="280" y="510" width="136" height="68" fill="#fbe3cd" stroke="#9aa" stroke-width="0.8"/><text x="348" y="547" font-size="9" text-anchor="middle" fill="#111" font-weight="400" font-family="'Hiragino Sans','Hiragino Kaku Gothic ProN','Noto Sans JP','Yu Gothic',Meiryo,'IPAGothic',sans-serif">LDK</text><line x1="272" y1="510" x2="424" y2="510" stroke="#c0392b" stroke-width="1.6" stroke-dasharray="6 3"/><text x="474" y="444" font-size="12" text-anchor="start" fill="#c0392b" font-weight="700" font-family="'Hiragino Sans','Hiragino Kaku Gothic ProN','Noto Sans JP','Yu Gothic',Meiryo,'IPAGothic',sans-serif">赤い線＝スパン</text><text x="474" y="464" font-size="11.5" text-anchor="start" fill="#444" font-weight="400" font-family="'Hiragino Sans','Hiragino Kaku Gothic ProN','Noto Sans JP','Yu Gothic',Meiryo,'IPAGothic',sans-serif">主要室のはしが、</text><text x="474" y="484" font-size="11.5" text-anchor="start" fill="#444" font-weight="400" font-family="'Hiragino Sans','Hiragino Kaku Gothic ProN','Noto Sans JP','Yu Gothic',Meiryo,'IPAGothic',sans-serif">そのまま柱の通る線</text><text x="474" y="504" font-size="11.5" text-anchor="start" fill="#444" font-weight="400" font-family="'Hiragino Sans','Hiragino Kaku Gothic ProN','Noto Sans JP','Yu Gothic',Meiryo,'IPAGothic',sans-serif">になる。</text><text x="474" y="524" font-size="6" text-anchor="start" fill="#444" font-weight="400" font-family="'Hiragino Sans','Hiragino Kaku Gothic ProN','Noto Sans JP','Yu Gothic',Meiryo,'IPAGothic',sans-serif"></text><text x="474" y="544" font-size="12" text-anchor="start" fill="#111" font-weight="700" font-family="'Hiragino Sans','Hiragino Kaku Gothic ProN','Noto Sans JP','Yu Gothic',Meiryo,'IPAGothic',sans-serif">2階と3階で同じ線が</text><text x="474" y="564" font-size="12" text-anchor="start" fill="#111" font-weight="700" font-family="'Hiragino Sans','Hiragino Kaku Gothic ProN','Noto Sans JP','Yu Gothic',Meiryo,'IPAGothic',sans-serif">使えるか必ず確かめる。</text><rect x="0" y="658" width="660" height="286" fill="#fbfaf8" stroke="none"/><rect x="28" y="670" width="46" height="17" fill="#eee5da" stroke="none" rx="3"/><text x="51" y="682" font-size="10" text-anchor="middle" fill="#9a6b3a" font-weight="700" font-family="'Hiragino Sans','Hiragino Kaku Gothic ProN','Noto Sans JP','Yu Gothic',Meiryo,'IPAGothic',sans-serif">その3</text><text x="84" y="683" font-size="14.5" text-anchor="start" fill="#111" font-weight="700" font-family="'Hiragino Sans','Hiragino Kaku Gothic ProN','Noto Sans JP','Yu Gothic',Meiryo,'IPAGothic',sans-serif">決まったスパンを1階に落とす → 通し柱が確定</text><rect x="90" y="706" width="136" height="170" fill="#fff" stroke="#bbb" stroke-width="1.0"/><line x1="107" y1="706" x2="107" y2="876" stroke="#eee" stroke-width="0.6"/><line x1="124" y1="706" x2="124" y2="876" stroke="#eee" stroke-width="0.6"/><line x1="141" y1="706" x2="141" y2="876" stroke="#eee" stroke-width="0.6"/><line x1="158" y1="706" x2="158" y2="876" stroke="#eee" stroke-width="0.6"/><line x1="175" y1="706" x2="175" y2="876" stroke="#eee" stroke-width="0.6"/><line x1="192" y1="706" x2="192" y2="876" stroke="#eee" stroke-width="0.6"/><line x1="209" y1="706" x2="209" y2="876" stroke="#eee" stroke-width="0.6"/><line x1="90" y1="723" x2="226" y2="723" stroke="#eee" stroke-width="0.6"/><line x1="90" y1="740" x2="226" y2="740" stroke="#eee" stroke-width="0.6"/><line x1="90" y1="757" x2="226" y2="757" stroke="#eee" stroke-width="0.6"/><line x1="90" y1="774" x2="226" y2="774" stroke="#eee" stroke-width="0.6"/><line x1="90" y1="791" x2="226" y2="791" stroke="#eee" stroke-width="0.6"/><line x1="90" y1="808" x2="226" y2="808" stroke="#eee" stroke-width="0.6"/><line x1="90" y1="825" x2="226" y2="825" stroke="#eee" stroke-width="0.6"/><line x1="90" y1="842" x2="226" y2="842" stroke="#eee" stroke-width="0.6"/><line x1="90" y1="859" x2="226" y2="859" stroke="#eee" stroke-width="0.6"/><text x="158" y="893" font-size="11" text-anchor="middle" fill="#111" font-weight="700" font-family="'Hiragino Sans','Hiragino Kaku Gothic ProN','Noto Sans JP','Yu Gothic',Meiryo,'IPAGothic',sans-serif">1階　上から下ろしたスパンに合わせる</text><rect x="90" y="706" width="34" height="68" fill="#dbe6f2" stroke="#9aa" stroke-width="0.8"/><text x="107" y="743" font-size="9" text-anchor="middle" fill="#111" font-weight="400" font-family="'Hiragino Sans','Hiragino Kaku Gothic ProN','Noto Sans JP','Yu Gothic',Meiryo,'IPAGothic',sans-serif">階段</text><rect x="124" y="706" width="102" height="68" fill="#fbe3cd" stroke="#9aa" stroke-width="0.8"/><text x="175" y="743" font-size="9" text-anchor="middle" fill="#111" font-weight="400" font-family="'Hiragino Sans','Hiragino Kaku Gothic ProN','Noto Sans JP','Yu Gothic',Meiryo,'IPAGothic',sans-serif">厨房・スタッフ</text><rect x="90" y="774" width="34" height="102" fill="#dbe6f2" stroke="#9aa" stroke-width="0.8"/><text x="107" y="828" font-size="9" text-anchor="middle" fill="#111" font-weight="400" font-family="'Hiragino Sans','Hiragino Kaku Gothic ProN','Noto Sans JP','Yu Gothic',Meiryo,'IPAGothic',sans-serif">玄関・便所</text><rect x="124" y="774" width="102" height="102" fill="#fbe3cd" stroke="#9aa" stroke-width="0.8"/><text x="175" y="828" font-size="9" text-anchor="middle" fill="#111" font-weight="400" font-family="'Hiragino Sans','Hiragino Kaku Gothic ProN','Noto Sans JP','Yu Gothic',Meiryo,'IPAGothic',sans-serif">売場</text><line x1="82" y1="774" x2="234" y2="774" stroke="#c0392b" stroke-width="1.6" stroke-dasharray="6 3"/><circle cx="90" cy="706" r="6" fill="#fff" stroke="#c0392b" stroke-width="1.8"/><rect x="87" y="703" width="6" height="6" fill="#111"/><circle cx="226" cy="706" r="6" fill="#fff" stroke="#c0392b" stroke-width="1.8"/><rect x="223" y="703" width="6" height="6" fill="#111"/><circle cx="90" cy="876" r="6" fill="#fff" stroke="#c0392b" stroke-width="1.8"/><rect x="87" y="873" width="6" height="6" fill="#111"/><circle cx="226" cy="876" r="6" fill="#fff" stroke="#c0392b" stroke-width="1.8"/><rect x="223" y="873" width="6" height="6" fill="#111"/><text x="268" y="716" font-size="13" text-anchor="start" fill="#111" font-weight="700" font-family="'Hiragino Sans','Hiragino Kaku Gothic ProN','Noto Sans JP','Yu Gothic',Meiryo,'IPAGothic',sans-serif">なぜ1階が最後なのか</text><text x="268" y="736" font-size="11.5" text-anchor="start" fill="#444" font-weight="400" font-family="'Hiragino Sans','Hiragino Kaku Gothic ProN','Noto Sans JP','Yu Gothic',Meiryo,'IPAGothic',sans-serif">1階は店舗など大きな部屋が多いので、割り方の自由がききます。</text><text x="268" y="756" font-size="11.5" text-anchor="start" fill="#444" font-weight="400" font-family="'Hiragino Sans','Hiragino Kaku Gothic ProN','Noto Sans JP','Yu Gothic',Meiryo,'IPAGothic',sans-serif">逆に2階・3階は「6帖」「8帖」と大きさの決まった部屋を並べるので、</text><text x="268" y="776" font-size="11.5" text-anchor="start" fill="#444" font-weight="400" font-family="'Hiragino Sans','Hiragino Kaku Gothic ProN','Noto Sans JP','Yu Gothic',Meiryo,'IPAGothic',sans-serif">ほとんど動かせません。</text><text x="268" y="796" font-size="6" text-anchor="start" fill="#444" font-weight="400" font-family="'Hiragino Sans','Hiragino Kaku Gothic ProN','Noto Sans JP','Yu Gothic',Meiryo,'IPAGothic',sans-serif"></text><text x="268" y="816" font-size="12" text-anchor="start" fill="#c0392b" font-weight="700" font-family="'Hiragino Sans','Hiragino Kaku Gothic ProN','Noto Sans JP','Yu Gothic',Meiryo,'IPAGothic',sans-serif">動かせない方を先に決めて、動かせる方を後から合わせる。</text><text x="268" y="836" font-size="6" text-anchor="start" fill="#444" font-weight="400" font-family="'Hiragino Sans','Hiragino Kaku Gothic ProN','Noto Sans JP','Yu Gothic',Meiryo,'IPAGothic',sans-serif"></text><text x="268" y="856" font-size="11.5" text-anchor="start" fill="#444" font-weight="400" font-family="'Hiragino Sans','Hiragino Kaku Gothic ProN','Noto Sans JP','Yu Gothic',Meiryo,'IPAGothic',sans-serif">「3階のスパンの下に1階の柱がない」という事故もこれで防げます。</text><text x="268" y="876" font-size="11.5" text-anchor="start" fill="#444" font-weight="400" font-family="'Hiragino Sans','Hiragino Kaku Gothic ProN','Noto Sans JP','Yu Gothic',Meiryo,'IPAGothic',sans-serif">スパンが決まった時点で、四隅の通し柱（○）の位置も確定します。</text></svg>