<svg xmlns="http://www.w3.org/2000/svg" viewBox="0 0 400 490" width="400" height="490" font-family="'Hiragino Sans','Hiragino Kaku Gothic ProN','Noto Sans JP','Yu Gothic',Meiryo,'IPAGothic',sans-serif"><rect width="400" height="490" fill="#ffffff"/><rect x="0" y="0" width="400" height="490" fill="#ffffff"/><circle cx="30" cy="32" r="19" fill="#c0392b"/><text x="30" y="39" font-size="20" text-anchor="middle" fill="#fff" font-weight="700" font-family="'Hiragino Sans','Hiragino Kaku Gothic ProN','Noto Sans JP','Yu Gothic',Meiryo,'IPAGothic',sans-serif">9</text><text x="58" y="30" font-size="15" text-anchor="start" fill="#111" font-weight="700" font-family="'Hiragino Sans','Hiragino Kaku Gothic ProN','Noto Sans JP','Yu Gothic',Meiryo,'IPAGothic',sans-serif">ざいりょうの なまえを かく</text><text x="58" y="48" font-size="10.5" text-anchor="start" fill="#555" font-weight="400" font-family="'Hiragino Sans','Hiragino Kaku Gothic ProN','Noto Sans JP','Yu Gothic',Meiryo,'IPAGothic',sans-serif">みぎがわに ひきだしせん を ひいて かく。</text><text x="58" y="63" font-size="10.5" text-anchor="start" fill="#555" font-weight="400" font-family="'Hiragino Sans','Hiragino Kaku Gothic ProN','Noto Sans JP','Yu Gothic',Meiryo,'IPAGothic',sans-serif">ここを わすれると てんが もらえない。</text><text x="26" y="88" font-size="10" text-anchor="start" fill="#9aa09a" font-weight="400" font-family="'Hiragino Sans','Hiragino Kaku Gothic ProN','Noto Sans JP','Yu Gothic',Meiryo,'IPAGothic',sans-serif">← へやの なか</text><text x="374" y="88" font-size="10" text-anchor="end" fill="#9aa09a" font-weight="400" font-family="'Hiragino Sans','Hiragino Kaku Gothic ProN','Noto Sans JP','Yu Gothic',Meiryo,'IPAGothic',sans-serif">そと →</text><line x1="42" y1="110" x2="272" y2="110" stroke="#aaa" stroke-width="1.0"/><line x1="42" y1="136" x2="272" y2="136" stroke="#aaa" stroke-width="1.0"/><line x1="42" y1="370" x2="272" y2="370" stroke="#aaa" stroke-width="1.0"/><line x1="42" y1="392" x2="272" y2="392" stroke="#aaa" stroke-width="1.0"/><line x1="42" y1="422" x2="272" y2="422" stroke="#aaa" stroke-width="1.0"/><line x1="172" y1="110" x2="172" y2="422" stroke="#111" stroke-width="1.8"/><line x1="196" y1="110" x2="196" y2="422" stroke="#111" stroke-width="1.8"/><rect x="254" y="422" width="46" height="32" fill="#f0ede6" stroke="none"/><rect x="172" y="392" width="24" height="54" fill="#dedede" stroke="#666" stroke-width="1.2"/><rect x="150" y="446" width="68" height="8" fill="#dedede" stroke="#666" stroke-width="1.2"/><rect x="172" y="370" width="24" height="22" fill="#efdcbb" stroke="#8a6a35" stroke-width="1.2"/><rect x="62" y="362" width="110" height="8" fill="#efdcbb" stroke="#8a6a35" stroke-width="1.0"/><rect x="172" y="110" width="24" height="26" fill="#efdcbb" stroke="#8a6a35" stroke-width="1.2"/><rect x="62" y="102" width="110" height="8" fill="#efdcbb" stroke="#8a6a35" stroke-width="1.0"/><line x1="62" y1="136" x2="172" y2="136" stroke="#8a6a35" stroke-width="1.2"/><rect x="164" y="136" width="8" height="234" fill="#ececec" stroke="#777" stroke-width="0.8"/><rect x="196" y="110" width="5" height="312" fill="#f0e2c8" stroke="#777" stroke-width="0.8"/><rect x="201" y="110" width="9" height="312" fill="#f7f7f7" stroke="#777" stroke-width="0.8"/><rect x="210" y="110" width="12" height="312" fill="#cfd8dc" stroke="#777" stroke-width="0.8"/><line x1="134" y1="370" x2="134" y2="422" stroke="#c0392b" stroke-width="0.9"/><line x1="130" y1="370" x2="138" y2="370" stroke="#c0392b" stroke-width="0.9"/><line x1="130" y1="422" x2="138" y2="422" stroke="#c0392b" stroke-width="0.9"/><text x="128" y="400" font-size="11" text-anchor="end" fill="#c0392b" font-weight="700" font-family="'Hiragino Sans','Hiragino Kaku Gothic ProN','Noto Sans JP','Yu Gothic',Meiryo,'IPAGothic',sans-serif">550</text><line x1="256" y1="162" x2="272" y2="154" stroke="#c0392b" stroke-width="0.8"/><line x1="272" y1="154" x2="288" y2="154" stroke="#c0392b" stroke-width="0.8"/><text x="290" y="158" font-size="9.5" text-anchor="start" fill="#c0392b" font-weight="700" font-family="'Hiragino Sans','Hiragino Kaku Gothic ProN','Noto Sans JP','Yu Gothic',Meiryo,'IPAGothic',sans-serif">サイディング16</text><line x1="256" y1="308" x2="272" y2="300" stroke="#c0392b" stroke-width="0.8"/><line x1="272" y1="300" x2="288" y2="300" stroke="#c0392b" stroke-width="0.8"/><text x="290" y="304" font-size="9.5" text-anchor="start" fill="#c0392b" font-weight="700" font-family="'Hiragino Sans','Hiragino Kaku Gothic ProN','Noto Sans JP','Yu Gothic',Meiryo,'IPAGothic',sans-serif">ごうはん9</text><line x1="256" y1="416" x2="272" y2="408" stroke="#c0392b" stroke-width="0.8"/><line x1="272" y1="408" x2="288" y2="408" stroke="#c0392b" stroke-width="0.8"/><text x="290" y="412" font-size="9.5" text-anchor="start" fill="#c0392b" font-weight="700" font-family="'Hiragino Sans','Hiragino Kaku Gothic ProN','Noto Sans JP','Yu Gothic',Meiryo,'IPAGothic',sans-serif">どだい120</text></svg>