<svg xmlns="http://www.w3.org/2000/svg" viewBox="0 0 660 842" width="660" height="842" font-family="'Hiragino Sans','Hiragino Kaku Gothic ProN','Noto Sans JP','Yu Gothic',Meiryo,'IPAGothic',sans-serif"><rect width="660" height="842" fill="#ffffff"/><text x="330" y="36" font-size="21" text-anchor="middle" fill="#111" font-weight="700" font-family="'Hiragino Sans','Hiragino Kaku Gothic ProN','Noto Sans JP','Yu Gothic',Meiryo,'IPAGothic',sans-serif">1階平面図 兼 配置図</text><text x="330" y="60" font-size="12" text-anchor="middle" fill="#666" font-weight="400" font-family="'Hiragino Sans','Hiragino Kaku Gothic ProN','Noto Sans JP','Yu Gothic',Meiryo,'IPAGothic',sans-serif">1マス = 910mm ／ 間口 7,280 × 奥行 9,100 ／ 床面積 66.25㎡</text><line x1="100" y1="120" x2="100" y2="680" stroke="#e8e8e8" stroke-width="0.7"/><line x1="156" y1="120" x2="156" y2="680" stroke="#e8e8e8" stroke-width="0.7"/><line x1="212" y1="120" x2="212" y2="680" stroke="#e8e8e8" stroke-width="0.7"/><line x1="268" y1="120" x2="268" y2="680" stroke="#e8e8e8" stroke-width="0.7"/><line x1="324" y1="120" x2="324" y2="680" stroke="#e8e8e8" stroke-width="0.7"/><line x1="380" y1="120" x2="380" y2="680" stroke="#e8e8e8" stroke-width="0.7"/><line x1="436" y1="120" x2="436" y2="680" stroke="#e8e8e8" stroke-width="0.7"/><line x1="492" y1="120" x2="492" y2="680" stroke="#e8e8e8" stroke-width="0.7"/><line x1="548" y1="120" x2="548" y2="680" stroke="#e8e8e8" stroke-width="0.7"/><line x1="100" y1="680" x2="548" y2="680" stroke="#e8e8e8" stroke-width="0.7"/><line x1="100" y1="624" x2="548" y2="624" stroke="#e8e8e8" stroke-width="0.7"/><line x1="100" y1="568" x2="548" y2="568" stroke="#e8e8e8" stroke-width="0.7"/><line x1="100" y1="512" x2="548" y2="512" stroke="#e8e8e8" stroke-width="0.7"/><line x1="100" y1="456" x2="548" y2="456" stroke="#e8e8e8" stroke-width="0.7"/><line x1="100" y1="400" x2="548" y2="400" stroke="#e8e8e8" stroke-width="0.7"/><line x1="100" y1="344" x2="548" y2="344" stroke="#e8e8e8" stroke-width="0.7"/><line x1="100" y1="288" x2="548" y2="288" stroke="#e8e8e8" stroke-width="0.7"/><line x1="100" y1="232" x2="548" y2="232" stroke="#e8e8e8" stroke-width="0.7"/><line x1="100" y1="176" x2="548" y2="176" stroke="#e8e8e8" stroke-width="0.7"/><line x1="100" y1="120" x2="548" y2="120" stroke="#e8e8e8" stroke-width="0.7"/><rect x="100" y="568" width="112" height="112" fill="#f1e6fa" stroke="#8b62b5" stroke-width="1.2" opacity="0.95"/><text x="156" y="622" font-size="13" text-anchor="middle" fill="#1a1a1a" font-weight="700" font-family="'Hiragino Sans','Hiragino Kaku Gothic ProN','Noto Sans JP','Yu Gothic',Meiryo,'IPAGothic',sans-serif">住宅玄関</text><text x="156" y="639" font-size="11" text-anchor="middle" fill="#555" font-weight="400" font-family="'Hiragino Sans','Hiragino Kaku Gothic ProN','Noto Sans JP','Yu Gothic',Meiryo,'IPAGothic',sans-serif">3.31 ㎡</text><rect x="100" y="344" width="112" height="224" fill="#fff3c4" stroke="#bb9508" stroke-width="1.2" opacity="0.95"/><text x="156" y="454" font-size="13" text-anchor="middle" fill="#1a1a1a" font-weight="700" font-family="'Hiragino Sans','Hiragino Kaku Gothic ProN','Noto Sans JP','Yu Gothic',Meiryo,'IPAGothic',sans-serif">階　段</text><text x="156" y="471" font-size="11" text-anchor="middle" fill="#555" font-weight="400" font-family="'Hiragino Sans','Hiragino Kaku Gothic ProN','Noto Sans JP','Yu Gothic',Meiryo,'IPAGothic',sans-serif">6.62 ㎡</text><rect x="100" y="232" width="112" height="112" fill="#d5f0e7" stroke="#2f9077" stroke-width="1.2" opacity="0.95"/><text x="156" y="286" font-size="13" text-anchor="middle" fill="#1a1a1a" font-weight="700" font-family="'Hiragino Sans','Hiragino Kaku Gothic ProN','Noto Sans JP','Yu Gothic',Meiryo,'IPAGothic',sans-serif">店舗用便所</text><text x="156" y="303" font-size="11" text-anchor="middle" fill="#555" font-weight="400" font-family="'Hiragino Sans','Hiragino Kaku Gothic ProN','Noto Sans JP','Yu Gothic',Meiryo,'IPAGothic',sans-serif">3.31 ㎡</text><rect x="100" y="120" width="112" height="112" fill="#ececec" stroke="#8a8a8a" stroke-width="1.2" opacity="0.95"/><text x="156" y="174" font-size="13" text-anchor="middle" fill="#1a1a1a" font-weight="700" font-family="'Hiragino Sans','Hiragino Kaku Gothic ProN','Noto Sans JP','Yu Gothic',Meiryo,'IPAGothic',sans-serif">倉　庫</text><text x="156" y="191" font-size="11" text-anchor="middle" fill="#555" font-weight="400" font-family="'Hiragino Sans','Hiragino Kaku Gothic ProN','Noto Sans JP','Yu Gothic',Meiryo,'IPAGothic',sans-serif">3.31 ㎡</text><rect x="212" y="344" width="336" height="336" fill="#ffe6d0" stroke="#c9762f" stroke-width="1.2" opacity="0.95"/><text x="380" y="510" font-size="16" text-anchor="middle" fill="#1a1a1a" font-weight="700" font-family="'Hiragino Sans','Hiragino Kaku Gothic ProN','Noto Sans JP','Yu Gothic',Meiryo,'IPAGothic',sans-serif">店舗売場</text><text x="380" y="529" font-size="12" text-anchor="middle" fill="#555" font-weight="400" font-family="'Hiragino Sans','Hiragino Kaku Gothic ProN','Noto Sans JP','Yu Gothic',Meiryo,'IPAGothic',sans-serif">29.81 ㎡</text><rect x="212" y="120" width="168" height="224" fill="#ffe6d0" stroke="#c9762f" stroke-width="1.2" opacity="0.95"/><text x="296" y="230" font-size="13" text-anchor="middle" fill="#1a1a1a" font-weight="700" font-family="'Hiragino Sans','Hiragino Kaku Gothic ProN','Noto Sans JP','Yu Gothic',Meiryo,'IPAGothic',sans-serif">厨房・作業場</text><text x="296" y="247" font-size="11" text-anchor="middle" fill="#555" font-weight="400" font-family="'Hiragino Sans','Hiragino Kaku Gothic ProN','Noto Sans JP','Yu Gothic',Meiryo,'IPAGothic',sans-serif">9.94 ㎡</text><rect x="380" y="120" width="168" height="224" fill="#ffe6d0" stroke="#c9762f" stroke-width="1.2" opacity="0.95"/><text x="464" y="230" font-size="13" text-anchor="middle" fill="#1a1a1a" font-weight="700" font-family="'Hiragino Sans','Hiragino Kaku Gothic ProN','Noto Sans JP','Yu Gothic',Meiryo,'IPAGothic',sans-serif">スタッフルーム</text><text x="464" y="247" font-size="11" text-anchor="middle" fill="#555" font-weight="400" font-family="'Hiragino Sans','Hiragino Kaku Gothic ProN','Noto Sans JP','Yu Gothic',Meiryo,'IPAGothic',sans-serif">9.94 ㎡</text><line x1="100" y1="102" x2="100" y2="706" stroke="#b03060" stroke-width="0.9" stroke-dasharray="9 3 2 3" opacity="0.55"/><line x1="212" y1="102" x2="212" y2="706" stroke="#b03060" stroke-width="0.9" stroke-dasharray="9 3 2 3" opacity="0.55"/><line x1="380" y1="102" x2="380" y2="706" stroke="#b03060" stroke-width="0.9" stroke-dasharray="9 3 2 3" opacity="0.55"/><line x1="548" y1="102" x2="548" y2="706" stroke="#b03060" stroke-width="0.9" stroke-dasharray="9 3 2 3" opacity="0.55"/><line x1="82" y1="680" x2="574" y2="680" stroke="#b03060" stroke-width="0.9" stroke-dasharray="9 3 2 3" opacity="0.55"/><line x1="82" y1="568" x2="574" y2="568" stroke="#b03060" stroke-width="0.9" stroke-dasharray="9 3 2 3" opacity="0.55"/><line x1="82" y1="344" x2="574" y2="344" stroke="#b03060" stroke-width="0.9" stroke-dasharray="9 3 2 3" opacity="0.55"/><line x1="82" y1="120" x2="574" y2="120" stroke="#b03060" stroke-width="0.9" stroke-dasharray="9 3 2 3" opacity="0.55"/><rect x="100" y="120" width="448" height="560" stroke="#111" stroke-width="3.4" fill="none"/><line x1="240" y1="680" x2="408" y2="680" stroke="#ffffff" stroke-width="4.2"/><line x1="240" y1="680" x2="408" y2="680" stroke="#d0342f" stroke-width="5.0"/><text x="324" y="700" font-size="11" text-anchor="middle" fill="#d0342f" font-weight="700" font-family="'Hiragino Sans','Hiragino Kaku Gothic ProN','Noto Sans JP','Yu Gothic',Meiryo,'IPAGothic',sans-serif">店舗出入口</text><line x1="116.8" y1="680" x2="195.2" y2="680" stroke="#ffffff" stroke-width="4.2"/><line x1="116.8" y1="680" x2="195.2" y2="680" stroke="#d0342f" stroke-width="5.0"/><text x="156" y="700" font-size="11" text-anchor="middle" fill="#d0342f" font-weight="700" font-family="'Hiragino Sans','Hiragino Kaku Gothic ProN','Noto Sans JP','Yu Gothic',Meiryo,'IPAGothic',sans-serif">住宅玄関</text><line x1="436" y1="680" x2="520" y2="680" stroke="#ffffff" stroke-width="4.2"/><line x1="436" y1="680" x2="520" y2="680" stroke="#2f7fd0" stroke-width="5.0"/><line x1="548" y1="652" x2="548" y2="568" stroke="#ffffff" stroke-width="4.2"/><line x1="548" y1="652" x2="548" y2="568" stroke="#2f7fd0" stroke-width="5.0"/><line x1="548" y1="512" x2="548" y2="400" stroke="#ffffff" stroke-width="4.2"/><line x1="548" y1="512" x2="548" y2="400" stroke="#2f7fd0" stroke-width="5.0"/><line x1="548" y1="316" x2="548" y2="176" stroke="#ffffff" stroke-width="4.2"/><line x1="548" y1="316" x2="548" y2="176" stroke="#2f7fd0" stroke-width="5.0"/><line x1="240" y1="120" x2="352" y2="120" stroke="#ffffff" stroke-width="4.2"/><line x1="240" y1="120" x2="352" y2="120" stroke="#d0342f" stroke-width="5.0"/><text x="296" y="110" font-size="11" text-anchor="middle" fill="#d0342f" font-weight="700" font-family="'Hiragino Sans','Hiragino Kaku Gothic ProN','Noto Sans JP','Yu Gothic',Meiryo,'IPAGothic',sans-serif">勝手口</text><line x1="408" y1="120" x2="520" y2="120" stroke="#ffffff" stroke-width="4.2"/><line x1="408" y1="120" x2="520" y2="120" stroke="#2f7fd0" stroke-width="5.0"/><line x1="100" y1="209.6" x2="100" y2="142.4" stroke="#ffffff" stroke-width="4.2"/><line x1="100" y1="209.6" x2="100" y2="142.4" stroke="#2f7fd0" stroke-width="5.0"/><line x1="380" y1="344" x2="380" y2="120" stroke="#111" stroke-width="2.0"/><line x1="212" y1="344" x2="212" y2="120" stroke="#111" stroke-width="2.0"/><line x1="212" y1="232" x2="212" y2="120" stroke="#111" stroke-width="2.0"/><line x1="212" y1="680" x2="212" y2="344" stroke="#111" stroke-width="2.0"/><line x1="100" y1="568" x2="212" y2="568" stroke="#111" stroke-width="2.0"/><line x1="212" y1="568" x2="212" y2="344" stroke="#111" stroke-width="2.0"/><line x1="380" y1="344" x2="548" y2="344" stroke="#111" stroke-width="2.0"/><line x1="100" y1="232" x2="212" y2="232" stroke="#111" stroke-width="2.0"/><line x1="212" y1="680" x2="212" y2="568" stroke="#111" stroke-width="2.0"/><line x1="100" y1="344" x2="212" y2="344" stroke="#111" stroke-width="2.0"/><line x1="212" y1="344" x2="212" y2="232" stroke="#111" stroke-width="2.0"/><line x1="212" y1="344" x2="380" y2="344" stroke="#111" stroke-width="2.0"/><line x1="212" y1="344" x2="548" y2="344" stroke="#111" stroke-width="2.0"/><line x1="122.4" y1="568" x2="189.6" y2="568" stroke="#ffffff" stroke-width="3.4"/><line x1="122.4" y1="568" x2="122.4" y2="613.92" stroke="#777" stroke-width="0.9"/><path d="M 122.4 613.9 A 45.9 45.9 0 0 1 168.3 568.0" stroke="#aaa" stroke-width="0.8" fill="none"/><line x1="212" y1="500.8" x2="212" y2="444.8" stroke="#ffffff" stroke-width="3.4"/><line x1="212" y1="500.8" x2="252.32" y2="500.8" stroke="#777" stroke-width="0.9"/><path d="M 252.3 500.8 A 40.3 40.3 0 0 1 212.0 460.5" stroke="#aaa" stroke-width="0.8" fill="none"/><line x1="268" y1="344" x2="357.6" y2="344" stroke="#ffffff" stroke-width="3.4"/><line x1="268" y1="342" x2="357.6" y2="342" stroke="#777" stroke-width="1.0"/><line x1="268" y1="346" x2="357.6" y2="346" stroke="#777" stroke-width="1.0"/><line x1="212" y1="316" x2="212" y2="260" stroke="#ffffff" stroke-width="3.4"/><line x1="212" y1="316" x2="252.32" y2="316" stroke="#777" stroke-width="0.9"/><path d="M 252.3 316.0 A 40.3 40.3 0 0 1 212.0 275.7" stroke="#aaa" stroke-width="0.8" fill="none"/><line x1="212" y1="204" x2="212" y2="148" stroke="#ffffff" stroke-width="3.4"/><line x1="212" y1="204" x2="252.32" y2="204" stroke="#777" stroke-width="0.9"/><path d="M 252.3 204.0 A 40.3 40.3 0 0 1 212.0 163.7" stroke="#aaa" stroke-width="0.8" fill="none"/><line x1="380" y1="260" x2="380" y2="192.8" stroke="#ffffff" stroke-width="3.4"/><line x1="380" y1="260" x2="425.92" y2="260" stroke="#777" stroke-width="0.9"/><path d="M 425.9 260.0 A 45.9 45.9 0 0 1 380.0 214.1" stroke="#aaa" stroke-width="0.8" fill="none"/><rect x="104" y="348" width="104" height="216" fill="none" stroke="#c0392b" stroke-width="1.6" stroke-dasharray="6 4"/><line x1="156" y1="568" x2="156" y2="400" stroke="#8a6d00" stroke-width="1.6"/><line x1="103" y1="547" x2="156" y2="547" stroke="#8a6d00" stroke-width="0.9"/><line x1="156" y1="547" x2="209" y2="547" stroke="#8a6d00" stroke-width="0.9"/><line x1="103" y1="526" x2="156" y2="526" stroke="#8a6d00" stroke-width="0.9"/><line x1="156" y1="526" x2="209" y2="526" stroke="#8a6d00" stroke-width="0.9"/><line x1="103" y1="505" x2="156" y2="505" stroke="#8a6d00" stroke-width="0.9"/><line x1="156" y1="505" x2="209" y2="505" stroke="#8a6d00" stroke-width="0.9"/><line x1="103" y1="484" x2="156" y2="484" stroke="#8a6d00" stroke-width="0.9"/><line x1="156" y1="484" x2="209" y2="484" stroke="#8a6d00" stroke-width="0.9"/><line x1="103" y1="463" x2="156" y2="463" stroke="#8a6d00" stroke-width="0.9"/><line x1="156" y1="463" x2="209" y2="463" stroke="#8a6d00" stroke-width="0.9"/><line x1="103" y1="442" x2="156" y2="442" stroke="#8a6d00" stroke-width="0.9"/><line x1="156" y1="442" x2="209" y2="442" stroke="#8a6d00" stroke-width="0.9"/><line x1="103" y1="421" x2="156" y2="421" stroke="#8a6d00" stroke-width="0.9"/><line x1="156" y1="421" x2="209" y2="421" stroke="#8a6d00" stroke-width="0.9"/><line x1="103" y1="400" x2="209" y2="400" stroke="#8a6d00" stroke-width="1.6"/><text x="156" y="369.2" font-size="10" text-anchor="middle" fill="#8a6d00" font-weight="400" font-family="'Hiragino Sans','Hiragino Kaku Gothic ProN','Noto Sans JP','Yu Gothic',Meiryo,'IPAGothic',sans-serif">踊り場</text><line x1="128" y1="551.2" x2="128" y2="405.6" stroke="#8a6d00" stroke-width="1.6"/><polygon points="128,391.6 123,408.4 133,408.4" fill="#8a6d00"/><text x="184" y="537.2" font-size="12" text-anchor="middle" fill="#8a6d00" font-weight="700" font-family="'Hiragino Sans','Hiragino Kaku Gothic ProN','Noto Sans JP','Yu Gothic',Meiryo,'IPAGothic',sans-serif">UP</text><rect x="208" y="676" width="8" height="8" fill="#111"/><rect x="376" y="676" width="8" height="8" fill="#111"/><rect x="96" y="564" width="8" height="8" fill="#111"/><rect x="544" y="564" width="8" height="8" fill="#111"/><rect x="96" y="340" width="8" height="8" fill="#111"/><rect x="544" y="340" width="8" height="8" fill="#111"/><rect x="208" y="116" width="8" height="8" fill="#111"/><rect x="376" y="116" width="8" height="8" fill="#111"/><rect x="208" y="564" width="8" height="8" fill="#111"/><rect x="376" y="564" width="8" height="8" fill="#111"/><rect x="208" y="340" width="8" height="8" fill="#111"/><rect x="376" y="340" width="8" height="8" fill="#111"/><circle cx="100" cy="680" r="8" fill="#ffffff" stroke="#c0392b" stroke-width="2.4"/><circle cx="100" cy="680" r="4" fill="#c0392b"/><circle cx="548" cy="680" r="8" fill="#ffffff" stroke="#c0392b" stroke-width="2.4"/><circle cx="548" cy="680" r="4" fill="#c0392b"/><circle cx="100" cy="120" r="8" fill="#ffffff" stroke="#c0392b" stroke-width="2.4"/><circle cx="100" cy="120" r="4" fill="#c0392b"/><circle cx="548" cy="120" r="8" fill="#ffffff" stroke="#c0392b" stroke-width="2.4"/><circle cx="548" cy="120" r="4" fill="#c0392b"/><circle cx="100" cy="84" r="11" fill="#ffffff" stroke="#b03060" stroke-width="1.2"/><text x="100" y="88" font-size="12" text-anchor="middle" fill="#b03060" font-weight="700" font-family="'Hiragino Sans','Hiragino Kaku Gothic ProN','Noto Sans JP','Yu Gothic',Meiryo,'IPAGothic',sans-serif">A</text><circle cx="212" cy="84" r="11" fill="#ffffff" stroke="#b03060" stroke-width="1.2"/><text x="212" y="88" font-size="12" text-anchor="middle" fill="#b03060" font-weight="700" font-family="'Hiragino Sans','Hiragino Kaku Gothic ProN','Noto Sans JP','Yu Gothic',Meiryo,'IPAGothic',sans-serif">B</text><circle cx="380" cy="84" r="11" fill="#ffffff" stroke="#b03060" stroke-width="1.2"/><text x="380" y="88" font-size="12" text-anchor="middle" fill="#b03060" font-weight="700" font-family="'Hiragino Sans','Hiragino Kaku Gothic ProN','Noto Sans JP','Yu Gothic',Meiryo,'IPAGothic',sans-serif">C</text><circle cx="548" cy="84" r="11" fill="#ffffff" stroke="#b03060" stroke-width="1.2"/><text x="548" y="88" font-size="12" text-anchor="middle" fill="#b03060" font-weight="700" font-family="'Hiragino Sans','Hiragino Kaku Gothic ProN','Noto Sans JP','Yu Gothic',Meiryo,'IPAGothic',sans-serif">D</text><circle cx="60" cy="680" r="11" fill="#ffffff" stroke="#b03060" stroke-width="1.2"/><text x="60" y="684" font-size="12" text-anchor="middle" fill="#b03060" font-weight="700" font-family="'Hiragino Sans','Hiragino Kaku Gothic ProN','Noto Sans JP','Yu Gothic',Meiryo,'IPAGothic',sans-serif">1</text><circle cx="60" cy="568" r="11" fill="#ffffff" stroke="#b03060" stroke-width="1.2"/><text x="60" y="572" font-size="12" text-anchor="middle" fill="#b03060" font-weight="700" font-family="'Hiragino Sans','Hiragino Kaku Gothic ProN','Noto Sans JP','Yu Gothic',Meiryo,'IPAGothic',sans-serif">2</text><circle cx="60" cy="344" r="11" fill="#ffffff" stroke="#b03060" stroke-width="1.2"/><text x="60" y="348" font-size="12" text-anchor="middle" fill="#b03060" font-weight="700" font-family="'Hiragino Sans','Hiragino Kaku Gothic ProN','Noto Sans JP','Yu Gothic',Meiryo,'IPAGothic',sans-serif">3</text><circle cx="60" cy="120" r="11" fill="#ffffff" stroke="#b03060" stroke-width="1.2"/><text x="60" y="124" font-size="12" text-anchor="middle" fill="#b03060" font-weight="700" font-family="'Hiragino Sans','Hiragino Kaku Gothic ProN','Noto Sans JP','Yu Gothic',Meiryo,'IPAGothic',sans-serif">4</text><line x1="100" y1="732" x2="548" y2="732" stroke="#444" stroke-width="0.8"/><line x1="100" y1="728" x2="100" y2="736" stroke="#444" stroke-width="0.8"/><line x1="548" y1="728" x2="548" y2="736" stroke="#444" stroke-width="0.8"/><text x="324" y="727" font-size="11" text-anchor="middle" fill="#444" font-weight="400" font-family="'Hiragino Sans','Hiragino Kaku Gothic ProN','Noto Sans JP','Yu Gothic',Meiryo,'IPAGothic',sans-serif">7,280  ( 910 × 8マス )</text><line x1="594" y1="680" x2="594" y2="120" stroke="#444" stroke-width="0.8"/><line x1="590" y1="680" x2="598" y2="680" stroke="#444" stroke-width="0.8"/><line x1="590" y1="120" x2="598" y2="120" stroke="#444" stroke-width="0.8"/><g transform="translate(588,400) rotate(-90)"><text x="0" y="0" font-size="11" text-anchor="middle" fill="#444" font-weight="400" font-family="'Hiragino Sans','Hiragino Kaku Gothic ProN','Noto Sans JP','Yu Gothic',Meiryo,'IPAGothic',sans-serif">9,100  ( 910 × 10マス )</text></g><circle cx="614" cy="146" r="19" fill="#ffffff" stroke="#444" stroke-width="1.1"/><polygon points="614,132 608,153 614,148 620,153" fill="#c0392b"/><text x="614" y="165" font-size="11" text-anchor="middle" fill="#444" font-weight="700" font-family="'Hiragino Sans','Hiragino Kaku Gothic ProN','Noto Sans JP','Yu Gothic',Meiryo,'IPAGothic',sans-serif">N</text><rect x="66.4" y="740" width="515.2" height="26" fill="#f2f2f2" stroke="#bbb" stroke-width="0.8"/><text x="324" y="757" font-size="12" text-anchor="middle" fill="#666" font-weight="700" font-family="'Hiragino Sans','Hiragino Kaku Gothic ProN','Noto Sans JP','Yu Gothic',Meiryo,'IPAGothic',sans-serif">道　路（南）</text><circle cx="108" cy="792" r="7" fill="#ffffff" stroke="#c0392b" stroke-width="2.0"/><circle cx="108" cy="792" r="3.5" fill="#c0392b"/><text x="120" y="796" font-size="11" text-anchor="start" fill="#444" font-weight="400" font-family="'Hiragino Sans','Hiragino Kaku Gothic ProN','Noto Sans JP','Yu Gothic',Meiryo,'IPAGothic',sans-serif">通し柱 120角</text><rect x="216" y="788" width="8" height="8" fill="#111"/><text x="230" y="796" font-size="11" text-anchor="start" fill="#444" font-weight="400" font-family="'Hiragino Sans','Hiragino Kaku Gothic ProN','Noto Sans JP','Yu Gothic',Meiryo,'IPAGothic',sans-serif">管柱 105角</text><line x1="316" y1="792" x2="338" y2="792" stroke="#2f7fd0" stroke-width="5"/><text x="344" y="796" font-size="11" text-anchor="start" fill="#444" font-weight="400" font-family="'Hiragino Sans','Hiragino Kaku Gothic ProN','Noto Sans JP','Yu Gothic',Meiryo,'IPAGothic',sans-serif">窓</text><line x1="372" y1="792" x2="394" y2="792" stroke="#d0342f" stroke-width="5"/><text x="400" y="796" font-size="11" text-anchor="start" fill="#444" font-weight="400" font-family="'Hiragino Sans','Hiragino Kaku Gothic ProN','Noto Sans JP','Yu Gothic',Meiryo,'IPAGothic',sans-serif">出入口</text><rect x="452" y="787" width="20" height="10" fill="none" stroke="#c0392b" stroke-width="1.4" stroke-dasharray="4 3"/><text x="478" y="796" font-size="11" text-anchor="start" fill="#444" font-weight="400" font-family="'Hiragino Sans','Hiragino Kaku Gothic ProN','Noto Sans JP','Yu Gothic',Meiryo,'IPAGothic',sans-serif">竪穴区画</text><text x="330" y="824" font-size="11.5" text-anchor="middle" fill="#555" font-weight="400" font-family="'Hiragino Sans','Hiragino Kaku Gothic ProN','Noto Sans JP','Yu Gothic',Meiryo,'IPAGothic',sans-serif">南＝商店街の通り。売場を道路に面して最大に取る。　／　階段 UP 15段（蹴上206.7 / 踏面210）</text></svg>